<svg id="レイヤー_2" data-name="レイヤー 2" xmlns="http://www.w3.org/2000/svg" width="260.877" height="163.534" viewBox="0 0 260.877 163.534">
  <defs>
    <style>
      .cls-1 {
        fill: #2C3242;
      }

      .cls-2 {
        fill: none;
      }
    </style>
  </defs>
  <g id="レイヤー_1" data-name="レイヤー 1">
    <path id="パス_317" data-name="パス 317" class="cls-1" d="M813.422,442.011l3.734-5.663a1.192,1.192,0,0,1,.516-.411c.206-.095.471-.267.461-.452-.066-1.041,1.11-1.308,1.32-2.194.08-.335.341-.654.465-1.028a3.346,3.346,0,0,1,.679-1.174c.286-.313.3-.471.027-.8a31.039,31.039,0,0,1-2.017-2.862,23.482,23.482,0,0,1-1.419-3,10.448,10.448,0,0,1-.557-2.355,4.078,4.078,0,0,1,.66-2.749,1.166,1.166,0,0,1,1.028-.664,3.522,3.522,0,0,1,3.138,1.75,4.984,4.984,0,0,1,.411,2.246,6.989,6.989,0,0,0,.206,1.921,33.578,33.578,0,0,1,.411,3.687c.054.5.115,1.073.823,1.211a8.379,8.379,0,0,1,2.914-2.939,3.688,3.688,0,0,1,4.475.67,2.057,2.057,0,0,1-.317,2.714,9.927,9.927,0,0,1-3.173,1.984,12.631,12.631,0,0,1-4.417.977,3.927,3.927,0,0,0-1.01.177,1.1,1.1,0,0,0-.864.74,4.525,4.525,0,0,1-.775,1.115l-6.169,9.145c-.07.384-.5.249-.582.568.074.411.352.448.709.348a10.075,10.075,0,0,1,2.583-.374,2.293,2.293,0,0,1,1.851.6,1.632,1.632,0,0,1,.111,2.159,5.37,5.37,0,0,1-2.217,2.056,10.812,10.812,0,0,1-3.465,1.234,3.85,3.85,0,0,1-1.8-.169c-.206-.064-.358-.107-.492.16s-.389.206-.646.171a1,1,0,0,0-1.078.385,8.266,8.266,0,0,1-1.174,1.6,12.967,12.967,0,0,0-1.62,2.12,21.745,21.745,0,0,0-2.126,2.978.557.557,0,0,0,0,.518c.134.317-.029.568-.348.541a.894.894,0,0,0-.855.452c-.514.709-1.234,1.234-1.832,1.949a11.456,11.456,0,0,1,3.662.243,5.843,5.843,0,0,1,2.535,1.491,1.115,1.115,0,0,1,.016,1.612c-.823,1.184-2.153,1.277-3.356,1.546a5.346,5.346,0,0,1-3.829-.483c-.3-.169-.677-.339-.514-.915,1.123.142,2.208.7,3.407.366a8.811,8.811,0,0,0,3.29-1.376,5.05,5.05,0,0,0-2.106-.942,3.973,3.973,0,0,0-3.564.911.461.461,0,0,1-.736-.029,5.276,5.276,0,0,0-.465-.4c-3.451,3.352-6.856,6.72-10.541,9.971a13,13,0,0,0,1.978.206,3.242,3.242,0,0,1,2.951,3.946,1.213,1.213,0,0,0,.251,1.234.835.835,0,0,1,.222.847.594.594,0,0,1-.617.411c-.3,0-.356-.206-.372-.452a.666.666,0,0,0-.22-.526,6.3,6.3,0,0,1-1.536.744,4.559,4.559,0,0,1-3.551-1.11,7.3,7.3,0,0,1-1.68-1.748c-.14-.206-.306-.43-.07-.654s.467-.117.677.018a7.561,7.561,0,0,1,1.328,1.156,3.349,3.349,0,0,0,2.521,1.028,1.989,1.989,0,0,0,1.894-2.093,1.63,1.63,0,0,0-1.326-1.207,13.29,13.29,0,0,0-3.331-.144,3.787,3.787,0,0,0-2.634,1.337c-1.234,1.051-2.369,2.225-3.648,3.214-1.91,1.479-3.465,3.36-5.462,4.73a19.909,19.909,0,0,0-2.18,1.725c.364-.033.456-.411.738-.317.251.206-.045.286-.109.436.892.14,1.729.456,2.62.551.845.09,1.267.751,1.7,1.38.07.1-.027.191-.029.284,0,.522-.183,1.067.1,1.555.132.222-.15.36-.033.59a2.093,2.093,0,0,0,.849-.224c1.452-.617,2.916-1.213,4.355-1.865s3-1.17,4.507-1.729a21.667,21.667,0,0,0,2.8-1.322c1.555-.839,3.212-1.439,4.826-2.132a9.826,9.826,0,0,1,1.073-.411,1.353,1.353,0,0,0,1.125-1.345,2.773,2.773,0,0,1,1.365-2.305,8.056,8.056,0,0,1-.331-3.138,5.535,5.535,0,0,1,1.625-3.444.931.931,0,0,1,.368-.206,2.706,2.706,0,0,1,2.583.465,2.326,2.326,0,0,1,.592,2.618,17.12,17.12,0,0,1-1.234,3.615c-.07.142-.1.276.019.389s.317.056.452-.023c.65-.368,1.3-.732,1.935-1.133a29.581,29.581,0,0,1,2.774-1.754c.3-.144.411-.36.165-.685-1.419-1.912-.979-4.923.261-6.837a3.258,3.258,0,0,1,1.585-1.505,2.662,2.662,0,0,1,3.105,1.851,13.263,13.263,0,0,1,.134,1.931,11.194,11.194,0,0,1-.368,1.9c.857.395,1.1.315,1.16-.376.763.035,1.258-.57,1.914-.812a42.312,42.312,0,0,0,3.835-2.071,2.265,2.265,0,0,0,.366-.218c.693-.522.687-.522.253-1.3a3.29,3.29,0,0,1-.483-1.439,21.583,21.583,0,0,1,.107-4.806,3.258,3.258,0,0,1,1.281-2.262,2.537,2.537,0,0,1,2.988.576,4.323,4.323,0,0,1,.771,3.743,10.181,10.181,0,0,1-.572,2.171c-.039.076,0,.191,0,.477,3.062-2.172,6.26-3.878,9.153-6.017a6.6,6.6,0,0,1-.175-5.583,12.236,12.236,0,0,1,1.664-3.146c1.16-1.524,2.7-.946,3.562.345.633.956.393,2.126.769,3.179-.66.119-.9.489-.759,1.063.072.282-.074.442-.249.617.313.206.457-.023.617-.154,1.234-1.028,2.54-2.009,3.792-3.037.927-.761,1.956-1.439,2.865-2.213a16.625,16.625,0,0,0,2.813-2.262,3.664,3.664,0,0,1,1.1-.753c.859-.51,1.345-1.417,2.143-2,.253-.185.617-.206.714-.707a1.375,1.375,0,0,0-.411-1.439,5.258,5.258,0,0,1-1.764-2.63,4.476,4.476,0,0,1,1.974-4.547,1.4,1.4,0,0,1,1.884.2,3.526,3.526,0,0,1,1.191,3.6c-.257-.056-.16-.329-.387-.45.016.263-.051.547.057.716.4.617.123,1.028-.292,1.489a1.028,1.028,0,0,0,.156,1.534.894.894,0,0,1,.253.6,1.336,1.336,0,0,0,1.363,1.209,15.665,15.665,0,0,1,1.982.319,2.233,2.233,0,0,1,1.62,1.935,1.234,1.234,0,0,0,.066.537c.3.5,0,.617-.358.921-1.339,1.145-2.76.81-4.244.45a7.507,7.507,0,0,1-3.1-1.567.565.565,0,0,0-.895.074,3.291,3.291,0,0,1-.732.535.723.723,0,0,0-.411.738c-.788-.191-1.195.358-1.645.761-.674.6-1.452,1.065-2.227,1.715.617-.039.864-.683,1.411-.584.056.206-.1.222-.187.29-1.1.823-2.186,1.662-3.231,2.558a1.549,1.549,0,0,1-1.413.555c-.173-.043-.321.146-.461.263-1.754,1.472-3.615,2.809-5.437,4.195a2.445,2.445,0,0,0-.851,1.234,1.19,1.19,0,0,1-1.234.872c-.228.012-.411.023-.4.411-.456-.547-.792-.319-1.176-.06-1.6,1.078-3.23,2.118-4.859,3.157a21.216,21.216,0,0,0-3.479,2.381,3.9,3.9,0,0,1-.784.459c-.4.22-.724.411-.666,1,.053.541-.411.247-.648.251-.144.716.084.969.87,1.008a7.476,7.476,0,0,1,3.268.808c2.056,1.106,1.553,3.043.531,4.318a2.136,2.136,0,0,1-2.556.3,4.588,4.588,0,0,1-3.084-3.471,9.716,9.716,0,0,1-.389-1.962,1.152,1.152,0,0,0-1.028.142c-1.485.9-2.961,1.8-4.524,2.579a4.275,4.275,0,0,0-1.365.981c-.232.271-.781.286-1.067.607a2.539,2.539,0,0,1-1.277.7,3.251,3.251,0,0,0-1.727,1.279,4.5,4.5,0,0,1,3.043,1.108,6.12,6.12,0,0,1,.868.656,2.026,2.026,0,0,1,.8,1.752c-.054.411-.148.8-.22,1.2-.368,2.011-2.194,2.511-3.782,1.285a6.912,6.912,0,0,1-2.513-4.039c-.2-.839-.428-.96-1.17-.51-.866.522-1.682,1.131-2.56,1.627-1.219.687-2.455,1.351-3.726,1.929-.547.249-.79.88-1.419,1.008.095,0,.189.016.284.021a4.09,4.09,0,0,1,3.961,2.614c.724,1.729.411,3.167-1.117,3.965a2.013,2.013,0,0,1-2.6-.341,8.8,8.8,0,0,1-2.556-5.122c-.411-.3-.755-.031-1.106.084a26.447,26.447,0,0,0-4.353,1.8,16.433,16.433,0,0,0-1.54.72,30.52,30.52,0,0,1-3.064,1.456c-.6.321-1.359.317-1.954.705.253.263.477-.107.794-.066a.748.748,0,0,1-.7.3c-1.234-.113-2.184.617-3.231,1.028-1.316.518-2.591,1.145-3.876,1.74-.459.206-.89.481-1.345.7a18.764,18.764,0,0,1-5.875,1.411,50.236,50.236,0,0,1-5.745.617,74.386,74.386,0,0,0-7.442.823c-.866.1-1.719.292-2.579.438a1.115,1.115,0,0,1-1.234-.668.7.7,0,0,1,.561-1.041c.545-.084.993-.142,1.016-.86.01-.333.376-.424.689-.5.788-.185,1.6-.251,2.383-.475,1.042-.3,2.028-.765,3.047-1.086a15.323,15.323,0,0,0,3.346-1.629c1.008-.617,1.818-1.493,2.825-2.114a.512.512,0,0,0,.074-.839,16.929,16.929,0,0,1-2.449-3.971,7.03,7.03,0,0,1-1.137-2.527c-.226-1.779-.039-2.371,1.314-3.212a2.749,2.749,0,0,1,2.348-.206,5.184,5.184,0,0,1,1.8,1.374,4.739,4.739,0,0,1,.952,2.5c.156.823-.107,1.614.072,2.414a1.406,1.406,0,0,1-.189.823.658.658,0,0,0,.146.823c.284.206.494-.055.687-.206,2.6-2.036,5.159-4.113,7.559-6.4,1.174-1.115,2.49-2.079,3.736-3.117a2.154,2.154,0,0,0,.642-.724c-.07-.234-.273-.354-.434-.494a12.637,12.637,0,0,1-3.932-6.157,3.024,3.024,0,0,1-.1-1.775,1.588,1.588,0,0,1,1.267-1.088,4.031,4.031,0,0,1,3.138.617c1.766,1.008,2.262,2.673,1.982,4.635-.1.722-.088,1.458-.14,2.186-.023.311.16.348.385.3a.777.777,0,0,0,.309-.185c1.783-1.581,3.592-3.13,5.27-4.834a35.386,35.386,0,0,1,3.224-3.132,1.666,1.666,0,0,0,.679-1.277c.109-1.261.125-1.273-.977-1.828a7.149,7.149,0,0,1-3.86-3.924,3.8,3.8,0,0,1,.222-3.239,2.468,2.468,0,0,1,2.262-1.045,3.981,3.981,0,0,1,3.5,2.336c.823,1.409.664,2.957.561,4.493-.025.38-.237.882.255,1.078.459.181.835-.049,1.129-.479s.726-.823,1.071-1.234.705-.8.306-1.472c1.61.13,1.812-1.252,2.5-2.071.775-.929,1.483-1.921,2.188-2.906a24.492,24.492,0,0,1,1.736-2.192.492.492,0,0,0,.15-.257,1.112,1.112,0,0,1,.746-1.184c.615-.267.537-1.542.053-2.03-1.532-1.544-2.76-3.245-2.8-5.552a6.353,6.353,0,0,1,.358-1.838,1.253,1.253,0,0,1,.771-.823,3.724,3.724,0,0,1,3.021-.012c1.8.911,1.779,1.579,1.59,3.317A13.368,13.368,0,0,1,811.16,444a11.977,11.977,0,0,0-.28,1.645,17.668,17.668,0,0,0,2.262-3.276m-45.857,36.971a2.291,2.291,0,0,0,.358,1.954,5.034,5.034,0,0,1,.771,1.376c.411.892.954,1.694,1.421,2.544.132.236.3.5.716.411a12.632,12.632,0,0,0,.411-5.377,2.253,2.253,0,0,0-3.451-1.462ZM797.1,460.584a11.382,11.382,0,0,0,0-2.5c-.206-.95-.206-1.993-1.028-2.712a2.262,2.262,0,0,0-2.262-.481c-.566.177-.8.5-.771,1.248a4.69,4.69,0,0,0,.561,2.176,7.413,7.413,0,0,0,2.468,2.089,1.252,1.252,0,0,0,1.032.177Zm-27.7,29.632a8.564,8.564,0,0,0,6.467-.076,3.336,3.336,0,0,0,1.6-1.174c.206-.311.249-.687-.167-.777-1.2-.263-2.4-.823-3.642-.128a.94.94,0,0,1-.6.047c-.823-.123-.89-.055-.89.8,0,.292.1.668-.274.794a.692.692,0,0,1-.823-.411c-.329-.57-.685-.438-1.094-.121A1.22,1.22,0,0,0,769.4,490.216ZM812.614,471.3a3.414,3.414,0,0,0-.31-1.633,1.157,1.157,0,0,0-1.15-.654.976.976,0,0,0-.907.6c-.086.158-.177.317-.278.467a3.626,3.626,0,0,0-.644,2.435c0,.1.058.218.021.3-.424.87.158,1.481.617,2.036.531.646,1.127.522,1.557-.216a8.158,8.158,0,0,0,1.094-3.327Zm25.768-16.51a4.175,4.175,0,0,0-.117-1.143c-.177-.531-.925-1-1.3-.806a2.139,2.139,0,0,0-1.028,1.462,4.917,4.917,0,0,1-.411,1.125,5.271,5.271,0,0,0-.557,3.233c.064.551.255.777.893.765a1.156,1.156,0,0,0,1.112-.689,9.209,9.209,0,0,0,1.4-3.942Zm-56.418,11.857c-.218.672.162,1.217.331,1.807a5.311,5.311,0,0,0,1.057,2.227,7.552,7.552,0,0,1,1.061,1.476,1.042,1.042,0,0,0,.977.662,12.885,12.885,0,0,0,.259-3.987A2.62,2.62,0,0,0,781.964,466.644Zm39.751-2.038a4.893,4.893,0,0,0,.461,2.6,1.564,1.564,0,0,0,.5.672c.4.333.627.115.783-.23.14-.313.271-.617.411-.936a6.192,6.192,0,0,0,.317-4.612,1.191,1.191,0,0,0-1.1-.9c-.479-.045-.761.294-.983.679A5.664,5.664,0,0,0,821.716,464.606Zm-3.29-43.434c-.175.053-.29,0-.393.216-.311.668.056,1.293.16,1.871a11.7,11.7,0,0,0,.823,2.418,7.064,7.064,0,0,0,1.583,2.342c.169.162.356.411.574.257a7.829,7.829,0,0,0-.282-2.774,18.969,18.969,0,0,0-.7-4.125c-.284-.773-.617-1.018-1.333-.981-.524.027-.646.23-.428.775Zm-8.879,24.861c.193-1.047.465-2.015.592-3.019.282-2.209-.228-2.836-2.137-2.587a1.234,1.234,0,0,0-.79.4.582.582,0,0,0-.167.374,6.108,6.108,0,0,0,.5,2.967c.395.837.851,1.707,2.007,1.863Zm-46.1,47.37c.389.13.67-.053.975-.064a72.978,72.978,0,0,0,8.055-.722,24.058,24.058,0,0,0,4.6-1.028,14.688,14.688,0,0,0,1.4-.66c-.329-.383-.531-.465-.617-.253-.278.607-.894.411-1.3.66a6.754,6.754,0,0,1-4.183.718,7.221,7.221,0,0,1-3.921-1.1.543.543,0,0,0-.681.031A39.517,39.517,0,0,1,763.443,493.4Zm47.319-44.376c.22.1.38.173.547.241a1.017,1.017,0,0,0,.179.031c2.435.376,4.267-.732,5.865-2.4a.734.734,0,0,0,.247-.823c-.15-.321-.459-.29-.744-.3a7.863,7.863,0,0,0-3.625.872c-.677.3-.936.526-.582,1.3a.411.411,0,0,1-.463.617A1.447,1.447,0,0,0,810.761,449.027Zm12.3-18.273c-.111.1-.181.218-.282.257-.206.08-.4.154-.35.411s.3.278.487.269a4.2,4.2,0,0,0,1.789-.216c.485-.234,1.051-.3,1.553-.51a7.785,7.785,0,0,0,3.206-1.986c.329-.391.362-.833.019-1.045a2.708,2.708,0,0,0-1.738-.411,3.91,3.91,0,0,0-3.084,3.366c-.029.51-.286.658-.744.654C823.424,431.546,823.346,431.1,823.065,430.755Zm-21.18,48.735a10.479,10.479,0,0,0,1.588-4.567c.045-1.234-.732-1.3-1.583-1a1.317,1.317,0,0,0-.693.8,6.185,6.185,0,0,0-.485,2.336,3.33,3.33,0,0,0,1.166,2.433Zm9.412-1.836c-.286.568-.561,1.028-.319,1.419.644,1.028,1.028,2.289,2.262,2.821.411.179.894.541,1.335.167a1.557,1.557,0,0,0-.066-2.036,4.709,4.709,0,0,0-1.606-.969,1.948,1.948,0,0,1-1.61-1.4Zm-9.692,8.77a1.449,1.449,0,0,0,.888,1.828,1.084,1.084,0,0,0,1.68-.73,2.973,2.973,0,0,0-3.307-2.9c-.238.06-.341.234-.263.389.249.52.306,1.195.993,1.411Zm24.172-13.882h-.535c-.862.049-.991.306-.533,1.043a1.819,1.819,0,0,1,.181.317,2.179,2.179,0,0,0,1.9,1.372,1.028,1.028,0,0,0,1.195-.617,1.178,1.178,0,0,0-.333-1.522,2.622,2.622,0,0,0-1.884-.59Zm27.855-33.724c-.461.241-.543.672-.779.989a1.718,1.718,0,0,0,.138,2.626c.123.127.284.257.276.457-.023.617.282.477.6.323.115-.823.236-1.606.325-2.389a1.977,1.977,0,0,0-.57-1.993Zm1.711,9.889c.22.459.642.315.948.432a5.89,5.89,0,0,0,2.309.411.673.673,0,0,0,.751-.576c.055-.413-.286-.5-.561-.685-.51-.343-1.069-.014-1.645-.251a3.905,3.905,0,0,0-2.373-.016c.3.162.662-.078.806.265.016.236-.228.276-.243.432Zm-54.779,31.187c-.218.461-.664.855-.257,1.439C801.771,480.543,801.4,480.448,800.564,479.893Zm43.648-24.526c1.069-.206,1.495-1.258,2.25-1.91Z" transform="translate(-600.105 -332.558)"/>
    <path id="パス_318" data-name="パス 318" class="cls-1" d="M751.528,196.569h0a3.291,3.291,0,0,0,1.152.812c-.1-.206-.44-.329-.16-.64.064-.07-.023-.206-.084-.271q-.853-.993-1.717-1.98c-.119-.138-.255-.251-.446-.049.068.356.167.81.481.925a.67.67,0,0,1,.432.391C751.324,196.02,751.373,196.312,751.528,196.569Zm-19.291,74.785c-.4.5-.893.9-1.31,1.37l.014-.014c-1.439,1.143-2.7,2.492-4.187,3.58A16.454,16.454,0,0,1,725,277.76a21.969,21.969,0,0,0-1.945,1.343c-.189.134-.274.251-.014.436,1.014-.617,2.015-1.252,2.975-1.962,1.549-1.143,3.006-2.4,4.651-3.42,1.534-.948,2.642-2.41,4.051-3.529a40.221,40.221,0,0,0,4.135-4.09,32.991,32.991,0,0,0,2.638-2.957c1.25-1.713,2.614-3.335,3.907-5.017.617-.806,1.207-1.645,1.865-2.416.73-.864,1.25-1.9,1.964-2.78.428-.526.7-1.145,1.137-1.645a3.957,3.957,0,0,0,.465-.773c.3-.549.586-1.108.921-1.645.374-.584.822-1.119,1.193-1.7.471-.742.921-1.5,1.332-2.278a13.375,13.375,0,0,0,.794-1.335,27.47,27.47,0,0,0,1.326-2.78,3.113,3.113,0,0,1,.206-.5,3.929,3.929,0,0,0,.526-1.355c-.193-.056-.376-.1-.551-.158a.5.5,0,0,0-.732.362,12.283,12.283,0,0,1-.561,1.3,37.24,37.24,0,0,1-2.424,4.684,29.924,29.924,0,0,1-2.673,3.8c-.983,1.234-1.954,2.492-2.879,3.784-.181.255-.617.52-.366,1,.064.123-.119.156-.234.181-.179.037-.364.111-.343.321.031.306-.175.411-.366.57-.35.292-.712.584-.666,1.127.041.506-.549.654-.648,1.086-.508-.093-.59.387-.847.631l-.253.271-.823,1.071Zm24-59.572a7.506,7.506,0,0,0,2.322,1.676,1.676,1.676,0,0,0,1.553.117c.382-.152.526-.473.746-.744.271-.335.635-.382.777-.01s.494.689.494,1.154a.7.7,0,0,0,.5.73c.463.121.962.265,1.32-.183.224-.278.376-.239.594-.039a.588.588,0,0,0,.526.111,3.376,3.376,0,0,0,1.1-.489,11.9,11.9,0,0,0,2.7-1.668c.491-.469.94-.993.672-1.768a.411.411,0,0,1,.146-.5.539.539,0,0,1,.617.066c.156.117.261.3.442.364a4.048,4.048,0,0,0,1.234-1.81,18.247,18.247,0,0,0,.847-2.443,3.294,3.294,0,0,0,.169-2.307.514.514,0,0,1,.054-.5.7.7,0,0,0,.08-.541,8.4,8.4,0,0,0-2.375-4.647.465.465,0,0,0-.438-.171c-.247.023-.646.021-.617-.395a.652.652,0,0,0-.395-.652,10.509,10.509,0,0,0-1.935-1.078c-.091.292-.346.337-.6.306s-.321-.273-.35-.483a.411.411,0,0,0-.36-.38c-.592.629-.823.039-1.1-.3-.206.07-.016.245-.245.352-.387-.311-1.084.1-1.45-.541-.043-.078-.16-.072-.239-.029a2.005,2.005,0,0,1-.893.117.977.977,0,0,0-.662.267c-.524.481-.58.477-1.075.023-.189.261-.44.576-.726.57a7.992,7.992,0,0,1-1.851-.1.941.941,0,0,0-1.131.411,7.73,7.73,0,0,1-.884,1.209c-.337.372-.426.921-.72,1.291a10.81,10.81,0,0,0-1.548,3.646c.144.148.313.037.411.113.132.411-.121.588-.428.744l.15.16c-.376.366-.286.823-.261,1.271.031.526.487.925.438,1.495a1.734,1.734,0,0,0,.128,1c.323.508.384,1.106.7,1.618a14.68,14.68,0,0,1,.843,1.863.491.491,0,0,0,.508.319c.374-.01.751-.023,1.123,0,.251.012.543.01.617.335.06.222.1.485-.109.631a.666.666,0,0,1-.843.012.882.882,0,0,0-.58-.2Zm17.822-27.255c-.169-.037-.335-.1-.5.027-.559.43-1.316.578-1.734,1.211a.187.187,0,0,1-.14.08c-.278-.021-.411.193-.551.358a9.39,9.39,0,0,0-2.317,6.116c.129,0,.171-.09.22-.152a10.722,10.722,0,0,1,1.9-1.908,3.021,3.021,0,0,1,2.363-.919A1.974,1.974,0,0,1,775,191.19c.012.674-.385,1.265-.374,1.97a1.878,1.878,0,0,0,.329-.206,15.458,15.458,0,0,0,1.832-1.616,8.053,8.053,0,0,1,.773-.845,21.88,21.88,0,0,0,1.877-2.287,26.353,26.353,0,0,0,1.612-2.7,2.224,2.224,0,0,0,.327-1.209.5.5,0,0,0-.339-.533,6.392,6.392,0,0,0-2.143-.411,10.584,10.584,0,0,0-3.594.518c-.352.1-.8.119-1.038.485m-26.292,54.384c-.808.148-1.61.364-2.416.541a26.867,26.867,0,0,0-3.679,1.221c-1.316.494-2.577,1.131-3.886,1.645a27.659,27.659,0,0,1-5.511,1.865c-1.645.28-3.29.57-4.948.7a3.231,3.231,0,0,0-2.056.635,30.357,30.357,0,0,1-2.817,2.283c-.095.064-.206.113-.183.276.049.012.1.029.156.037a15.618,15.618,0,0,0,4.555-.315c.584-.08,1.16-.206,1.752-.236a6.545,6.545,0,0,0,1.731-.319c.81-.28,1.606-.594,2.4-.892-.111-.7-.111-.7.522-.983a1.54,1.54,0,0,0,.339-.183,5.325,5.325,0,0,1,1.612-.8,2.023,2.023,0,0,1,1.52,0,.428.428,0,0,1,.284.477c-.021.232-.2.239-.368.284a6.908,6.908,0,0,0-1.91.471c1.921-.319,3.734-.89,5.569-1.365a.485.485,0,0,0,.321-.253c.331-.555.652-1.115.983-1.67a16.86,16.86,0,0,1,1.04-1.633.552.552,0,0,1,.662-.146.3.3,0,0,1,.185.393,1.691,1.691,0,0,1-.309.689,12.91,12.91,0,0,0-1.349,2.1c2.169-1.189,4.09-2.743,6.321-3.967C748.042,239.389,748.12,239.027,747.968,238.741Zm-1.53-40.325c.15.216.167.463.343.617a7.278,7.278,0,0,1,6.1,2.108.556.556,0,0,0,.167-.265,10.2,10.2,0,0,1,.6-1.419,18.434,18.434,0,0,1,1.195-1.888,5.828,5.828,0,0,0,.617-.981,7.1,7.1,0,0,0-1.2-2.112c-.025-.012-.054-.019-.08-.029a3.343,3.343,0,0,1-1.84-1.768c-.315-.644-.617-1.293-.925-1.941-.093-.2-.267-.5-.442-.391-.331.206-.617.053-.946.041-.115.323-.224.635-.339.942a1.354,1.354,0,0,0,.051,1.283c.269.288.51.633.773.944.911,1.073,1.888,2.091,2.733,3.222a.944.944,0,0,1,.3.806h.411a.372.372,0,0,1,.374.292c.049.224-.132.243-.267.317a3.452,3.452,0,0,1-1.166.232,1.453,1.453,0,0,1-1.563-.716,3.839,3.839,0,0,0-.442-.582,6.616,6.616,0,0,1-1.779-3.008,3.618,3.618,0,0,0-1.283-2.141c-.058-.041-.1-.109-.152-.154a4.465,4.465,0,0,0-1.783-1.17c-.323-.074-.617.206-.44.44a.617.617,0,0,1,0,.792.34.34,0,0,0-.033.251,4.277,4.277,0,0,1,.053,1.8c-.023.563.376,1.018.337,1.577a1.542,1.542,0,0,0,.216,1.016.822.822,0,0,1,.093.662,3.546,3.546,0,0,0,.01.662m2.4,37.9a14.342,14.342,0,0,0-3.084,1.1c-.9.411-1.711.987-2.585,1.439-.732.387-1.5.707-2.248,1.059a9.146,9.146,0,0,1-3.052,1,58.555,58.555,0,0,1-6.58.292q-2.764-.08-5.509-.393A29.918,29.918,0,0,0,720,240.4a.271.271,0,0,0-.263.154,10.835,10.835,0,0,0,1.931,1.343,22.109,22.109,0,0,0,3.8,1.392,6.934,6.934,0,0,0,2.591.438c.845-.076,1.684-.206,2.527-.278a21.05,21.05,0,0,0,5.141-1.217c1.986-.7,3.907-1.559,5.867-2.355,1.088-.444,2.206-.8,3.321-1.156.944-.3,1.912-.516,2.879-.759.38-.1.617-.249.524-.709a1.6,1.6,0,0,1,.119-.8,1.234,1.234,0,0,0,.093-.693Zm3.956-30.64a4.183,4.183,0,0,0-.784-.714,12.106,12.106,0,0,0-4.287-1.567,7.547,7.547,0,0,0-3.806.385c-.711.286-.775.485-.411,1.18.43.823.93,1.61,1.359,2.426a5.213,5.213,0,0,0,1.956,2.056,4.908,4.908,0,0,0,3.167.913,11.694,11.694,0,0,0,1.481-.288c.173-.041.428-.088.469.078.115.454.446.354.751.385a1.074,1.074,0,0,1,.446.134c.171.1.35.271.271.491a.438.438,0,0,1-.444.265,4.73,4.73,0,0,0-1.271.216,4.819,4.819,0,0,0-1.807.656c1.892.761,3.584-.018,5.307-.539,0-.027.01-.06,0-.082a1.566,1.566,0,0,0-.082-.152,18.208,18.208,0,0,1-2.077-4.555.31.31,0,0,0-.206-.234,6.134,6.134,0,0,1-1.425-1.234c-.055-.045-.125-.132,0-.261.457.053.8.522,1.39.432Zm12.99-12.445c.259.01.3-.093.3-.189a3.788,3.788,0,0,1,.343-1.234c.411-1.234.732-2.5,1.234-3.7a7.877,7.877,0,0,1,1.97-3.029.423.423,0,0,0,.177-.282,21.182,21.182,0,0,0,.278-2.79,3.63,3.63,0,0,0-.487-1.941,1.9,1.9,0,0,0-2.813-.389c-1.534.954-1.752,2.552-1.945,4.158-.012.093-.033.243.086.263.426.07.428.438.479.72.152.823.267,1.645.378,2.468a28.113,28.113,0,0,1-.006,5.939Zm-2.523,1.365h.475c.158,0,.331.039.311-.183a1.684,1.684,0,0,0-.167-.438.069.069,0,0,1,0-.041,7.2,7.2,0,0,0-.189-1.956,23.66,23.66,0,0,1-.041-4.826,2.123,2.123,0,0,0-.123-1.012,9.286,9.286,0,0,0-1.151-2.262,4.1,4.1,0,0,0-1.805-1.622c-.512-.206-.759-.037-1.1.362-.241.28-.185.592-.317.866a1.42,1.42,0,0,0,.236,1.719,1.383,1.383,0,0,1,.286.374c.273.662.541,1.326.781,2,.346.971.662,1.949,1,2.922a3.1,3.1,0,0,1,.276.823c.064.9.035,1.814.187,2.71.049.286.156.456.492.489a8.373,8.373,0,0,0,.853.068ZM752.4,213.088a21.644,21.644,0,0,0-2.034,1,7.04,7.04,0,0,0-2.719,2.54c-.45.833-.3,1.32.617,1.555a7.764,7.764,0,0,0,4.078-.179,10.463,10.463,0,0,0,4.127-2.305c.475-.411.888-.954,1.622-.977a.434.434,0,0,0,.356-.391c.021-.193-.191-.226-.325-.3a6.951,6.951,0,0,1-2.468-1.838.414.414,0,0,0-.6-.078,6.921,6.921,0,0,0-1.908,1.662,3.589,3.589,0,0,0-1.154,2.492,1.324,1.324,0,0,0,.794-.152,16.491,16.491,0,0,1,2.038-.991c.2-.062.436-.241.582,0s-.146.321-.28.452a7.994,7.994,0,0,1-.95.576,8.134,8.134,0,0,1-2.116,1.308.874.874,0,0,1-.958-.185.893.893,0,0,1-.294-.962A7.966,7.966,0,0,1,752.4,213.088Zm25.676,1.627a1.765,1.765,0,0,1-2.283.545,7.546,7.546,0,0,1-1.1-.757,7.128,7.128,0,0,1-2.165-2.484c-.22-.5-.123-.7.4-.841-.261-.259-.5-.57-.919-.36a1.366,1.366,0,0,0-.463,2.248,5.043,5.043,0,0,1,.944,1.645,7.278,7.278,0,0,0,1.74,2.531c.411.434.932.724,1.353,1.135a4.466,4.466,0,0,0,2.515,1.108.971.971,0,0,0,.707-.109,1.724,1.724,0,0,0,.654-1.939,7.161,7.161,0,0,0-.94-2.161c-.13-.206-.187-.471-.446-.563Zm-22.8,9.186a2.888,2.888,0,0,0,.411,1.382.311.311,0,0,0,.452.107c.57-.374,1.147-.736,1.69-1.145a9.481,9.481,0,0,0,1.162-1.38.36.36,0,0,0,0-.563,2.026,2.026,0,0,1-.617-1.018,6.041,6.041,0,0,1-.084-1.805,13.405,13.405,0,0,1,.714-3.144c.064-.175.273-.45-.043-.617s-.489.035-.644.271c-.053.084-.1.185-.224.175-.329-.029-.448.22-.565.442-.074.146-.119.286-.311.319s-.251.169-.329.313c-.3.555-.644,1.084-.911,1.659a7.079,7.079,0,0,0-.79,2.918A8.863,8.863,0,0,0,755.28,223.9Zm23.261-16.7c-.152.317-.312.315-.526.136a.341.341,0,0,0-.533.053c-.323.454-.845.44-1.3.568-.13.037-.3-.045-.356.146a.518.518,0,0,0,.056.533,2.951,2.951,0,0,0,.985.823c.171.068.471.037.52.14.222.477.7.528,1.084.693a8.129,8.129,0,0,0,3.631.781,5.524,5.524,0,0,0,2.85-.631c.3-.206.65-.308.722-.72a1.036,1.036,0,0,0-.522-1.053,6.255,6.255,0,0,0-1.536-.749,13.568,13.568,0,0,0-3.444-.9c-.179.251-.524.411-.557.783a3.587,3.587,0,0,0-.064,1.067c.037.179-.167.385-.169.588-.206.049-.206-.191-.366-.165-1.008.687-1.851.113-2.692-.393-.206-.123-.512-.306-.362-.7.428.053.724.36,1.1.494a1.37,1.37,0,0,0,1.293-.193,1.435,1.435,0,0,0,.2-1.3Zm-9.757,9.907c-.025.335-.031.777-.224.9-.452.3-.3.67-.243,1.014.088.531-.222,1.061.033,1.579a.053.053,0,0,1,0,.043c-.179.3-.037.586.058.868.142.411.29.841.44,1.258a7.928,7.928,0,0,0,1.271,2.468.755.755,0,0,0,1.028.177,3.829,3.829,0,0,0,1.672-2.4,6.606,6.606,0,0,0,.091-3.085c-.617.66-1.312.012-1.824.259a13.333,13.333,0,0,1-2.293-3.091Zm19.138-15.628c-1.912-.981-2.729-1.583-6.88-1.067-.029.271.033.64-.461.411-.1-.047-.218.043-.3.13a2.315,2.315,0,0,1-.724.512,18.572,18.572,0,0,0-1.937,1.115c-.1.064-.253.113-.218.282a.289.289,0,0,0,.3.216,2.575,2.575,0,0,1,.934.411c.348.2.67.522,1.141.382,1.326-.393,2.719-.469,4.047-.843a11.713,11.713,0,0,0,4.113-1.548Zm-23.745,15.8a2.112,2.112,0,0,0-.707,1.053,11.662,11.662,0,0,0-.448,1.8,6.663,6.663,0,0,0,.559,4.974,1.392,1.392,0,0,0,1.287.866,1.573,1.573,0,0,0,1.271-.835,6.95,6.95,0,0,0,.888-2.219,1.832,1.832,0,0,0,.113-.967l-.13.177c-.228-.239-.43,0-.631.047a.679.679,0,0,1-.79-.276,3.825,3.825,0,0,1-.59-1.143,18.922,18.922,0,0,1-.823-3.475Zm7.608-21.7a.959.959,0,0,1,.072-1.248c.1-.138.232-.263.4-.142.389.288.592,0,.759-.255a8.756,8.756,0,0,0,1.059-2.439,1,1,0,0,0-.792-1.3,1.576,1.576,0,0,0-1.182.162,6.994,6.994,0,0,0-3,2.928,1.01,1.01,0,0,0-.259.744c.082.531.487.672.862.849.154.074.294.1.292.3,0,.245-.206.206-.352.22a1.717,1.717,0,0,1-1.493-.434c-.206.177-.206.3.027.438.642.38,1.275.777,1.915,1.16a.37.37,0,0,0,.508-.049,8.409,8.409,0,0,1,1.184-.94Zm5,1.8c.975-.245,1.945-.5,2.922-.734a18.878,18.878,0,0,0,2.7-1,9.706,9.706,0,0,0,2.087-1.335.771.771,0,0,0,.237-.354.3.3,0,0,0-.169-.426,5.36,5.36,0,0,0-1.353-.411c-.576-.072-1.152.016-1.711-.027a6.323,6.323,0,0,0-3.163.66c-.315.142-.726.218-.857.6-.064.185-.162.206-.341.206.169.251.426.255.617.368a.617.617,0,0,1,.311.7c-.086.43-.23.847-.352,1.275-.531-.276-.668.216-.932.485ZM757.577,238.2c.541-.927.467-2.036.915-3,.325-.7.411-1.516.672-2.262.487-1.363,1.028-2.706,1.439-4.1a18.4,18.4,0,0,0,.769-3.874,1.511,1.511,0,0,0-.193-.966c-1.8,4.592-2.986,9.321-4.7,13.876A2.892,2.892,0,0,0,757.577,238.2Zm26.58-42.474-3.142,1.316c-1.158.382-2.346.644-3.525.944-.86.218-1.7.508-2.568.707a.93.93,0,0,0-.356.23,12.871,12.871,0,0,1-1.526.919,7.733,7.733,0,0,1,.927,2.723c.068.261.206.31.442.271a2.783,2.783,0,0,0,1.528-.438,1.931,1.931,0,0,1-.325-.81c-.278.016-.313.177-.345.356a.469.469,0,0,1-.452.446c-.286.025-.364-.191-.456-.382a.864.864,0,0,1,.051-.866,4.864,4.864,0,0,1,2.013-1.832c.16-.084.477-.033.411-.38a.339.339,0,0,1,.189-.058c.779.167,1.573-.1,2.352.09.526.127,1.108-.041,1.592.37.183.156.5.049.761.027a12.8,12.8,0,0,1,3.872.138,13.555,13.555,0,0,1,2.585,1.045,1.168,1.168,0,0,1,.685,1.439c-.029.239.074.454.056.683-.012.15.109.378-.167.411s-.259-.173-.3-.341c-.014-.066-.027-.134-.053-.269a37.978,37.978,0,0,1-8.092,2.036,1.378,1.378,0,0,0,.074.563,1.254,1.254,0,0,1,.06.467c-.062.535,0,.561.559.7a22.232,22.232,0,0,1,3.475,1.106,3.241,3.241,0,0,1,1.851,1.629,1.6,1.6,0,0,1-.617,2.044,6.5,6.5,0,0,1-5.141.5,15.391,15.391,0,0,1-4.232-1.657,3,3,0,0,0-.354-.152l.019.012a9.243,9.243,0,0,1-2.262-1.826c-.255.247-.134.631-.329.9-.22.3-.119.574.249.563a4.752,4.752,0,0,1,1.9.45l-.012-.01a10.919,10.919,0,0,1,1.929,1.7,2.429,2.429,0,0,1,.582,1.25,6.368,6.368,0,0,0,1.1,2.122,7.063,7.063,0,0,1,1.162,3.843,1.942,1.942,0,0,1-.366.934c-.086.167-.234.3-.072.475-.167.127-.206-.107-.38-.012-1.191.687-2.25.228-3.29-.391a14.39,14.39,0,0,1-2.562-2.011c-.206.121-.16.294-.136.438a16.106,16.106,0,0,1,.352,3.1,8.147,8.147,0,0,1-.7,3.257.617.617,0,0,0-.072.372.228.228,0,0,1-.107.263c-.574.239-.845.835-1.4,1.119a1.347,1.347,0,0,1-1.781-.175,7.057,7.057,0,0,1-1.61-3.006c-.037-.107-.039-.226-.144-.3-.128.411-.346.769-.5,1.162a10.938,10.938,0,0,1-.823,1.888c-1.028,1.668-2.788,1.205-3.654-.012-.14-.2-.284-.387-.481-.658a8.193,8.193,0,0,0-.239.985,17.683,17.683,0,0,1-.823,3.148c-.516,1.752-1.2,3.442-1.768,5.176a7.343,7.343,0,0,0-.411,1.974c-.016.4-.294.707-.411,1.077a22.04,22.04,0,0,1-1,2.7c-.362.767-.644,1.569-1.045,2.322a7.245,7.245,0,0,0-.551,1.283c-.076.259-.352.45-.411.736,0,.152.238.068.224.232-.109.158-.3.056-.448.136-.086.376-.049.767-.171,1.162s-.245.5-.617.323c-.36.711-.991,1.221-1.3,1.91a7.768,7.768,0,0,1-.919,1.464c-.362.489-.644,1.028-.979,1.588l-9.49,13.037c-1.417,1.11-8.244,8.02-8.554,8.3a21.485,21.485,0,0,1-2.949,2.426q-.294.179-.592.345a11.659,11.659,0,0,0-1.943,1.485c-.619.533-1.234.977-1.851,1.462-.88.687-1.875,1.195-2.8,1.812a3.05,3.05,0,0,0-.44.411c-.6.6-.8.637-1.351.119-.51.269-.911.679-1.39.975-.22.136-.434.278-.642.432a1.231,1.231,0,0,1-1.361.249c-.206-.1-.317.049-.461.13-.483.271-.946.134-1.088-.3a.483.483,0,0,1,.29-.668c1.355-.6,2.616-1.378,3.958-2a3.9,3.9,0,0,0,1.053-.8c.927-.9,2.1-1.458,3.072-2.285a52.289,52.289,0,0,0,4.181-3.6,9.652,9.652,0,0,1,1.244-1.131,6.389,6.389,0,0,0,.911-1.067c1.365-1.518,2.735-3.037,4.2-4.458a52.534,52.534,0,0,0,4.17-4.775c.919-1.141,1.754-2.348,2.673-3.481,1.176-1.439,2.272-2.932,3.309-4.468.9-1.337,1.884-2.616,2.879-3.874.964-1.219,1.867-2.482,2.817-3.7a7.44,7.44,0,0,0,.8-1.423c.384-.823.95-1.54,1.293-2.379a31.41,31.41,0,0,0,1.361-2.963c.1-.331,0-.424-.282-.45a5.6,5.6,0,0,0-3.208.358c-.574.29-1.178.52-1.742.837-.374.206-.823.345-.668.907-.255.171-.3-.115-.481-.169-1.47,1.047-3.111,1.869-4.538,3.015a9.2,9.2,0,0,1-3.379,1.575c-1.147.315-2.32.524-3.442.95a8.393,8.393,0,0,1-1.851.38,10.887,10.887,0,0,0-2.375.761,17.613,17.613,0,0,1-4.826,1.219c-1.028.086-2.077.3-3.113.411a21.079,21.079,0,0,1-4.569.146.459.459,0,0,1-.411-.411c-.051-.271-.047-.574.265-.707a9.838,9.838,0,0,0,1.145-.674,12.983,12.983,0,0,0,2.6-2.03,6.2,6.2,0,0,0,1.028-1.067c-.341-.1-.65-.206-.962-.286a18.433,18.433,0,0,1-3.51-1.415,14.967,14.967,0,0,1-2.852-2.069.44.44,0,0,1-.134-.57.508.508,0,0,1,.555-.319,11.685,11.685,0,0,0,2.244-.072,38.148,38.148,0,0,1,4.75-.183c1.014.023,2,.257,3.006.306,2.552.123,5.1.035,7.643-.086a12.565,12.565,0,0,0,4.228-.921c.7-.288,1.37-.648,2.056-.969,1.041-.483,1.968-1.162,2.982-1.694a17.892,17.892,0,0,1,4.318-1.55,7.043,7.043,0,0,1,4.318.424c.068.027.138.093.206.084.925-.142,1.18.712,1.7,1.16a.411.411,0,0,0,.411.15,130.213,130.213,0,0,0,3.938-12.636.56.56,0,0,0-.8.144,9.972,9.972,0,0,1-2.607,2.239c-1.034.553-1.783.165-2.013-.981a7.891,7.891,0,0,1-.251-1.427c-.012-.8-.049-1.6-.033-2.4a9.2,9.2,0,0,1,.9-3.329c-2.673.892-5.262,1.744-8.007.835-1.2-.29-.617-1.943-.206-2.848a13.825,13.825,0,0,1,3.426-2.858h-.345a3.53,3.53,0,0,1-1.945-.452c-.551-.387-.541-.86-.043-1.306.366-.327.9-.306,1.271-.681-1.877.051-3.627-1.279-5.03-2.468a7.693,7.693,0,0,1-2.422-4.464c-.177-.767.3-1,.853-1.234a9.246,9.246,0,0,1,3.173-.52,10.338,10.338,0,0,1,2.2.284,16.179,16.179,0,0,0-3.05-2.928c.276,0,.274-.09.232-.282a18.444,18.444,0,0,1-.59-2.912,24.236,24.236,0,0,1-.1-5.513.21.21,0,0,1,.012-.086c.1-.913.654-1.2,1.495-.783a7.313,7.313,0,0,1,1.933,1.571.769.769,0,0,0,.411.276c.08-.327.158-.642.234-.956a1.559,1.559,0,0,1,2.056-1.246.762.762,0,0,0-.082-.656,13.589,13.589,0,0,1-.635-2.936,2.238,2.238,0,0,1,.1-.722c.033-.169.177-.154.3-.175a3.884,3.884,0,0,1,2.071.362,8.24,8.24,0,0,1,2.39,1.439,1.6,1.6,0,0,1,.458.823,1.13,1.13,0,0,1-.977-.3,8.073,8.073,0,0,0-1.99-1c-.561-.2-.86-.206-1.172.37-.074.14-.206.023-.3.132a20.733,20.733,0,0,0,.872,2.91,1.79,1.79,0,0,0,.537.709,8.064,8.064,0,0,1,1.522,1.867c.364.547.635,1.172,1,1.7a11.221,11.221,0,0,1,.823,1.62.759.759,0,0,0,.327.35c.45-.411.915-.823,1.374-1.256.125-.115.047-.243,0-.358a10.164,10.164,0,0,1-.87-4.925,1.483,1.483,0,0,0-.337-.907.6.6,0,0,1-.156-.411c.228-.076.253.175.428.222a1.1,1.1,0,0,0,.236-.726,5.947,5.947,0,0,1,.956-3,1.431,1.431,0,0,0,.16-.786,4.945,4.945,0,0,1,.672-2.359,1.574,1.574,0,0,1,2.215-.514,6.223,6.223,0,0,1,1.168,1.086c.4.477.792.96,1.17,1.452.171.218.095.566.4.777a5.6,5.6,0,0,0,.206-1.234,8.4,8.4,0,0,1,1.256-3.529,3.236,3.236,0,0,1,3-1.618,2.9,2.9,0,0,1,2.531,2.729,12.01,12.01,0,0,1-.313,3.551c-.152.681.154,1.293.088,1.968a15.136,15.136,0,0,1,1.557-1.277,11.01,11.01,0,0,1,2.311-1.234,11.763,11.763,0,0,1,2.192-.648,10.1,10.1,0,0,1,3.052-.2,6.893,6.893,0,0,1,1.892.393c.5.206.67.674.969,1.041.057.07-.119.255-.111.426.021.395,0,.792,0,1.176-.206.045-.115-.125-.206-.148a6.1,6.1,0,0,0-1.178,3.119c-.154.115-.179-.07-.261-.14a6.4,6.4,0,0,0-.927,1.15,14.679,14.679,0,0,1-2.712,2.93c-.267.23-.65.4-.6.888-.617-.014-.954.469-1.409.736-.088.051-.187.109-.134.234s.162.109.261.1a2.593,2.593,0,0,0,1.781-.732,5.3,5.3,0,0,1,2.381-1.234,8.842,8.842,0,0,1,5.044-.119,3.484,3.484,0,0,1,1.516,1.012c.018.021.049.055.043.07-.171.411.121.9-.169,1.289a3.381,3.381,0,0,0-.267.67m-26.733-7.571c.025.434.035.849.072,1.265.082.917.086,1.838.222,2.753a20.89,20.89,0,0,1,.539,2.081.251.251,0,0,0,.261.245c.574-.021.888-.09.917-.738a13.59,13.59,0,0,0-.52-3.872,16.863,16.863,0,0,0-1.209-3.677.662.662,0,0,0-.329-.35c.1.81-.142,1.6.321,2.278-.1.138-.152-.037-.263,0ZM771.6,219.031c.138,0,.228-.043.261-.117a1.754,1.754,0,0,0,.1-1.76c-.6-.979-1.283-1.9-1.929-2.852a1.035,1.035,0,0,1-.232-.946,5.089,5.089,0,0,0-.7.333c-.228.156-.452.348-.16.668a.8.8,0,0,1,.222.547,4.278,4.278,0,0,0,.249,1.217c.07.274.294.457.395.714a2.952,2.952,0,0,0,1.622,1.962c.084.016.123.14.185.224Zm2.848-21.816a6.459,6.459,0,0,0,.428-1.557c.037-.245-.095-.442-.345-.325-.436.206-.919.255-1.347.5a11.6,11.6,0,0,0-1.851,1.585c.313.354.617.7.915,1.038a.189.189,0,0,0,.271.023,9.03,9.03,0,0,1,1.863-.627.434.434,0,0,0,.315-.311c.058-.208-.072-.288-.238-.337Zm-25.108,40.224a2.288,2.288,0,0,0,.96-.234,10.67,10.67,0,0,0,2.638-1.125.329.329,0,0,0,.206-.343c-.018-.185-.148-.241-.284-.276a5.449,5.449,0,0,0-3.216-.053C749.806,236.135,749.2,236.736,749.338,237.439Zm-1.254-37.555c.07.138.179.251.16.335-.086.385.167.592.391.806a10.888,10.888,0,0,0,1.357.851,3.953,3.953,0,0,0,2.237.551.411.411,0,0,0,.432-.224,9.084,9.084,0,0,0-2.056-1.561A6.033,6.033,0,0,0,748.083,199.884Zm25.4,11.571a.487.487,0,0,0,.111.59c.222.284.446.568.689.823a4.4,4.4,0,0,0,2.122,1.487c.269.07.492.109.635-.156a.654.654,0,0,0-.039-.833,15.743,15.743,0,0,0-1.976-1.717c-.074-.053-.144-.158-.255-.076-.076.142.162.265-.012.432Zm-12.647,4.168a.649.649,0,0,0-.57.541c-.121.411-.306.8-.411,1.234a6.482,6.482,0,0,0-.234,2.336.658.658,0,0,1-.039.364.525.525,0,0,0,.158.677c.228.115.3-.206.411-.352a3.3,3.3,0,0,0,.333-.975,18.625,18.625,0,0,0,.895-3.278C761.412,215.784,761.293,215.628,760.833,215.623Zm8.067-29.591c-.477.329-.494.895-.823,1.3a4.4,4.4,0,0,0-.6,1.46c-.165.5-.288,1.047-.434,1.569a7.767,7.767,0,0,0-.4,1.466c-.041.545-.444.993-.35,1.59.251-.066.539-.01.6-.366.113-.666.411-1.277.588-1.923.382-1.374.884-2.712,1.314-4.074a1.252,1.252,0,0,0,.1-1.02Zm-19.6,52.848a8.52,8.52,0,0,1,6.12-1.234,1.556,1.556,0,0,0-.529-1.1c-.206-.175-.393-.183-.492.107s-.278.29-.5.16c-.119-.07-.239-.146-.331-.206-.718.292-1.347.709-2.042,1.01s-1.439.473-2.136.763c-.237.117-.333.236-.082.508Zm16.568-22.326a2.17,2.17,0,0,1-.319.539c-.259.354-.58.724-.113,1.164.095.093.08.239.082.37a4.129,4.129,0,0,0,.224,1.645c.053.121.093.259.253.247s.193-.158.206-.284a6.713,6.713,0,0,0-.012-3.105c-.047-.193-.047-.432-.317-.57Zm-3.922,3.993c-.411.255-.646.456-.567.934a1.447,1.447,0,0,1,.062.744,1.766,1.766,0,0,0,0,1.137l.674-.056a13.933,13.933,0,0,1-.164-2.753Zm12.6-13.924c-.442-.975.411-.96,1.053-1.234-.506-.206-.8-.535-1.178-.545a1.742,1.742,0,0,0-.321,2.044,1.234,1.234,0,0,0,.45-.259Zm4.07-5.8c-.327.045-.537.144-.726.158-.393.031-.411.549-.808.528a.259.259,0,0,0-.253.251c-.012.095,0,.177.111.206a.337.337,0,0,0,.348-.1,1.234,1.234,0,0,1,.565-.378c.348-.076.5-.348.767-.654Zm-26.1,2.464a2.622,2.622,0,0,0-1.333.123c.545.185.823.617,1.333.672Zm15.735,11.137a1.164,1.164,0,0,1-.79.547c-.142.029-.173.167-.164.313.012.247.185.331.374.411.109.047.232.049.257-.058C768.03,215.276,768.316,214.969,768.254,214.422Zm-3.621-28.649c-.206,0-.3.086-.269.263a3.453,3.453,0,0,0,.387,1.483A3.408,3.408,0,0,0,764.633,185.773Zm-6.868,4.01v-2.9a.15.15,0,0,0-.076.128,8.106,8.106,0,0,1-.224,2.163C757.382,189.378,757.347,189.736,757.765,189.783Zm19.161,5.871c-.578-.3-.707-.012-.909.38a.187.187,0,0,0,.021.236c.1.1.206.027.267-.031C776.514,196.057,776.712,195.858,776.926,195.654Zm-14.555,21.322c.181-.049.206-.216.249-.358s-.072-.206-.191-.222c-.206-.019-.226.128-.23.28S762.2,216.935,762.371,216.976Zm2.369-27.711c.232-.823.232-.9,0-1.209Z" transform="translate(-569.386 -141.116)"/>
    <path id="パス_319" data-name="パス 319" class="cls-1" d="M1003.124,333.56a1.845,1.845,0,0,0,.162.2,1.181,1.181,0,0,1,.185.171c-.286-.025-.494-.263-.781-.276l.012.01c.123-.144.294-.053.44-.088Z" transform="translate(-796.502 -264.968)"/>
    <path id="パス_320" data-name="パス 320" class="cls-1" d="M847.13,568.851l.253-.271" transform="translate(-672.93 -451.66)"/>
    <path id="パス_321" data-name="パス 321" class="cls-1" d="M937.533,290.9a1.743,1.743,0,0,1-.679-.372c-.411.154-.323.681-.705.851a.673.673,0,0,1-.4-.767,1.347,1.347,0,0,1,.786-1.154,1.026,1.026,0,0,1,1.207.286c.074-.228.288-.16.535-.294A3.054,3.054,0,0,1,937.533,290.9Z" transform="translate(-743.325 -229.86)"/>
    <path id="パス_322" data-name="パス 322" class="cls-1" d="M910.089,286.826c-.01-.265.179-.426.325-.592a3.711,3.711,0,0,1,1.826-1.361c.22-.053.411-.056.522.156.14.249-.082.319-.23.411a3.151,3.151,0,0,0-1.3,1.538.617.617,0,0,1-.72.411C910.226,287.353,910.111,287.1,910.089,286.826Z" transform="translate(-722.942 -226.269)"/>
    <path id="パス_323" data-name="パス 323" class="cls-1" d="M917.985,316.291a10.167,10.167,0,0,0,.029-1.565c-.025-.13-.053-.323.142-.354a.387.387,0,0,1,.389.222,3.583,3.583,0,0,1,.3,1.071,5.273,5.273,0,0,1,.066.6,1.23,1.23,0,0,0,.341.915c.288.271.1.531-.29.555-.823.053-1-.125-.975-.948C918,316.659,917.985,316.53,917.985,316.291Z" transform="translate(-729.212 -249.725)"/>
    <path id="パス_324" data-name="パス 324" class="cls-1" d="M933.594,282.83a5.189,5.189,0,0,0-1.822.109.91.91,0,0,1-.253.039c-.294-.029-.617-.08-.679-.411s.259-.434.539-.481a7.37,7.37,0,0,1,1.614-.22,2.029,2.029,0,0,1,1.224.461.315.315,0,0,1,.142.372c-.058.162-.206.14-.325.138C933.847,282.828,933.662,282.83,933.594,282.83Z" transform="translate(-739.421 -223.901)"/>
    <path id="パス_325" data-name="パス 325" class="cls-1" d="M954.763,294.959c-.52.382-.617.356-.847-.251a2.119,2.119,0,0,0-.434-.582.687.687,0,0,1-.078-.8.5.5,0,0,1,.617-.265.557.557,0,0,1,.315.276c.095.148.206.164.368.058C954.837,293.933,954.479,294.464,954.763,294.959Z" transform="translate(-757.275 -232.773)"/>
    <path id="パス_326" data-name="パス 326" class="cls-1" d="M962.264,323.556c-.553.206-.693.749-1.028,1.1-.187.191-.356.448-.7.271s-.331-.411-.179-.685a6.672,6.672,0,0,1,1.2-1.271.5.5,0,0,1,.531-.035c.206.076.115.206.089.348C962.153,323.354,962.218,323.441,962.264,323.556Z" transform="translate(-762.798 -256.482)"/>
    <path id="パス_327" data-name="パス 327" class="cls-1" d="M969.97,285.53a1.8,1.8,0,0,1,1.326.983c.091.356-.035.487-.393.411s-.674-.132-1-.228a.539.539,0,0,1-.436-.677A.563.563,0,0,1,969.97,285.53Z" transform="translate(-770.093 -226.815)"/>
    <path id="パス_328" data-name="パス 328" class="cls-1" d="M947.206,307.956a.48.48,0,0,1-.218-.068,6.2,6.2,0,0,1-.95-.936.411.411,0,0,1-.082-.444c.1-.169.278-.113.432-.086a3.7,3.7,0,0,1,1.4.8.364.364,0,0,1,.039.479C947.71,307.929,947.5,307.956,947.206,307.956Z" transform="translate(-751.409 -243.387)"/>
    <path id="パス_329" data-name="パス 329" class="cls-1" d="M949.007,275.806l-.923.115c-.344.041-.526-.243-.679-.438s-.021-.45.187-.642a.576.576,0,0,1,.7-.049C948.939,275.125,949.079,275.315,949.007,275.806Z" transform="translate(-752.533 -218.21)"/>
    <path id="パス_330" data-name="パス 330" class="cls-1" d="M976.436,297.285a1.681,1.681,0,0,1-.043.383c-.084.239-.257.319-.461.136a1.352,1.352,0,0,1-.469-.977.315.315,0,0,1,.218-.333.52.52,0,0,1,.559.111A.823.823,0,0,1,976.436,297.285Z" transform="translate(-774.873 -235.494)"/>
    <path id="パス_331" data-name="パス 331" class="cls-1" d="M935.431,331.435a1.171,1.171,0,0,1-.919-.442.261.261,0,0,1-.053-.317c.058-.121.167-.134.288-.138C935.242,330.526,935.516,330.876,935.431,331.435Z" transform="translate(-742.277 -262.568)"/>
    <path id="パス_332" data-name="パス 332" class="cls-1" d="M779.718,489.144a20.315,20.315,0,0,1-2.994-.411c-.273-.068-.422-.206-.424-.457,0-.294.247-.3.469-.315a15.622,15.622,0,0,1,1.931.191c.65.021,1.287.1,1.931.158a2.532,2.532,0,0,1,.469.072c.206.06.23.243.23.411a.206.206,0,0,1-.263.218C780.557,488.959,780.088,489.272,779.718,489.144Z" transform="translate(-616.666 -387.612)"/>
    <path id="パス_333" data-name="パス 333" class="cls-1" d="M861.659,311.811c.076.263.051.43.164.58a.4.4,0,0,1-.012.582.531.531,0,0,1-.658.058,8.233,8.233,0,0,0-4.067-1.234c-.434.021-.948.068-1.065.487s.253.783.627,1.028a8.4,8.4,0,0,0,3.405,1.207c.469.066.942.113,1.411.181a1.027,1.027,0,0,1,.321.115.24.24,0,0,1,.1.3.206.206,0,0,1-.253.171c-.9-.09-1.814.051-2.712-.111a5.432,5.432,0,0,1-3.613-1.771,2.633,2.633,0,0,1-.411-.707c-.171-.469.076-.9.627-1.205a4.917,4.917,0,0,1,3.189-.366,7.307,7.307,0,0,1,2.353.788A.467.467,0,0,0,861.659,311.811Z" transform="translate(-679.055 -247.071)"/>
    <path id="パス_334" data-name="パス 334" class="cls-1" d="M506.571,43.4a2.424,2.424,0,0,1,1.115,2.554c.541.012.732.5,1.041.8.3-.076.232-.286.228-.459a22.741,22.741,0,0,1,.012-2.776,15.978,15.978,0,0,1,1.143-5.083,19.02,19.02,0,0,1,2.8-4.588,7.737,7.737,0,0,1,3.893-2.906,4.9,4.9,0,0,1,5.065,1.851,5.489,5.489,0,0,1,1.112,2.815c0,.29.206.436.463.547a1.22,1.22,0,0,0-.158,1.115c.109-.165.039-.448.329-.389.154.033.288.1.259.278-.049.331.025.746-.5.767a4.671,4.671,0,0,1,.107,1.851c-.111.547.3,1.028.183,1.544-.339,1.507-.179,3.07-.543,4.573a.617.617,0,0,0,.023.411c.383.617.029,1.306.259,1.822-.154.263-.376.043-.473.243A2.99,2.99,0,0,1,522.4,50.3a2.67,2.67,0,0,0-.257,1.98.779.779,0,0,0,.428-.524,24.843,24.843,0,0,1,.962-2.614c.4-1.374.738-2.768,1.2-4.113a16.1,16.1,0,0,0,.823-4.294A57.588,57.588,0,0,0,525.311,33a67.582,67.582,0,0,0-.927-7.055,19.613,19.613,0,0,0-1.47-4.617,16.193,16.193,0,0,0-2.951-4.059,5.464,5.464,0,0,0-3.3-1.791,6.712,6.712,0,0,0-2.686.206,6.976,6.976,0,0,0-3.5,1.666,18.536,18.536,0,0,0-3.514,4.614,40.59,40.59,0,0,0-2.056,4.466c-.179.518-.222,1.059-.345,1.575-.15.617-.282,1.258-.411,1.886a24.528,24.528,0,0,0-.14,4.549,1.561,1.561,0,0,0,.57,1.4c.179.134.08.28.1.43.07.58-.1,1.265.323,1.7a1.581,1.581,0,0,1,.467,1.532c-.037.185-.09.411.093.5.315.152.294.411.3.666a1.106,1.106,0,0,0,.255.642C506.557,41.922,507.266,42.508,506.571,43.4Zm-11.23,48.024a.646.646,0,0,0,.206.849c.374.335.691.736,1.053,1.086a39.128,39.128,0,0,1,2.982,3.278c.479.576,1.252.8,1.727,1.318a17.578,17.578,0,0,0,6.872,4.23,31.086,31.086,0,0,0,5.316,1.187c.226.045.459.206.7.062.1-.167-.018-.288-.08-.4-.925-1.688-1.832-3.385-2.795-5.05a59.251,59.251,0,0,0-3.506-6.048c-.767-1.028-1.18-2.262-1.869-3.333-.457-.712-.942-1.4-1.343-2.151-.428-.8-.823-1.616-1.328-2.377q-1.211-1.814-2.4-3.646c-1.285-1.984-2.673-3.895-4.022-5.834-.936-1.345-1.933-2.651-2.955-3.938-.93-1.176-1.606-2.55-2.628-3.671a5.141,5.141,0,0,0-1.988-1.316,19.693,19.693,0,0,0-.714,7.438,10.97,10.97,0,0,0-.025,1.269c.132.806.132,1.616.193,2.424a4.806,4.806,0,0,0,1.014,3.206.493.493,0,0,1,.119.457,7.082,7.082,0,0,0,.3,2.924ZM523.6,99.969c-.948,1.193-2.352,1.851-3.418,2.906a16.022,16.022,0,0,0-1.707,1.645,18.793,18.793,0,0,0,2.955-.79,16.451,16.451,0,0,0,3.981-1.491c2.227-1.178,4.563-2.091,6.854-3.111a19.215,19.215,0,0,0,5.589-3.907c.851-.833,1.267-1.97,2.042-2.858l2.1-5.131c.1-.35.13-.718.206-1.071a16.579,16.579,0,0,0,.029-7.545,45.1,45.1,0,0,0-1.783-5.807c-.8-2.215-1.581-4.433-2.478-6.611a2.513,2.513,0,0,0-.9-1.211c-.187,1.207-.38,2.278-.516,3.356a28.1,28.1,0,0,1-.823,5.017l-2.616,9.963a5.4,5.4,0,0,1-.479,1.423,28.717,28.717,0,0,0-1.559,3.134c-.315.769-.516,1.59-.888,2.315a30.64,30.64,0,0,1-2.352,4.156c-.691.958-1.339,1.947-2.034,2.9-.465.635-.983,1.234-1.47,1.851Zm-7.031-66.854c-.44.173-.89.014-1.308.354a15.122,15.122,0,0,0-2.762,3.414.629.629,0,0,0-.121.578c.051.146.025.366-.111.36-.343-.01-.288.278-.411.4-.7.683-.728,1.629-1.073,2.437a10.074,10.074,0,0,0-.454,2.49c-.343,2.307.263,4.462.781,6.652.117.5.677.724.617,1.252a1.083,1.083,0,0,0,.3.823,1.31,1.31,0,0,1,.333.732,1.425,1.425,0,0,0,1.148,1.254,8.262,8.262,0,0,0,2.416.261,1.456,1.456,0,0,1,1.333.481c.237.284.271.382-.084.57a3.267,3.267,0,0,1-1.993.531c1.1.074.477,1.215,1.09,1.55.156.029.064-.255.206-.206.245.09.167.411.45.452.156-.09.341-.175.362-.446-.278-.28-.672-.637-.288-1.012.327-.319.695.047.964.28a2.311,2.311,0,0,0,1.152-1.522c.391-.958.87-1.875,1.217-2.858a27.4,27.4,0,0,0,1.454-5.5,26.517,26.517,0,0,0,.051-8.912,18.936,18.936,0,0,0-1.028-3.607c-.617-1.439-3.1-1.925-4.524-.934ZM532.2,20.257c.054.81-1.211.109-.936,1.082-.784-.292-.868-.146-.779,1.25-.257.082-.662-.243-.81.315a6.81,6.81,0,0,1,2.879.533,5.591,5.591,0,0,1,2.41,1.805c.459.687,1.246,1.145,1.312,2.243-.206.44-.185.6.286,1.028-.541.6-.123,1.234.01,1.814l.093,1.115c-.385,1.727.08,3.518-.276,5.25-.253,0-.156-.206-.3-.3-.07.617-.14,1.234-.206,1.851l-.078.477c-.352.119-.286.617-.3.915a5.891,5.891,0,0,1-.487,2.056,1.548,1.548,0,0,0-.179,1.055c.121.38-.537,1.234-1.614,3.689l-6.272,8.195a28.447,28.447,0,0,1-4.886,2.992,2.651,2.651,0,0,1-2.106-.014c.066.617-.6.372-.8.73l-.292,1.513a3.259,3.259,0,0,0-.078,1.481c.15.958-.062,1.927.1,2.9.074.442-.023.919.043,1.386a3.905,3.905,0,0,1-.206,1.645l-.267,32.34a4.438,4.438,0,0,0,.162,2.108c.578.023.874-.372,1.178-.646a25.049,25.049,0,0,0,3.728-3.461c1.195-1.614,2.449-3.179,3.5-4.9a26.871,26.871,0,0,0,2.262-4.349c.72-1.851,1.75-3.566,2.406-5.443.37-1.063.687-2.147,1.008-3.226a45.129,45.129,0,0,0,1.481-5.235c.337-1.958.689-3.907,1-5.875.29-1.822.411-3.669.823-5.474.091-.411.121-.872.617-1.055a1.442,1.442,0,0,1,1.91.872c.738,1.454.773,2.373,1.355,3.477,0,0,1.464,4.24,2.262,6.644,1.061,3.2,1.968,5.192,1.873,6.5a19.4,19.4,0,0,0,.218,3.364c-.237.167-.206.411-.206.617.018.973-.091,1.935-.144,2.9-.017.286-.206.479-.265.732-.1.38-.125.648.358.691L541.2,93.267c-.942,1.209-1.838,2.406-2.784,3.564s-2.328,1.808-3.348,3.017a.479.479,0,0,0-.45.056,30.575,30.575,0,0,1-5.879,2.725,16.14,16.14,0,0,0-2.188,1.174,18.826,18.826,0,0,1-3.041,1.213,49.436,49.436,0,0,1-4.935,1.472.874.874,0,0,0-.742.707.823.823,0,0,1-.644.722c-.38.076-.617-.247-.771-.506a5.213,5.213,0,0,0-4.172-2.262,25.058,25.058,0,0,1-8.573-2.811,11.38,11.38,0,0,1-2.8-2.338q-2.274-2.262-4.343-4.688c-.642-.751-1.5-1.283-2.134-2.071a15.683,15.683,0,0,1-1.481-2.165c-.514-.932-1.234-1.715-1.766-2.607a22.482,22.482,0,0,1-2-3.169c-.547-1.372-.557-2.856-1.09-4.2a19.89,19.89,0,0,1-.876-6.116c-.08-1.147-.251-2.293-.239-3.442a19.376,19.376,0,0,1,.411-3.5,25.761,25.761,0,0,0,.617-3.821c.035-.771.518-1.088,1.2-.755a13.3,13.3,0,0,1,3.43,2.486,14.044,14.044,0,0,1,2.324,3.317c.257.461.738.687,1,1.152a23.856,23.856,0,0,0,1.425,2.139c.218.306.411.664.862.7a1.1,1.1,0,0,0,.938,1.234.913.913,0,0,0,.206.874,12.724,12.724,0,0,0,1.812,2.433c.076.06.13.387.243.59.907,1.62,2.167,3,3.085,4.612,1.328,2.33,2.879,4.524,4.1,6.928.524,1.028,1.275,1.96,1.851,2.988.617,1.1,1.143,2.237,1.754,3.335,1.106,1.984,2.163,4,3.251,5.99.082.152.125.368.329.411.411.1.436.44.467.763a.72.72,0,0,0,.339.668c.171-.146.1-.341.107-.512.117-2.56.14-5.118.037-7.685-.074-1.826.066-3.662.082-5.495.016-1.625.035-3.251-.023-4.876-.054-1.565.064-3.128-.029-4.7-.128-2.172-.066-4.351-.043-6.527.012-1.234.156-2.468.175-3.7a32.9,32.9,0,0,0,.162-3.309c-.1-1.2.311-2.367.247-3.57-.068-1.275-.06-2.552-.187-3.829-.062-.631-.378-.81-.874-1.055a9.063,9.063,0,0,1-3.907-2.906,4.056,4.056,0,0,0-1.384-1.464,1.941,1.941,0,0,0-1.071-.29c.492-.518.156-.823-.09-1.121a28.52,28.52,0,0,1-4.318-7.3,59.653,59.653,0,0,1-2.375-7.534,23.031,23.031,0,0,1-.3-7.97,15.873,15.873,0,0,1,.366-2.322.849.849,0,0,0-.586-1.09,6.023,6.023,0,0,0-4.444-.356,12.324,12.324,0,0,0-3.29,1.6,5.616,5.616,0,0,0-.956,1.137l-1.553,2.494c-.878,1.283-1.793,2.568-1.668,4.238.029.368-.424.348-.411.685a7.005,7.005,0,0,1-.035,1.156,12.379,12.379,0,0,0,.158,4.224,11.891,11.891,0,0,0,.6,2.517A4.653,4.653,0,0,1,491.245,46a7.368,7.368,0,0,0,.894,2.262,7.006,7.006,0,0,0,.631,1.335c1.082,1.45,2.223,2.852,3.409,4.222a38.589,38.589,0,0,0,2.624,2.936,8.826,8.826,0,0,0,7.456,2.63c1.407-.183,2.838-.115,4.244-.337a.652.652,0,0,1,.732.508c.113.343-.206.432-.428.572a5.373,5.373,0,0,1-2.379.689,14.964,14.964,0,0,1-6.523-.269,8.524,8.524,0,0,1-3.6-2.361c-1.544-1.645-3.187-3.2-4.61-4.946a16.538,16.538,0,0,1-3.054-4.351,19.856,19.856,0,0,1-1.123-3.652c-.144-.837-.411-1.645-.547-2.49l-.058-.837a16.566,16.566,0,0,1-.352-3.66c-.035-.3.206-.642.132-1-.043-.206.012-.436-.222-.592a.3.3,0,0,1-.023-.485c.282-.236.273-.563.358-.866a14.357,14.357,0,0,1,1.094-2.482c.58-1.174,1.425-2.2,1.937-3.448a3.974,3.974,0,0,1-.317-.292c-.245-.28-.315-.514.134-.681a7.31,7.31,0,0,0,2.262-1.544,11.746,11.746,0,0,1,2.867-1.439,8.3,8.3,0,0,1,1.555-.491,6.7,6.7,0,0,1,4.8.514c.395.206.672.171.866-.36a23.975,23.975,0,0,1,3.025-5.84,1.17,1.17,0,0,0,.047-1.61,7.527,7.527,0,0,1-1.014-3.041c-.191-1.057-.267-2.172-.411-3.259-.084-.666-.218-1.205-1.084-1.359a2.128,2.128,0,0,1-1.326-2.531,3.785,3.785,0,0,1,.882-2.151,2.056,2.056,0,0,1,2.7-.271.736.736,0,0,1,.343.547,3.69,3.69,0,0,1,.07,1.271c-.411,1.328-.056,2.651-.08,3.971a9.9,9.9,0,0,0,.142,1.645c.13.88.22,1.766.327,2.649a4.887,4.887,0,0,0,.722,1.877,2.618,2.618,0,0,0,1.466-1,7.613,7.613,0,0,1,4.2-2.038c.51-.117.716-.257.749-.835.06-1.055.4-2.083.36-3.161a.555.555,0,0,0-.206-.506,2.777,2.777,0,0,1-.95-2.079,23.451,23.451,0,0,1-.092-2.371,2,2,0,0,1,.31-1.205,1.591,1.591,0,0,1,2.315-.175,3.555,3.555,0,0,1,1.322,3.335,23.776,23.776,0,0,1-.411,2.957c-.5.1-.617-.162-.592-.578a9.046,9.046,0,0,0-.372-3.247,1.355,1.355,0,0,0-.654-.823c-.049.152.15.251.066.372-.183.236-.411-.058-.672.084a6.359,6.359,0,0,0,1.807,4.61c-.3.537-.335,1.154-.592,1.707a1.318,1.318,0,0,0,.424,1.511c-.3.222-.43-.113-.631-.111-.119.278.039.339.253.345a2.808,2.808,0,0,1,1.532.329c.528.489,1.314.374,1.744.975a.5.5,0,0,0,.812.14c-.012.257-.08.411.095.59a17.048,17.048,0,0,1,2.392,2.832c.189.308.674.487.726.841.136.936.843,1.6,1.059,2.5.164.687.411,1.351.627,2.028.078.249.095.524.38.658a.282.282,0,0,1,.158.306,12.056,12.056,0,0,0,.354,3.907c.191,1.351.206,2.7.3,4.055.162,2.6.325,5.2.237,7.814a21.7,21.7,0,0,1-.677,4.074,2.13,2.13,0,0,0,.224,1.645,4.882,4.882,0,0,1,.249.483c.08.185.193.4.029.57s-.333.06-.508-.016c-.284-.121-.508-.113-.576.276a19.338,19.338,0,0,1-.66,1.851c-.3,1.123-1.211,2.126-.668,3.4a2.067,2.067,0,0,0-1.4,2.169c-.191.177-.387-.06-.654.025.411.775-.753.506-.72,1.133a5.232,5.232,0,0,0,2.137-1.071,24.176,24.176,0,0,0,4.349-3.679,15.708,15.708,0,0,0,2.965-4.582c.267-.7.872-1.221,1.09-1.945.479-1.59,1.283-3.048,1.733-4.664a33.9,33.9,0,0,0,1.394-7.4,14.359,14.359,0,0,0-1.005-6.132,2.416,2.416,0,0,0-1.7-1.6c-.239-.053-.4-.29-.674-.269l-2.572.3a.93.93,0,0,1-.921-.952.588.588,0,0,0-.477-.664,1.389,1.389,0,0,1-.411-.247c-.179-.132-.4-.255-.294-.537s.319-.286.553-.224c.278.074.411-.068.52-.294a10.6,10.6,0,0,1,1.1-1.976c.874-1.065.712-2.32.837-3.527a4.349,4.349,0,0,1,.882-2.262,1.358,1.358,0,0,1,2.007,0c.181.167.313.411.617.261-.078,1.9-.021,3.792-1.045,5.468M505.592,6.619c-.169.5-.557.218-.823.426a1.008,1.008,0,0,1,.037.755.818.818,0,0,0,.479.892c.206.125.485.127.508-.189A3.364,3.364,0,0,0,505.592,6.619Zm9.743,50a1.493,1.493,0,0,0-1.439-1.1A7.657,7.657,0,0,0,515.335,56.623Z" transform="translate(-386.814 -2.541)"/>
    <path id="パス_335" data-name="パス 335" class="cls-1" d="M148.2,276.5a9.852,9.852,0,0,1-4.8.348,4.829,4.829,0,0,1-2.959-1.779c-.533-.617-1.162-1.152-1.7-1.764-.5-.574-.9-1.234-1.421-1.791-.387-.411-.559-.962-1.016-1.314-.5-.387-.524-1.112-1.061-1.518l-.726-3.019a1.5,1.5,0,0,1,.823-1.548,3.96,3.96,0,0,0,.736-.627,7.994,7.994,0,0,0-1.407-2.4,2.075,2.075,0,0,1-.38-.839,1.692,1.692,0,0,0-.278-.757c-1.158-1.487-1.5-3.317-2.194-5-.362-.878.1-1.592.074-2.381,0-.206.259-.313.411-.45a50.767,50.767,0,0,1,5.834-4.281.9.9,0,0,0,.456-.845,7.408,7.408,0,0,1,.123-2.2c.15-.469-.321-.788-.551-1.152-.189-.3-.572-.428-.617-.88-.027-.239-.424-.335-.837-.411.6-.348.372-.654.206-1.049a27.754,27.754,0,0,0-1.139-2.64c-.535-.971-.553-2.167-1.386-3.054.411-.43.086-.958.134-1.456.035-.366,0-.709.327-.969.222-.177.154-.411.06-.617.117-.117.313-.018.436-.251-.866-.125-1.684-.308-2.511-.348a2.963,2.963,0,0,0-2.141,1.043,8.281,8.281,0,0,0-2.336,3.4,2.365,2.365,0,0,0-.047,1.711,5.463,5.463,0,0,1,.311,1.736,4.706,4.706,0,0,0,2.778,3.86,5.5,5.5,0,0,0,4.094.508,1.54,1.54,0,0,1,.376-.039c.276,0,.586,0,.683.323.111.374-.22.461-.461.561a5.949,5.949,0,0,1-5.507-.36,6.771,6.771,0,0,1-2.924-3.56,10.761,10.761,0,0,1-.74-4.619,4.26,4.26,0,0,1,.934-2.145,11.621,11.621,0,0,1,2.087-2.42,4.756,4.756,0,0,1,3.231-1.2,8.932,8.932,0,0,1,1.616.269c.222.047.518.107.627.265.434.633.862.387,1.275.035a10.872,10.872,0,0,1,1.59-.952,1.187,1.187,0,0,1,.932-.241,3.582,3.582,0,0,1-.845-2.468,2.71,2.71,0,0,1,1.662-2.64,8.174,8.174,0,0,1,3.6-.79,17.524,17.524,0,0,0,2.453-.206c.6-.072.707-.6.823-1a30.491,30.491,0,0,1,1.939-4.039,17.253,17.253,0,0,1,2.3-3.469c1.234-1.536,2.7-2.908,4.847-3.132a6.494,6.494,0,0,1,6.963,3.79.664.664,0,0,0,.253.327c.5-.311.855-.823,1.372-1.145a3.616,3.616,0,0,1,3.971-.222,13.744,13.744,0,0,1,5.782,6.554,8.16,8.16,0,0,1,.374,2.865c.012.144,0,.292,0,.454a11.418,11.418,0,0,1,3.276.321,15.137,15.137,0,0,1,3.031,1.616,14.449,14.449,0,0,1,3.027,2.879c.5.584.516,1.277.835,1.873a3.973,3.973,0,0,1,.411,2.139.577.577,0,0,0,.452.685,10.941,10.941,0,0,1,4.6,3.714,6.146,6.146,0,0,1,1.452,4.244,6.963,6.963,0,0,1-2.089,4.82c-.086.088-.167.183-.271.3a9.087,9.087,0,0,0,.561.761,5.353,5.353,0,0,1,1.164,4.816,11.8,11.8,0,0,1-3.683,6.426,5.947,5.947,0,0,1-5.815,1.538.6.6,0,0,0-.779.508,5.186,5.186,0,0,1-.278.837l-.267,1.145a8.557,8.557,0,0,1-1.145,2.827c-.74,1.063-.5,2.2-.28,3.346a27.056,27.056,0,0,0,1.2,4.139,58.411,58.411,0,0,0,2.4,5.879,18.559,18.559,0,0,0,.823,1.69.882.882,0,0,0,.469.454,7.361,7.361,0,0,0,1.014-2.739,27.567,27.567,0,0,0,.086-3.4,40.736,40.736,0,0,1,.985-6.975,10.61,10.61,0,0,1,.716-1.361,25.407,25.407,0,0,1,1.814-3.666,19.258,19.258,0,0,1,1.822-2.392,3.357,3.357,0,0,1,3.854-.9,11.722,11.722,0,0,1,1.4.563,1.841,1.841,0,0,1,.979,2.416l-7.469,10.506c-.72,1.219-1.263,2.533-1.951,3.759a6.786,6.786,0,0,0-.936,3.516c0,.73.29,1.4.335,2.122.062,1.028.115,1.04-.888,1.04-.082,0-.165.01-.284.019a3.047,3.047,0,0,0,.644,1.46,31.277,31.277,0,0,0,3.035,3.907c1.01,1.125,1.976,2.285,2.93,3.457.284.352.467.282.771.053a2,2,0,0,0,.892-1.76,11.674,11.674,0,0,1,.526-3.712,17.067,17.067,0,0,1,1.341-3.1c1.5-2.844,4.022-4.275,6.907-5.215a8.109,8.109,0,0,1,3.374-.337,1.167,1.167,0,0,1,.761,1.429,5.286,5.286,0,0,1-1.275,1.684l-3.393,3.856a43.208,43.208,0,0,1-2.98,3.42c-1.014,1.094-2.132,2.075-3.235,3.074-.269.245-.541.463-.37.958a.509.509,0,0,1-.592.707,2.009,2.009,0,0,0-1.46.526c1.713,2.739,4.168,4.872,5.963,7.541l.962.979c.111.033.132.152.146.261.039.292.206.524.5.422s.557-.29.506-.689a4.94,4.94,0,0,1,1.008-3.465A14.348,14.348,0,0,1,205.7,295.7a8,8,0,0,1,4.3-1.454c.631-.039,1.267-.014,1.9-.068a.929.929,0,0,1,.958.586.864.864,0,0,1-.16,1.059c-.769.808-1.731,1.386-2.5,2.184l-1.263.936c-.45.837-1.645.909-1.964,1.851-.969.164-1.563.979-2.328,1.454s-3.518,1.754-3.95,2.634l14.6,10.218c.249.243-.019.508-.206.7-.239.239-.5.533-.872.3-1.382-.872-2.8-1.676-4.234-2.455a33.252,33.252,0,0,1-4.839-3.422c-1.341-1.08-2.663-2.184-4.063-3.189-.185-.132-.311-.352-.5-.469-.387-.236-.668-.8-1.277-.422-.206.127-.278-.228-.531-.218-.121.261-.128.662-.559.683-.181-.169.171-.206.064-.395-.3-.029-.368.411-.672.323.027.582.662.339.837.728-.23.306-.617,0-.907.306a6.94,6.94,0,0,0,1.347.078,1.036,1.036,0,0,1,1.234.67.654.654,0,0,1-.617.372,8.018,8.018,0,0,1-3-.053c-1.012-.3-1.411.362-1.886.925a22.082,22.082,0,0,1-3.821,4l-.993.751a5.052,5.052,0,0,1-2.289,1.04,5.27,5.27,0,0,1-5.31-1.481,2.268,2.268,0,0,1-.271-3.163,9.167,9.167,0,0,1,4.954-3.58,12.167,12.167,0,0,1,4.491-.294,7.028,7.028,0,0,0,5.065-1.386,1.4,1.4,0,0,1,1.328-.243c-.132-.539.16-.483.528-.465-.646-.576-1.252-1.2-1.945-1.717a13.66,13.66,0,0,1-1.941-1.882c-1.088-1.2-2.375-2.184-3.535-3.307-.15-.146-.263-.333-.524-.257-.3.086-.236.341-.255.561-.292.119-.987-.65-.835.393a.66.66,0,0,1-.8.035c.22.261.382.432.52.617a.664.664,0,0,1,.072.823c-.2.3-.477.239-.734.136-.644-.253-1.291-.5-1.912-.806-.588-.288-1.1.058-1.645.109-.411.039-.459.027-.512-.261a1.262,1.262,0,0,0-1.234.541,7.914,7.914,0,0,1-3.237,1.585c-.3.111-.3.1-.691.51a.386.386,0,0,1-.271.134c-1.061-.156-1.964.411-2.941.617a5.948,5.948,0,0,1-2.973.3c-.483-.142-.919-.282-1.1-.866a1.116,1.116,0,0,1,.631-1.5,20.878,20.878,0,0,1,7.308-2.521c1.736-.253,3.481-.206,5.217-.36a20.5,20.5,0,0,0,3.878-.823,2.44,2.44,0,0,0-.878-1.764,24.077,24.077,0,0,1-4.355-5.005,17.541,17.541,0,0,1-1.968-3.582c-.23-.617-.841-.617-1.322-.757-.662-.187-1.372-.206-2.042-.364-1.285-.317-2.579-.572-3.856-.969a22.184,22.184,0,0,0-6.992-1.129c-1.115.021-2.229.066-3.342.142-.633.043-1.092.487-1.746.516a3.461,3.461,0,0,0-1.873.644,8.938,8.938,0,0,1-.757.52,1.606,1.606,0,0,0-.411,2.178.5.5,0,0,0,.411.259,5.123,5.123,0,0,0,3.434-.633c.047-.033.123-.093.154-.076.656.35,1.2-.08,1.787-.241.841-.228,1.715.021,2.564-.152a.352.352,0,0,1,.411.317c.043.257-.121.387-.352.44-.65.154-1.316.259-1.949.467-1.3.424-2.661.66-3.936,1.174a4.746,4.746,0,0,1-2.618.125c-1.145-.206-1.538-1.561-1.526-2.57.029-2.069,1.567-2.71,3.142-3.21a16.208,16.208,0,0,1,3.806-.853,20.816,20.816,0,0,1,6.027.37c1,.228,2.03.313,3.039.529a21.165,21.165,0,0,0,2.437.6c1.172.109,2.35.109,3.514.306.206.035.432.041.467-.206.269-.035.177.243.335.28a.341.341,0,0,0,0-.411c-.343-.7-.674-1.4-1.043-2.077a19.686,19.686,0,0,0-1.664-3.4c-1.219-1.487-1.616-3.34-2.445-4.995a4.749,4.749,0,0,1-.487-1.439,2.687,2.687,0,0,0-1.006.183,4.312,4.312,0,0,1-4.536-.181,12.516,12.516,0,0,0-1.5-.755.622.622,0,0,0-.874.216,17.074,17.074,0,0,1-1.851,2.986c-.185.185.206.518-.249.709-.14.019.018-.193-.078-.3-.471.119-.74.545-1.092.837a13.589,13.589,0,0,1-2.906,2.056,5.587,5.587,0,0,1-4.978-.072,11.211,11.211,0,0,1-2.507-1.692,1.275,1.275,0,0,0-1.838-.167c-.465.364-1.038.247-1.54.434Zm49.241,25.254c-1.7-2.056-3.37-3.971-4.906-5.988-.411-.545-.979-.411-1.258.249l.016-.014c-.389.348-.08.594.146.823,1.1,1.067,2.223,2.118,3.333,3.177.253.241.5.487.746.732ZM175.28,269.076a1.557,1.557,0,0,0,.185-.093c1.25-.909,1.668-2.412,2.556-3.58a5.191,5.191,0,0,0,.769-1.773c.171-.572.582-1.234-.115-1.851a.646.646,0,0,1,.1-1,.717.717,0,0,0,.28-.973,9.794,9.794,0,0,1-.206-.989c-.035-.179-.033-.376.175-.411.5-.082,1.006-.348,1.479.144a1.577,1.577,0,0,0,1.528.524,1.028,1.028,0,0,1,.86.109,1.685,1.685,0,0,0,1.851,0,8.92,8.92,0,0,0,3.584-3.085,10.133,10.133,0,0,0,1.645-3.837,3.235,3.235,0,0,0-.382-2.357,9.22,9.22,0,0,0-1.949-2.137.929.929,0,0,1,.222-1.472,4.757,4.757,0,0,0,2.642-4.067,3.136,3.136,0,0,0-.1-1.31,7.945,7.945,0,0,0-2.309-3.481c-1.022-.975-2.028-1.949-3.64-1.581a.5.5,0,0,1-.635-.467,2.324,2.324,0,0,1,.062-1.061,4.147,4.147,0,0,0-.531-3.675,9.184,9.184,0,0,0-3.825-3.562,6.032,6.032,0,0,0-3.582-.9c.251.3.158.617.16.934-.855.251-1.633-.216-2.443-.177a1.155,1.155,0,0,1-1.139-.724,1.505,1.505,0,0,0-.444-.6.509.509,0,0,1-.142-.761c.169-.3.469-.282.769-.158a.933.933,0,0,0,.765.113,7.216,7.216,0,0,0-1.31-5.437,14.82,14.82,0,0,0-3.074-3.21,3.006,3.006,0,0,0-4.806,1,4.86,4.86,0,0,1-.728,1.234.823.823,0,0,1-.874.179c-.224-.06-.411-.2-.38-.436a3.794,3.794,0,0,0-.687-2.118,4.632,4.632,0,0,0-4.191-2.947,5.3,5.3,0,0,0-3.689,1.129,17.274,17.274,0,0,0-3.34,4.205,23.1,23.1,0,0,0-1.993,3.831c-.537,1.2-.547,1.2.28,1.98-.236.315.021.862-.491,1.059-.617.239-.545.718-.411,1.2a3.34,3.34,0,0,0,.284.633c.1.206.018.352-.109.512a.374.374,0,0,1-.5.1,1.252,1.252,0,0,1-.8-.757,6.838,6.838,0,0,1-.294-1.224.5.5,0,0,0-.491-.522,8.935,8.935,0,0,0-4.588.5,1.79,1.79,0,0,0-1.217,2.04,8.269,8.269,0,0,0,.679,1.894c.308.565.095,1.1-.533,1.176a5.907,5.907,0,0,0-3.942,2.661,1.33,1.33,0,0,0-.206,1.314,15.272,15.272,0,0,0,1.067,2.9,2.262,2.262,0,0,1,.376.929c.138,1.548,1.191,2.638,1.89,3.907.183.331.467.352.683-.014a1.6,1.6,0,0,1,.843-.691,32.4,32.4,0,0,1,3.72-.915c1.343-.206,2.673-.471,4.063-.72-.086-.374-.154-.722-.247-1.063-.189-.685-.436-1.357-.584-2.056a21.627,21.627,0,0,1-.234-5.231,3.186,3.186,0,0,1,.755-1.83,4.6,4.6,0,0,1,5.373-1.209c.452.206.656.09.728-.3a3.351,3.351,0,0,1,.823-1.4,4.394,4.394,0,0,1,4.948-1.6,12.077,12.077,0,0,1,5.248,3.689,8.179,8.179,0,0,1,2.437,4.438c.033.28.228.3.45.331a4.427,4.427,0,0,1,1.993.712c.635.448,1.318.823,1.951,1.281a5.234,5.234,0,0,1,2.55,6.737.94.94,0,0,0,.372,1.063c.5.411,1.08.716,1.575,1.143a7.326,7.326,0,0,1,2.437,3.085,7.189,7.189,0,0,1-1.234,6.428,6.607,6.607,0,0,1-3.142,2.42,1.028,1.028,0,0,0-.617.644,21.251,21.251,0,0,1-.938,2.243,9.907,9.907,0,0,1-3.072,3.5,5.075,5.075,0,0,1-2.718,1.067,6.041,6.041,0,0,1-4.072-1.563c-.919-.781-.917-.751-1.873-.053a11.1,11.1,0,0,1-4.886,1.974,5.015,5.015,0,0,1-3.7-.644,12.109,12.109,0,0,1-4.5-6.017c-.368-.989-.325-.983-1.376-1.073a6.093,6.093,0,0,1-4.028-1.939,16.644,16.644,0,0,1-2.233-3.031,16.087,16.087,0,0,1-1.075-1.836,8.151,8.151,0,0,0-.837-1.616,2.4,2.4,0,0,1-.411.494,41.361,41.361,0,0,0-4.456,3.5c-.471.4-1,.868-.664,1.645.319.033.677-.206.9.119.2.292-.247.4-.263.7.531.121.056.642.333.895a1.234,1.234,0,0,1,.372.946c.014.6.206,1.086.87,1.016.222.343-.206.5-.076.767,1.439.278,1.851.759,1.45,1.635l-.767.066a4.244,4.244,0,0,0,1.205,2.034c.459.335.9.689,1.372,1.012a.934.934,0,0,1,.306,1.127c-.1.422-.411.477-.79.452a1.719,1.719,0,0,0-1.078.206c.241.37.241.37-.109.547-.749.383-1.234,1.195-.942,1.707.216.395.335.823.592,1.217.206.3.6.471.652.812.095.724.96.987.971,1.736,1.028.8,1.52,2.056,2.6,2.852a6.159,6.159,0,0,0,2.743,1.359,9.071,9.071,0,0,0,4.228-.471,10.841,10.841,0,0,0,3.634-1.46c.341-.271.629,0,.864.259a2.865,2.865,0,0,0,.672.654c.763.44,1.53.882,2.262,1.378a4.265,4.265,0,0,0,3.027.823,8.565,8.565,0,0,0,4.7-2.591,10.568,10.568,0,0,0,2.568-3.689c.411-.975,1.055-1.15,2.019-.74a11.017,11.017,0,0,1,1.086.617,6.1,6.1,0,0,0,2.1.946A4.027,4.027,0,0,0,174.184,270a3.675,3.675,0,0,1-.411-1.88.675.675,0,0,1,.767-.646c.434-.006.617.177.617.617A7.556,7.556,0,0,0,175.28,269.076ZM140.556,247.9c.584.512.411,1.32.72,1.935a19.822,19.822,0,0,0,1.851,3.2,5.481,5.481,0,0,0,4.113,2.32c.494.041.88-.049.932-.652a2.833,2.833,0,0,1,.16-.545.747.747,0,0,1,.944-.528c.426.066.559.411.518.808a9.138,9.138,0,0,1-.167,1,3.925,3.925,0,0,0,.5,3.193c.6.89,1.139,1.805,1.781,2.673a4.679,4.679,0,0,0,5.168,1.808c1.645-.59,3.342-1.156,4.5-2.612a1.62,1.62,0,0,1,.249-.183c.738-.588,1.17-.485,1.579.378a4.294,4.294,0,0,0,3.755,2.114,6.121,6.121,0,0,0,3.064-1.339,6.83,6.83,0,0,0,2.507-4.292.429.429,0,0,0-.249-.545,1.785,1.785,0,0,1-1.028-1.538c-.066-.763.364-1.248,1.127-1.078a1.825,1.825,0,0,1,1.612,1.417,2.749,2.749,0,0,0,1.493-.6,6.7,6.7,0,0,0,2.482-3.895,3.746,3.746,0,0,0-1.189-3.969,16.489,16.489,0,0,0-2.939-2.056,1.287,1.287,0,0,1-.728-1.581c.179-.553.459-1.078.6-1.645a3.593,3.593,0,0,0-.348-3.072,8.561,8.561,0,0,0-2.488-2.192,4.957,4.957,0,0,0-1.867-.872c-.823-.16-1.182.068-1.326.874-.033.185-.033.376-.074.559a.672.672,0,0,1-.753.533.555.555,0,0,1-.6-.6,3.4,3.4,0,0,1,.222-1.614,2.541,2.541,0,0,0,.187-1.17,5.734,5.734,0,0,0-1.513-3.59,14.241,14.241,0,0,0-4.429-3.64,3.661,3.661,0,0,0-4.8.971c-.537.755-.668,1.851-.226,2.274a22.65,22.65,0,0,1,1.824,2.176.653.653,0,0,1,.08.86.666.666,0,0,1-.872.09,1.669,1.669,0,0,1-.444-.341,8.608,8.608,0,0,0-1.645-1.54,6.524,6.524,0,0,0-2.8-1.645c-1.2-.22-3.122.631-3.29,1.746a7.887,7.887,0,0,0-.206,1.937,15.011,15.011,0,0,0,.96,4.438c.216.533.348,1.328,1.187,1.439.177.025.364.247.206.358-.7.518-.294,1.108-.173,1.725a7.148,7.148,0,0,1,3.58.366c.512.125.689-.019.6-.506a8.167,8.167,0,0,1-.111-2.075,1.715,1.715,0,0,1,1.818-1.676c.23,0,.387-.058.411-.273a5.6,5.6,0,0,1,.693-1.546,2.41,2.41,0,0,1,2.433-1.47c1.028.06,1.555.823,1.906,1.7a17.993,17.993,0,0,1,1.016,4.793c.16,1.476.206,2.965.3,4.456.15-.037.206-.154.261-.261a4.26,4.26,0,0,1,4.623-2.344,3.3,3.3,0,0,1,2.93,1.771,3.95,3.95,0,0,1-.434,4.012,5.048,5.048,0,0,1-1.869,1.947,1.805,1.805,0,0,0,.385.73,4.438,4.438,0,0,1-.029,4.808,5.673,5.673,0,0,1-4.617,2.087,9.168,9.168,0,0,1-4.407-1.5,14.1,14.1,0,0,1-4.166-4.16,4.319,4.319,0,0,0-1.7-1.483,19.983,19.983,0,0,1-5.838-4.427,2.357,2.357,0,0,1-.572-2.1,3.342,3.342,0,0,1,1.316-2.295c.1-.068.127-.16.053-.3a2.225,2.225,0,0,1-.288-.031,9.314,9.314,0,0,0-3.265.477,11.961,11.961,0,0,0-4.81,1.851c-.411.308-.59.578-.2,1.028a2.129,2.129,0,0,1,1.174-.117c.206,0,.508-.031.535.308.023.3-.255.317-.434.368-.5.144-.691.372-.483.917a.825.825,0,0,1-.51,1.063A1.319,1.319,0,0,0,140.556,247.9Zm16.216,3.683c.082.183.156.352.234.516a.649.649,0,0,0,.1.156,12.891,12.891,0,0,0,5.182,3.773,5.641,5.641,0,0,0,5.141-.38,2.823,2.823,0,0,0,1.413-2.246,2.1,2.1,0,0,0-2.262-2.081,4.766,4.766,0,0,1-3.245-.5c-.765-.473-1.76-.872-1.875-2.013a.321.321,0,0,0-.136-.206,11.323,11.323,0,0,1-2.161-2.511,7.874,7.874,0,0,1-.411,1.125c-.356.531-1.357.689-1.7.232a5.049,5.049,0,0,1-1.137-2.418,2.228,2.228,0,0,0-1.851-2.182,7.325,7.325,0,0,0-3.22-.356,2.005,2.005,0,0,0-1.4,3.159,10.624,10.624,0,0,0,4.25,3.722c.973.537,1.184.389,1.365-.783a.576.576,0,0,1,.327-.424,6.435,6.435,0,0,1,4.989.125.892.892,0,0,1,.442.749,2.359,2.359,0,0,1-2.468,2.706c-.524-.047-1.04-.113-1.585-.175ZM183.108,282.9a11.948,11.948,0,0,1-1.123-2.04c-.66-1.557-1.234-3.15-1.927-4.695a56.508,56.508,0,0,1-2.42-6.264c-.08-.263-.019-.592-.341-.823a10.939,10.939,0,0,1-1.174,1.374c.045.181.426.28.134.463-.411.265-.245.58-.128.88a2.577,2.577,0,0,0,.808,1.33c-.179.93.471,1.616.732,2.412a23.983,23.983,0,0,0,1.112,2.519c.28.6.576,1.2.864,1.8.617,1.283,1.234,2.56,1.814,3.854.111.247.292.167.454.226-.271.335-.278.617.206.656a8.626,8.626,0,0,0,1.6.282c.372-.033.461.206.4.586a1.272,1.272,0,0,1-1.314,1.131c.6,1.053,1.127,2.106,1.768,3.085a32.33,32.33,0,0,0,4.586,5.061.616.616,0,0,0,.788.08,5.16,5.16,0,0,0,1.184-.969c-.325-.438-.656-.882-.991-1.3-.411-.518-.823-1.04-1.267-1.548a28.789,28.789,0,0,1-3.043-3.763c-.45-.749-.952-1.466-1.421-2.2Zm3.021-6.981.206.086c.267-.551.5-1.117.806-1.645,1.4-2.449,3.011-4.771,4.629-7.078a36.908,36.908,0,0,1,2.328-3.015,11.287,11.287,0,0,0,.981-1.52.666.666,0,0,0,0-.823,3.2,3.2,0,0,0-4.4.019,17.5,17.5,0,0,0-3.525,6.751,28.222,28.222,0,0,0-.86,5.034c-.07.724-.111,1.454-.167,2.182Zm-3.576,35.846a2.79,2.79,0,0,0,1.234,1.775c1.3.755,2.075.584,2.025.411a5.839,5.839,0,0,0,2.963-.685,11.018,11.018,0,0,0,2.6-1.972.574.574,0,0,1,.465-.183.8.8,0,0,0,.705-.376,8.938,8.938,0,0,0,.956-1.088c.276-.452.823-.607,1.1-1.055a1.33,1.33,0,0,0-.882-.249,6.819,6.819,0,0,1-2.135-.078,5.768,5.768,0,0,0-2.285-.331,15.953,15.953,0,0,0-3.085.617l-1.244.675a5.186,5.186,0,0,0-1.805,1.625Zm14.89-28.232c-.276-.045-.975,1.427-1.123,1.812a17.661,17.661,0,0,0-1.4,4.606c.191-.018.321-.325.508-.074.136.183.047.35-.066.52s-.411.261-.411.629a87.113,87.113,0,0,0,9.87-10.808c-1.353-.467-5.525,1.3-6.323,2.424l.039.076ZM161.8,248.287a.64.64,0,0,0,.6-.744c-.019-1.7,0-3.409-.119-5.114a20.666,20.666,0,0,0-1.006-5.538,2.429,2.429,0,0,0-1.211-1.538c-.574-.23-1.088.191-1.439.679-.422.58-.936,1.314-.541,1.935q1.195,1.888,2.293,3.825c.123.218.243.389.019.617-1.353.019-1.2-1.577-2.211-2.108A23.53,23.53,0,0,0,161.8,248.287Zm8.579-2.34a1.7,1.7,0,0,0-.617-1.308,3.342,3.342,0,0,0-3.084-.6,4.156,4.156,0,0,0-2.7,3.335.6.6,0,0,0,.411.67,22.943,22.943,0,0,1,2.346,1.2,1.376,1.376,0,0,0,1.958-.234,5.733,5.733,0,0,0,.469-.5A3.974,3.974,0,0,0,170.384,245.946Zm40.395,49.735c-.066-.051-.107-.111-.152-.115a6.2,6.2,0,0,0-3.907.909,11.243,11.243,0,0,0-3.625,4.269c-.259.461-.732,1-.411,1.736a43.883,43.883,0,0,0,7.759-6.262m-52.486-47.132c-.726.031-1.234-.043-1.682.282a.617.617,0,0,0-.286.7c.068.317.278.411.572.483a5.17,5.17,0,0,0,2.394-.261c.253-.056.362-.259.512-.43.28-.315.14-.489-.187-.586A4.255,4.255,0,0,0,157.955,249.086Zm-.239-5.581a1.426,1.426,0,0,0,0-.475,11.429,11.429,0,0,1-.89-3.634.521.521,0,0,0-.566-.545c-.35.041-.378.339-.376.631C155.889,241.065,156,242.6,157.717,243.506Zm-.434,1.17a1.094,1.094,0,0,0,.617,1.439C157.935,245.533,158.023,244.953,157.283,244.676Zm20.492,55.452a5.148,5.148,0,0,1,2.554-.426A2.885,2.885,0,0,0,177.774,300.127Zm-1.051.012-1.392.557c.7.459.946-.335,1.392-.57Z" transform="translate(-100.809 -168.315)"/>
    <path id="パス_336" data-name="パス 336" class="cls-1" d="M157.28,356.414a.988.988,0,0,1-.837-1.178,2.17,2.17,0,0,1,.335-.736c.158-.236.43-.224.689-.177a.382.382,0,0,1,.348.387,12.637,12.637,0,0,1-.1,1.365.378.378,0,0,1-.434.339Z" transform="translate(-124.257 -281.44)"/>
    <path id="パス_337" data-name="パス 337" class="cls-1" d="M392.086,318.249c-.574-.041-1.028-.189-1.145-.892-.206-1.133-.492-2.25-.73-3.377-.053-.249-.232-.6.138-.705.271-.08.424.2.6.428a7.631,7.631,0,0,1,1.145,2.429,1.141,1.141,0,0,0,.5.631.82.82,0,0,1,.306,1.051C392.775,318.229,392.452,318.266,392.086,318.249Z" transform="translate(-309.898 -248.844)"/>
    <path id="パス_338" data-name="パス 338" class="cls-1" d="M299.155,490.265c.3.152.37-.171.576-.14a.206.206,0,0,1-.2.3c-.823,0-1.476.514-2.262.617a.892.892,0,0,1-1.127-.964c.029-.389.321-.5.578-.576a15.621,15.621,0,0,0,2.9-.987.608.608,0,0,1,.722.257c.169.2.025.454-.13.674C299.961,489.821,299.469,489.884,299.155,490.265Z" transform="translate(-235.245 -388.017)"/>
    <path id="パス_339" data-name="パス 339" class="cls-1" d="M327.075,474.4c.52-.6,1.075-1.17,1.548-1.8a2.5,2.5,0,0,1,.971-.617.6.6,0,0,1,.786.22c.187.255-.068.424-.206.6a19.144,19.144,0,0,0-1.627,2.468c-.088.165-.506.216-.765.206a.837.837,0,0,1-.788-.617,3.866,3.866,0,0,1-.095-.555Z" transform="translate(-259.678 -374.872)"/>
    <path id="パス_340" data-name="パス 340" class="cls-1" d="M410.668,374.874c.037.788-.317,1.5-.206,2.262a.479.479,0,0,1-.391.508.78.78,0,0,1-.839-.286c-.479-.646-.238-1.335-.123-2a10.075,10.075,0,0,1,.434-1.37c.088-.273.206-.524.547-.51s.434.29.528.549a2.262,2.262,0,0,1,.049.847Z" transform="translate(-324.853 -296.677)"/>
    <path id="パス_341" data-name="パス 341" class="cls-1" d="M257.634,505.69A12.911,12.911,0,0,0,256,506.7c-.031.031.023.142.049.29-.617-.411-1.265-.191-1.919-.276-.068-.234-.158-.487-.216-.749a.786.786,0,0,1,.855-.989,14.664,14.664,0,0,0,2.246.234A.617.617,0,0,1,257.634,505.69Z" transform="translate(-201.682 -401.13)"/>
    <path id="パス_342" data-name="パス 342" class="cls-1" d="M210.008,495.322a6.016,6.016,0,0,1-2.441-1.069.844.844,0,0,1-.2-1.271.819.819,0,0,1,1.234-.033c.6.512,1.178,1.059,1.75,1.6.142.134.362.278.257.526S210.251,495.337,210.008,495.322Z" transform="translate(-164.563 -391.372)"/>
    <path id="パス_343" data-name="パス 343" class="cls-1" d="M300.367,258.521c-.313.942-.311.925-1.209.823a13,13,0,0,1-2.457-.553c-.366-.113-.744-.3-.668-.7s.479-.479.872-.411C298.062,257.885,299.188,258.2,300.367,258.521Z" transform="translate(-235.15 -204.671)"/>
    <path id="パス_344" data-name="パス 344" class="cls-1" d="M411.2,418.326c-.121.783-.206,1.493-.348,2.188a.683.683,0,0,1-.783.572c-.411-.033-.563-.282-.617-.66a2.043,2.043,0,0,1,.051-.74,17.709,17.709,0,0,0,.582-1.7c.035-.278.13-.578.5-.514a.668.668,0,0,1,.617.617A2.266,2.266,0,0,1,411.2,418.326Z" transform="translate(-325.242 -331.614)"/>
    <path id="パス_345" data-name="パス 345" class="cls-1" d="M353.609,463.548a.973.973,0,0,1-.975-.617.632.632,0,0,1,.158-.786,19.028,19.028,0,0,0,1.195-1.532c.206-.282.424-.364.687-.218a.471.471,0,0,1,.206.639c-.216.586-.38,1.193-.553,1.8A.917.917,0,0,1,353.609,463.548Z" transform="translate(-280.057 -365.666)"/>
    <path id="パス_346" data-name="パス 346" class="cls-1" d="M178.393,316.18a.662.662,0,0,0-.685-.127,1.106,1.106,0,0,1-.851-.136c-.253-.14-.537-.259-.537-.617,0-.411.36-.366.586-.442a4.53,4.53,0,0,1,1.452-.494c.206,0,.411-.086.617-.092.362-.01.823,0,.9.4s-.389.543-.72.635a2.341,2.341,0,0,0-.823.335C178.173,315.837,178.607,315.908,178.393,316.18Z" transform="translate(-140.062 -249.645)"/>
    <path id="パス_347" data-name="パス 347" class="cls-1" d="M251.856,278.151c.093.656-.058.981-.714,1.065a3.984,3.984,0,0,0-1.487.461.847.847,0,0,1-.411.123c-.387-.014-.89.068-1-.424-.13-.555.387-.617.763-.707A10.425,10.425,0,0,1,251.856,278.151Z" transform="translate(-197.178 -220.952)"/>
    <path id="パス_348" data-name="パス 348" class="cls-1" d="M193.22,470.176c-.058,0,.058-.027.1.023.457.475,1.158.6,1.583,1.115a.52.52,0,0,1,.1.631.541.541,0,0,1-.648.265,6.338,6.338,0,0,1-1.686-.755.689.689,0,0,1-.259-.835A.659.659,0,0,1,193.22,470.176Z" transform="translate(-152.806 -373.485)"/>
    <rect id="長方形_69" data-name="長方形 69" class="cls-2" width="260.877" height="163.502"/>
  </g>
</svg>
