<svg xmlns="http://www.w3.org/2000/svg" width="101.309" height="102.541" viewBox="0 0 101.309 102.541">
  <defs>
    <style>
      .cls-1 {
        fill: #cacaca;
      }
    </style>
  </defs>
  <g id="グループ_112" data-name="グループ 112" transform="translate(108.615 -347.946) rotate(-45)">
    <path id="パス_223" data-name="パス 223" class="cls-1" d="M-343.273,224.036a10.21,10.21,0,0,0,4.775-4.447,23.231,23.231,0,0,0,2.146-5.387,16.936,16.936,0,0,0,.666-5.764,7.659,7.659,0,0,0-2.571-5.418,2.782,2.782,0,0,0-1.707-.66,2.516,2.516,0,0,0-1.654.73,17.93,17.93,0,0,0-1.874,2.137,15.753,15.753,0,0,0-2.319,5.053,14.981,14.981,0,0,0,1.14,10.856.564.564,0,0,0,.764.233.565.565,0,0,0,.3-.5v-.02a27.325,27.325,0,0,0-1.811-9.782,25.178,25.178,0,0,0-2.237-4.49c-.464-.711-.923-1.373-1.474-2.07a2.376,2.376,0,0,0-1.509-.935,2.2,2.2,0,0,0-1.733.629,7.73,7.73,0,0,0-2.046,4.991,10,10,0,0,0,1.132,5.146c1.678,3.184,4.776,5.192,7.952,6.391l.623-1.838a18.642,18.642,0,0,0-10.845-.614,19.806,19.806,0,0,0-5.087,2.092,17.6,17.6,0,0,0-2.31,1.622,3.509,3.509,0,0,0-1.036,1.525,2.244,2.244,0,0,0,.523,2.186,5.944,5.944,0,0,0,2.837,1.319,14.6,14.6,0,0,0,2.765.349,17.091,17.091,0,0,0,5.4-.823,24.01,24.01,0,0,0,9.179-5.415l-1.126-1.021a27.28,27.28,0,0,0-3.645,7.207,20.014,20.014,0,0,0-1.225,3.883,5.305,5.305,0,0,0,.063,2.189,3.351,3.351,0,0,0,1.336,1.914,2.731,2.731,0,0,0,2.434.43,3.309,3.309,0,0,0,1.707-1.658,14.786,14.786,0,0,0,1.532-3.839,14.971,14.971,0,0,0-.289-8.156l-.889.623a31.243,31.243,0,0,0,5.965,3.471c1.058.484,2.081.971,3.225,1.368a3.305,3.305,0,0,0,2.222.043,2.968,2.968,0,0,0,1.648-1.707,4.443,4.443,0,0,0,.3-2.1,4.927,4.927,0,0,0-.561-2.046,6.112,6.112,0,0,0-3.009-2.759,7.424,7.424,0,0,0-4.065-.572,6.717,6.717,0,0,0-3.978,1.967,1.2,1.2,0,0,0,.032,1.7,1.2,1.2,0,0,0,1.7-.031c.019-.02.037-.04.054-.06l.066-.079a4.991,4.991,0,0,1,5.519-1.164,4.327,4.327,0,0,1,2.248,1.834,3.084,3.084,0,0,1,.152,2.677,1.547,1.547,0,0,1-1.979.891,24.315,24.315,0,0,1-3.162-.942,24.04,24.04,0,0,1-5.687-3.389.562.562,0,0,0-.789.087.561.561,0,0,0-.1.507l.008.025a14.017,14.017,0,0,1,.141,7.507,13.5,13.5,0,0,1-1.433,3.49,2.428,2.428,0,0,1-1.017,1.107,1.5,1.5,0,0,1-1.33-.213,2.828,2.828,0,0,1-1.047-2.969,19.309,19.309,0,0,1,1.044-3.7,32.567,32.567,0,0,1,4.031-6.62.765.765,0,0,0-.176-1.067.771.771,0,0,0-.949.046,23.489,23.489,0,0,1-8.6,5.044,13.74,13.74,0,0,1-4.858.555,12.819,12.819,0,0,1-2.37-.411,4.66,4.66,0,0,1-1.825-.841c-.088-.135-.062-.122-.037-.226a1.64,1.64,0,0,1,.465-.56,16.419,16.419,0,0,1,1.988-1.29,17.542,17.542,0,0,1,4.558-1.7,18.933,18.933,0,0,1,9.67.158l.071.02a.97.97,0,0,0,1.2-.662.971.971,0,0,0-.651-1.2,12.038,12.038,0,0,1-7.091-5.349,8.364,8.364,0,0,1-1.022-4.271,6.97,6.97,0,0,1,.411-2.151,4.755,4.755,0,0,1,1.075-1.761c.221-.2.414-.257.5-.232.087,0,.275.122.492.394.455.586.923,1.262,1.342,1.917a25.79,25.79,0,0,1,2.129,4.217,25.447,25.447,0,0,1,1.78,9.21l1.709-.459a12.537,12.537,0,0,1-1.441-4.762,13.809,13.809,0,0,1,.325-5.013,13.455,13.455,0,0,1,2.108-4.575,10.7,10.7,0,0,1,1.7-1.835A1.076,1.076,0,0,1-340,203.9a1.251,1.251,0,0,1,.694.357,5.744,5.744,0,0,1,1.65,4.234,14.631,14.631,0,0,1-.942,4.956,20.858,20.858,0,0,1-2.228,4.612,7.334,7.334,0,0,1-3.541,2.964l-.042.014a1.6,1.6,0,0,0-1,2.036,1.6,1.6,0,0,0,2.035,1C-343.341,224.064-343.305,224.05-343.273,224.036Z" transform="translate(0 8.126)"/>
    <path id="パス_224" data-name="パス 224" class="cls-1" d="M-333.791,300.028c-.32-3.92-.765-7.826-1.158-11.733l-1.062-11.727-1.953-23.443a168.638,168.638,0,0,1-.383-23.483,178.557,178.557,0,0,1,3.038-23.192c.006-.036.014-.077.019-.116a1.606,1.606,0,0,0-1.4-1.783,1.6,1.6,0,0,0-1.783,1.4l-.006.057a212.038,212.038,0,0,0-1.419,23.6c-.011,3.937-.111,7.872-.053,11.807-.012,3.938.286,7.863.5,11.789,1.058,15.687,2.759,31.3,3.294,46.975C-335.7,302.033-333.791,300.028-333.791,300.028Z" transform="translate(13.174 9.317)"/>
    <path id="パス_225" data-name="パス 225" class="cls-1" d="M-334.865,216.781a21.3,21.3,0,0,1-9.047-5.22,13.819,13.819,0,0,1-3.106-4.328,7.171,7.171,0,0,1-.272-5.554,3.413,3.413,0,0,1,2.333-2.14,2.763,2.763,0,0,1,1.653.21,8.579,8.579,0,0,1,1.152.64,30.859,30.859,0,0,1,3.957,2.958,28.87,28.87,0,0,1,6.1,7.648l-.889.337a45.316,45.316,0,0,1-1.351-12.214,21.268,21.268,0,0,1,1.093-6.171,11.55,11.55,0,0,1,3.641-5.291.811.811,0,0,1,1.027.023,9.878,9.878,0,0,1,2.973,4.869,11.985,11.985,0,0,1,.207,5.652,17.162,17.162,0,0,1-5.883,9.307.908.908,0,0,1-1.28-.1.908.908,0,0,1-.049-1.123l.009-.011A57.8,57.8,0,0,1-327.511,200q1.4-1.464,2.907-2.823a38.263,38.263,0,0,1,3.181-2.513l.031-.023a1.108,1.108,0,0,1,1.217-.06,3.426,3.426,0,0,1,1.6,3.164,5.19,5.19,0,0,1-1.172,2.873,27.288,27.288,0,0,1-3.665,3.668,33.474,33.474,0,0,1-4.147,2.983,36.724,36.724,0,0,1-4.534,2.321.781.781,0,0,1-1.033-.4.789.789,0,0,1,.249-.945,30.167,30.167,0,0,1,8.927-4.575,24.03,24.03,0,0,1,4.916-1.039,38.637,38.637,0,0,1,5-.076.461.461,0,0,1,.413.3,1.916,1.916,0,0,1-.187,1.576,4.047,4.047,0,0,1-.923,1.068,24.929,24.929,0,0,1-2.12,1.453,46.394,46.394,0,0,1-4.415,2.479,35.72,35.72,0,0,1-4.7,1.9,43.224,43.224,0,0,1-4.894,1.325l-.23-1.215a29.618,29.618,0,0,1,8.637-.41,11.892,11.892,0,0,1,4.235,1.358,7.235,7.235,0,0,1,1,.617,2.287,2.287,0,0,1,.875,1.2,1.872,1.872,0,0,1-.448,1.65,7.571,7.571,0,0,1-.886.857,8.8,8.8,0,0,1-4.237,1.852,17.172,17.172,0,0,1-4.569.3,40.348,40.348,0,0,1-8.622-2.041,1.2,1.2,0,0,1-.81-1.5,1.206,1.206,0,0,1,1.5-.81.9.9,0,0,1,.108.039l.113.045a32.929,32.929,0,0,0,7.951,2.482,10.9,10.9,0,0,0,7.649-1.628,6.184,6.184,0,0,0,.742-.564c.193-.195.232-.291.226-.422-.012-.329-.58-.8-1.143-1.146a9.958,9.958,0,0,0-3.829-1.26,30.792,30.792,0,0,0-8.3.585.608.608,0,0,1-.7-.5.615.615,0,0,1,.47-.693,45.274,45.274,0,0,0,4.742-1.344c1.562-.521,3.066-1.184,4.578-1.825a42.142,42.142,0,0,0,4.4-2.236c.688-.418,1.457-.857,2.047-1.307s1.061-1.093.881-1.61l.413.3a23.092,23.092,0,0,0-4.784.529,40.926,40.926,0,0,0-4.64,1.174,28.957,28.957,0,0,0-8.463,4.348l-.784-1.344a31,31,0,0,0,8.006-5.356,29.059,29.059,0,0,0,3.238-3.467,3.067,3.067,0,0,0,.674-1.659,1.19,1.19,0,0,0-.49-1.078l1.246-.084c-1.033.779-2,1.634-3,2.457s-1.956,1.695-2.885,2.6a49.113,49.113,0,0,0-5.206,5.778l-1.317-1.226a15.457,15.457,0,0,0,5.46-8.26,10.4,10.4,0,0,0-.1-4.9,8.3,8.3,0,0,0-2.53-4.084l1,.023a10.479,10.479,0,0,0-3.151,4.6,19.781,19.781,0,0,0-1.053,5.709,39.273,39.273,0,0,0,.216,5.93A50.153,50.153,0,0,0-331.6,211l0,.025a.944.944,0,0,1-.717,1.129.945.945,0,0,1-1.045-.487,24.71,24.71,0,0,0-5.723-7.27,20.08,20.08,0,0,0-3.83-2.652c-.7-.405-1.33-.685-1.67-.558a1.718,1.718,0,0,0-1,1.14,5.179,5.179,0,0,0,.5,3.951,11.285,11.285,0,0,0,2.819,3.4,18.452,18.452,0,0,0,8.1,3.971l.062.014a1.6,1.6,0,0,1,1.242,1.9,1.606,1.606,0,0,1-1.9,1.242Z" transform="translate(8.936 0)"/>
    <path id="パス_226" data-name="パス 226" class="cls-1" d="M-340.6,205.146a12.089,12.089,0,0,1-.951-2.958,7.4,7.4,0,0,0-1.085-2.324,6.39,6.39,0,0,1-.56-1.174c-.127-.416-.131-.854-.232-1.276-.039-.43-.133-.86-.151-1.3a5.219,5.219,0,0,1-.184-1.355,8.177,8.177,0,0,1,1.161-2.437,4.4,4.4,0,0,1,.68-1.157c.147-.2.515-.207.7-.349s.374-.329.617-.478a1.48,1.48,0,0,1,1.648.043,2.677,2.677,0,0,1,.988,1.163,1.545,1.545,0,0,0,.523.6.756.756,0,0,1,.249.328c.029.122,0,.249.034.363a6.614,6.614,0,0,0,.87,1.322,1.439,1.439,0,0,1-.07,2.033,1.439,1.439,0,0,1-2.033-.07,1.438,1.438,0,0,1-.382-1.107l.08-.883a19.844,19.844,0,0,0-.176-2.109,1.856,1.856,0,0,0-.7-.509,5.412,5.412,0,0,0-.659-.172.459.459,0,0,0-.394.15c-.11.125,0,.424-.088.547-.128.294-.323.614-.486.934a11.246,11.246,0,0,0-.192,2.145c0,.343-.343.665-.374,1.033a5.087,5.087,0,0,0-.09,1.095,5.283,5.283,0,0,0,.637,2.091,9.5,9.5,0,0,1,.458.977,2.222,2.222,0,0,0,.436,1,6.605,6.605,0,0,0,1.69,1.307l.427.249a1.721,1.721,0,0,1,.617,2.355,1.722,1.722,0,0,1-2.355.617A1.743,1.743,0,0,1-340.6,205.146Z" transform="translate(11.096 1.434)"/>
    <path id="パス_227" data-name="パス 227" class="cls-1" d="M-338.021,272.954c.99-5.9,2.264-11.736,3.5-17.55,1.29-5.8,2.206-11.656,3.358-17.479.567-2.912,1.167-5.82,1.84-8.712.724-2.878,1.506-5.741,2.276-8.608s1.58-5.735,2.636-8.562a29.184,29.184,0,0,1,4.1-8.186l.012-.015a1.182,1.182,0,0,1,1.655-.237,1.192,1.192,0,0,1,.472.986c-.1,2.932-.241,5.86-.472,8.783s-.6,5.829-.858,8.744-.6,5.825-1.045,8.716c-.275,1.44-.685,2.857-.925,4.3l-.635,4.34c-.215,1.446-.433,2.893-.7,4.331l-.929,4.288c-.646,2.851-1.419,5.687-2.318,8.489-.974,2.752-1.48,5.794-3.19,8.322a30.376,30.376,0,0,1-2.352,3.932,32.25,32.25,0,0,1-3.077,3.569,1.208,1.208,0,0,1-1.707.015,1.206,1.206,0,0,1-.015-1.706,1.092,1.092,0,0,1,.108-.1l.147-.116a22.214,22.214,0,0,0,5.5-6.423l1.945-3.821a22.307,22.307,0,0,0,1.639-4c1.679-5.534,2.588-11.306,3.878-16.975.3-1.424.554-2.856.818-4.286.207-1.441.229-2.909.342-4.359.328-2.887.691-5.769.956-8.662.459-5.8.515-11.609.506-17.406l2.138.733a35.761,35.761,0,0,0-4.283,7.4c-1.081,2.7-1.942,5.512-2.783,8.344-1.732,5.647-2.984,11.425-4.214,17.194-.629,2.884-1.087,5.8-1.719,8.682-.572,2.895-1.209,5.781-1.586,8.71q-1.218,8.772-1.825,17.6l-.006.091a1.606,1.606,0,0,1-1.713,1.491,1.606,1.606,0,0,1-1.491-1.713A1.269,1.269,0,0,1-338.021,272.954Z" transform="translate(14.228 8.678)"/>
    <path id="パス_228" data-name="パス 228" class="cls-1" d="M-349.233,214.619a12.9,12.9,0,0,1,1.452,2.449,12.62,12.62,0,0,0,1.368,2.5,113.272,113.272,0,0,1,6.089,9.582c.434.843.894,1.67,1.393,2.474s1.218,1.477,1.715,2.284c1,1.61,1.928,3.259,2.873,4.9s1.984,3.23,2.972,4.849l2.851,4.925c.114,1.235-1.449,3.355-2.129,1.116-1.679-3.371-3.3-6.776-5.042-10.125-.949-1.628-1.913-3.249-2.808-4.908-.478-.812-.738-1.755-1.209-2.573s-.99-1.607-1.528-2.383l-1.6-2.335-1.489-2.4-2.96-4.824a15.16,15.16,0,0,0-1.692-2.273,14.4,14.4,0,0,1-1.59-2.34C-351.991,213.307-350.275,213.024-349.233,214.619Z" transform="translate(7.09 14.27)"/>
  </g>
</svg>
