<svg xmlns="http://www.w3.org/2000/svg" viewBox="0 0 960.02 560.06"><defs><style>.frame{fill:none;}.s-shadow{fill:#fff;}.s-main{fill:#f4bbaf;}.s-border{fill:#333;}</style></defs><g id="レイヤー_2" data-name="レイヤー 2"><g><rect class="frame" y="0.03" width="960.02" height="560"/><path class="s-shadow" d="M930.5,378.89c-5.2-8.2-12.9-15.8-22.8-22.7l3.7-10.3c4.2-11.6-1.1-24.7-12-29.8a23.6,23.6,0,0,0-32.4,13.4l-2.5,6.9c-1.8-.5-3.5-1-5.1-1.4a264.33,264.33,0,0,0-44.2-7.1c11.1-25.8,11.6-39.9,11.1-48.3-1-15.5-10.6-28.8-23.7-33.1a34.49,34.49,0,0,0-10.6-1.6,60.85,60.85,0,0,0-13.4,1.8l-1.1.2a43.67,43.67,0,0,1-7.9,1.4h-.7c-.4-.4-1.6-1.8-3.3-6.1a9.85,9.85,0,0,0-9.3-6.3h0a9.93,9.93,0,0,0-3,.5l-9.6,3.1a10.07,10.07,0,0,0-6.5,12.6c0,.1.1.3.1.4,4.8,12.7,12,20.8,21.3,24.1a26.17,26.17,0,0,0,4.8,1.3,32.42,32.42,0,0,0,6.2.5,66,66,0,0,0,14.7-2.1l1-.2a30.14,30.14,0,0,1,6.6-1,5.7,5.7,0,0,1,1.3.1c.9.3,2.8,3,3.1,6.6.9,13.7-7.8,32.8-13.9,46-21,1.3-40.4,5.3-57.6,11.9a71.34,71.34,0,0,0-39.8,37.8c-5.6,12.8-6.3,24.6-2,35.1,5.2,12.8,15.9,18.8,21.8,21.3.5.2,1,.4,1.6.6a37.62,37.62,0,0,0,12.9,2.2c19.2,0,39.5-13.8,57-38.8a373.91,373.91,0,0,0,24.9-40.6,231.07,231.07,0,0,1,51,6.9,16,16,0,0,0,2.1.5l-7,19.3c-4.2,11.6,1.1,24.7,12,29.8a23.6,23.6,0,0,0,32.4-13.4l5.3-14.6a47.15,47.15,0,0,1,7.7,8.4,12,12,0,0,0,10.1,5.4,11.79,11.79,0,0,0,4.6-.9l5.7-2.4a12.33,12.33,0,0,0,6.8-7.5A12.66,12.66,0,0,0,930.5,378.89Zm-211.3,27.6a7.39,7.39,0,0,1-2.9-.5c-.1,0-.2-.1-.3-.1-1-.4-4.3-1.9-5.4-4.8-1.1-2.7-.5-6.8,1.7-11.9a41.89,41.89,0,0,1,23.2-21.9,146.3,146.3,0,0,1,29.7-7.9c-4.2,7-8.8,14.1-13.7,20.9-11,16-23.7,26.1-32.3,26.2Z"/><path class="s-main" d="M917.7,366c-5.2-8.1-12.7-15.3-21.4-21.3a5.17,5.17,0,0,1-1.9-5.8l3.7-10.3a19,19,0,0,0-9.4-23.6,18.67,18.67,0,0,0-24.9,9c-.2.5-.5,1-.7,1.6l-2.5,6.9a4.94,4.94,0,0,1-6.1,3.1c-1.7-.5-3.3-.9-4.9-1.3a263.5,263.5,0,0,0-43.4-7,5,5,0,0,1-4.6-5.4,4.71,4.71,0,0,1,.4-1.6c6.1-14.2,11.7-30.7,10.7-46-.9-13.5-9.1-25-20.3-28.7-7.6-2.5-15-1.1-21.3.3l-1,.2c-4.1,1-8,1.9-11,1.3-2.3-.4-4.5-3.5-6.8-9.2a5,5,0,0,0-6.2-2.9l-9.6,3.1a5,5,0,0,0-3.2,6.3c0,.1,0,.1.1.2,2.7,7.2,8,17.5,18.3,21.2a27.92,27.92,0,0,0,3.9,1c7,1.2,13.3-.3,18.9-1.6l1-.2c3.7-.9,7.9-1.7,10.6-.8h.2c3.3,1.2,6,5.9,6.4,11,1,15.4-8.6,36.1-15,49.8l-2.1,1.4c-20.7,1.1-40.3,5-57.5,11.7a67.24,67.24,0,0,0-37.1,35.3c-5,11.5-5.7,22.1-2,31.2,4.5,11.2,13.9,16.4,19.1,18.5a7.84,7.84,0,0,0,1.4.5c19.9,7.2,43.8-5.7,64.1-34.7a389.94,389.94,0,0,0,24.6-40,5,5,0,0,1,4.5-2.7,240.22,240.22,0,0,1,52.1,7l2.2.6a5,5,0,0,1,3.6,6.1c0,.1-.1.3-.1.4l-7,19.3a19,19,0,0,0,9.4,23.6,18.75,18.75,0,0,0,24.9-8.9,11.11,11.11,0,0,0,.7-1.6l5.3-14.6a4.93,4.93,0,0,1,6.4-3,5.07,5.07,0,0,1,1.6.9,47.59,47.59,0,0,1,8.5,9.4,6.94,6.94,0,0,0,8.6,2.6l5.7-2.4a7,7,0,0,0,3.7-9.2A2.17,2.17,0,0,1,917.7,366Zm-170.5,1.8c-14.4,20.5-30.4,31.2-41,27.4l-.5-.2c-1.8-.8-6.3-3-8.2-7.5-1.6-4-1-9.3,1.8-15.7a46.66,46.66,0,0,1,26-24.5,147.79,147.79,0,0,1,30.7-8.1,5.06,5.06,0,0,1,5.8,4.1,4.88,4.88,0,0,1-.7,3.5c-4.3,7-9,14.1-13.9,21Z"/><path class="s-border" d="M747.6,225.29a5.11,5.11,0,0,1,4.7,3.2c2.2,5.7,4.5,8.8,6.8,9.2a6.08,6.08,0,0,0,1.9.1,46.73,46.73,0,0,0,9.1-1.5l1-.2a56.1,56.1,0,0,1,12.3-1.7,27.33,27.33,0,0,1,9,1.4c11.2,3.6,19.4,15.2,20.3,28.7,1,15.3-4.6,31.8-10.7,46a5.07,5.07,0,0,0,2.6,6.6,7.49,7.49,0,0,0,1.6.4,267,267,0,0,1,43.4,7c1.6.4,3.3.8,4.9,1.3a6.75,6.75,0,0,0,1.4.2,5,5,0,0,0,4.7-3.3l2.5-6.9a18.69,18.69,0,0,1,17.6-12.3,18.36,18.36,0,0,1,8,1.8,19,19,0,0,1,9.4,23.6l-3.7,10.3a4.94,4.94,0,0,0,1.9,5.8c8.7,6,16.3,13.1,21.4,21.3a7,7,0,0,1-2.3,9.6c-.3.2-.6.3-.9.5l-5.7,2.4a5,5,0,0,1-2.7.5,7,7,0,0,1-5.9-3.2,47.59,47.59,0,0,0-8.5-9.4,5,5,0,0,0-8,2.1l-5.3,14.6a18.66,18.66,0,0,1-23.9,11.2,12.2,12.2,0,0,1-1.7-.7,19,19,0,0,1-9.4-23.6l7-19.3a5,5,0,0,0-3-6.4.6.6,0,0,0-.4-.1l-2.2-.6a235,235,0,0,0-52.1-7h-.1a5,5,0,0,0-4.4,2.7,389.94,389.94,0,0,1-24.6,40c-16.7,23.8-35.7,36.7-53,36.7a33.06,33.06,0,0,1-11.2-2c-.5-.2-.9-.3-1.4-.5-5.2-2.1-14.6-7.4-19.1-18.5-3.7-9.2-3-19.7,2-31.2a66.38,66.38,0,0,1,37-35.1c17.2-6.6,36.8-10.5,57.5-11.7l2.1-1.4c6.4-13.7,16.1-34.4,15-49.8-.3-5.1-3.1-9.8-6.4-10.9h-.2a9.25,9.25,0,0,0-2.9-.4,35.12,35.12,0,0,0-7.8,1.2l-1,.2a56.58,56.58,0,0,1-13.6,2,32.87,32.87,0,0,1-5.4-.5,24.76,24.76,0,0,1-3.9-1c-10.4-3.7-15.6-14-18.3-21.2a5,5,0,0,1,2.9-6.4c.1,0,.1-.1.2-.1l9.6-3.1a3.21,3.21,0,0,1,1.9-.6M710.7,396c10.3,0,24-10.4,36.5-28.2,4.9-7,9.5-14.1,13.8-21.2a5.11,5.11,0,0,0-1.6-6.9,4.84,4.84,0,0,0-2.6-.7,2,2,0,0,0-.8.1,154.54,154.54,0,0,0-30.7,8.2,46.66,46.66,0,0,0-26,24.5c-2.8,6.4-3.4,11.7-1.8,15.7,1.8,4.5,6.3,6.8,8.2,7.5l.5.2a11.24,11.24,0,0,0,4.5.8m36.9-175.7a9.93,9.93,0,0,0-3,.5l-9.5,3.1a10.07,10.07,0,0,0-6.5,12.6c0,.1.1.3.1.4,4.8,12.6,12,20.8,21.3,24.1a26.17,26.17,0,0,0,4.8,1.3,32.42,32.42,0,0,0,6.2.5,66,66,0,0,0,14.7-2.1l1-.2a30.13,30.13,0,0,1,6.7-1,5.7,5.7,0,0,1,1.3.1c.9.3,2.8,3,3.1,6.6.9,13.7-7.8,32.8-13.9,46-21,1.3-40.4,5.3-57.6,11.9a71.34,71.34,0,0,0-39.8,37.8c-5.6,12.8-6.3,24.6-2,35.1,5.2,12.9,15.9,18.9,21.8,21.3.5.2,1,.4,1.6.6a37.47,37.47,0,0,0,12.8,2.2c19.2,0,39.5-13.8,57-38.8a373.91,373.91,0,0,0,24.9-40.6h0a231.07,231.07,0,0,1,51,6.9,16,16,0,0,0,2.1.5h0l-7,19.3c-4.2,11.6,1.1,24.7,12,29.8a23.64,23.64,0,0,0,32.4-13.3l5.3-14.6a47.15,47.15,0,0,1,7.7,8.4,12,12,0,0,0,10.1,5.4,11.79,11.79,0,0,0,4.6-.9l5.7-2.4a12.33,12.33,0,0,0,6.8-7.5,12,12,0,0,0-1.3-9.9c-5.2-8.2-12.9-15.8-22.8-22.7l3.7-10.3c4.2-11.6-1.1-24.7-12-29.8a23.64,23.64,0,0,0-32.4,13.3l-2.5,6.9c-1.8-.5-3.5-1-5.1-1.4a264.33,264.33,0,0,0-44.2-7.1c11.1-25.8,11.6-39.9,11.1-48.3-1-15.5-10.6-28.8-23.7-33.1a34.49,34.49,0,0,0-10.6-1.6,60.85,60.85,0,0,0-13.4,1.8l-1.1.2a43.67,43.67,0,0,1-7.9,1.4h-.7c-.4-.4-1.6-1.8-3.3-6.1a10.17,10.17,0,0,0-9.5-6.3ZM710.7,391a7.39,7.39,0,0,1-2.9-.5c-.1,0-.2-.1-.3-.1-1-.4-4.3-1.9-5.4-4.8-1.1-2.7-.5-6.8,1.7-11.9a41.89,41.89,0,0,1,23.2-21.9,146.3,146.3,0,0,1,29.7-7.9h0c-4.2,7-8.8,14.1-13.7,20.9-11,16-23.7,26.1-32.3,26.2Z"/><path class="s-shadow" d="M647.2,302.09c-14.3-17.2-35.3-25.8-62.3-25.8h-.1c-18.4,0-36.9,4-49.3,7-3.8.9-7.8,2-12,3.1-14.4,3.8-32.3,8.6-47.5,8.6-8.9,0-16-1.6-21.2-4.8a10.59,10.59,0,0,0-13.7,2.1l-5.6,6.4a10.76,10.76,0,0,0,.9,15.2c.4.3.7.6,1.1.9,10.4,7,22.9,10.3,38.4,10.3,19.1,0,39.1-5.3,55.2-9.6,4-1.1,7.9-2.1,11.4-3,10.8-2.6,26.9-6.1,41.9-6.1,18.2,0,31.2,4.9,39.6,15.1,9.5,11.4,11.7,26.8,5.8,41.2-9,22.2-33.7,37.4-65.9,40.8h0L532.8,405a10,10,0,0,0-9.5,10.5h0l.5,10a10.07,10.07,0,0,0,10,9.5h.5l31.6-1.5h.7c43.7-4.4,77.8-26.6,91.1-59.3C667.9,349,664,322.09,647.2,302.09Z"/><path class="s-main" d="M520.3,409.49l-.5-10a5,5,0,0,1,4.8-5.2l31.1-1.5h.4c34.1-3.6,60.3-19.9,70-43.9,6.6-16.2,4.1-33.5-6.6-46.3C600,279.39,563,284.69,533,292c-3.5.9-7.4,1.9-11.5,3-27.3,7.3-64.1,17-89.6-.1a5.79,5.79,0,0,1-1.5-8.1c.1-.2.3-.4.4-.6l5.6-6.4a5.81,5.81,0,0,1,7.4-1.1c18.3,11.3,49.4,3,72.5-3.1,4.2-1.1,8.2-2.2,11.9-3.1,35.7-8.6,80-14.5,106.6,17.2,15.6,18.6,19.2,43.5,9.8,66.7-12.6,31-45.1,52-87,56.3h-.5l-31.6,1.5A4.93,4.93,0,0,1,520.3,409.49Z"/><path class="s-border" d="M576.4,265.79c22,0,43.2,5.8,58.5,24.1,15.6,18.6,19.2,43.5,9.8,66.7-12.6,31-45.1,52-87,56.3h-.5l-31.6,1.5h-.3a5,5,0,0,1-5-4.8l-.5-10a5,5,0,0,1,4.8-5.2l31.1-1.5h.4c34.1-3.6,60.3-19.9,70-43.9,6.6-16.2,4.1-33.5-6.6-46.3s-26.5-16.9-43.5-16.9c-14.3,0-29.4,2.9-43.1,6.2-3.5.9-7.4,1.9-11.5,3-16.1,4.3-35.5,9.4-54,9.4-12.8,0-25.2-2.5-35.6-9.5a5.79,5.79,0,0,1-1.5-8.1c.1-.2.3-.4.4-.6l5.6-6.4a5.81,5.81,0,0,1,7.4-1.1c6.6,4.1,14.9,5.6,23.8,5.6,15.9,0,33.9-4.8,48.7-8.7,4.2-1.1,8.2-2.2,11.9-3.1,15.2-3.6,31.9-6.7,48.3-6.7m-.1-5h0c-18.4,0-36.9,4-49.3,7-3.8.9-7.8,2-12,3.1-14.4,3.8-32.3,8.6-47.5,8.6-8.9,0-16-1.6-21.2-4.9a10.59,10.59,0,0,0-13.7,2.1l-5.5,6.4a10.76,10.76,0,0,0,.9,15.2c.4.3.7.6,1.1.9,10.4,7,22.9,10.3,38.4,10.3,19.1,0,39.1-5.3,55.2-9.6,4-1.1,7.9-2.1,11.4-3,10.8-2.6,26.9-6.1,41.9-6.1,18.2,0,31.2,4.9,39.6,15.1,9.5,11.4,11.7,26.8,5.8,41.2-9,22.2-33.7,37.4-65.9,40.8h-.1l-31.1,1.5a10,10,0,0,0-9.5,10.5h0l.5,10a10.07,10.07,0,0,0,10,9.5h.5l31.6-1.5h.7c43.7-4.4,77.8-26.6,91.1-59.3,10.1-24.9,6.2-51.7-10.6-71.8-14.3-17.2-35.3-25.9-62.3-25.9Z"/><path class="s-shadow" d="M364.7,195.29H239.2c.7-1.9,1.5-3.8,2.2-5.6,10.2-24.8,29.7-33.1,37.6-35.5a10,10,0,0,0,6.9-11.2l-.9-5.3-.7-4.5a10.08,10.08,0,0,0-9.9-8.4h0a9,9,0,0,0-2.8.4c-12.3,3.6-42.6,15.9-58,53.2-2.2,5.4-4.3,10.9-6.3,17H189.6a33.61,33.61,0,0,0-.6,67.2c-2.5,9.5-4.6,17.2-6.8,24-1.2,3.9-2.5,8-3.7,12l-.1.3c-11,36.6-22.4,74.4-55.1,89a69.65,69.65,0,0,1-28.8,6.5c-13.1,0-25-4.2-32.7-11.6a9.27,9.27,0,0,0-6.9-2.7,10,10,0,0,0-6.4,2.3l-7.7,6.3a10.19,10.19,0,0,0-3.7,7.2,9.93,9.93,0,0,0,2.8,7.5C53.2,416.59,72.4,424,94.3,424a103.24,103.24,0,0,0,41.4-8.8c21-9.4,37.4-25.6,49.9-49.4v27.8a24.15,24.15,0,0,0,21.4,24,17.7,17.7,0,0,0,2.3.1A23.69,23.69,0,0,0,233,394h0v-57.9c0-12.4-9.5-22.9-21.5-24-.4,0-.7-.1-1.1-.1a3.42,3.42,0,0,1-2.6-1.4,3.58,3.58,0,0,1-.5-3v-.2c1.2-3.9,2.4-8,3.7-12,3.5-11.3,6.6-23,9.1-33H364.8a33.55,33.55,0,0,0-.1-67.1Z"/><path class="s-main" d="M356.2,184.79H230.7a5,5,0,0,1-5-5,5.66,5.66,0,0,1,.3-1.8c.7-1.9,1.5-3.8,2.3-5.7,10.9-26.6,31.8-35.7,40.7-38.4a4.83,4.83,0,0,0,3.4-5.6l-.9-5.3-.7-4.6a4.91,4.91,0,0,0-5.7-4.1c-.2,0-.4.1-.6.1-11.9,3.4-40.2,15.1-54.7,50.3-2.3,5.5-4.3,11.1-6.2,16.7a5.08,5.08,0,0,1-4.8,3.4H181.1a28.59,28.59,0,0,0-28.6,28.6h0A28.66,28.66,0,0,0,181.1,242h0a4.59,4.59,0,0,1,4.6,4.6,3.75,3.75,0,0,1-.1,1.1c-2.2,8.4-4.4,16.7-7,24.8-1.3,4-2.5,8.1-3.7,12.2-11.4,37.6-23.1,76.6-57.9,92.1-27.8,12.4-53.7,6.6-66.9-6.1a5.16,5.16,0,0,0-6.7-.2l-7.8,6.3a4.94,4.94,0,0,0-.7,7l.3.3c13.2,13.5,31.8,19.3,50.6,19.3a97.15,97.15,0,0,0,39.4-8.4c22.6-10.1,37.1-27.3,47.5-47.2a5,5,0,0,1,9.4,2.3V378a19,19,0,0,0,16.8,19,18.72,18.72,0,0,0,20.4-16.8,10.28,10.28,0,0,0,.1-1.7v-57.9a18.92,18.92,0,0,0-17-19l-.9-.1a8.49,8.49,0,0,1-8-8.9,6.47,6.47,0,0,1,.4-2l.1-.1c1.2-4.1,2.4-8.1,3.7-12,3.4-10.8,6.3-21.8,9-32.7a5.13,5.13,0,0,1,4.9-3.8H356.3a28.66,28.66,0,0,0,28.6-28.6h0A28.74,28.74,0,0,0,356.2,184.79Z"/><path class="s-border" d="M265.9,114.09a5,5,0,0,1,4.9,4.2l.7,4.6.9,5.3a5,5,0,0,1-3.4,5.6c-8.9,2.7-29.8,11.8-40.7,38.4-.8,1.9-1.5,3.8-2.3,5.7a5,5,0,0,0,2.9,6.5,5.66,5.66,0,0,0,1.8.3H356.2a28.66,28.66,0,0,1,28.6,28.6h0a28.59,28.59,0,0,1-28.6,28.6H211.5a5.13,5.13,0,0,0-4.9,3.8c-2.8,10.9-5.7,22-9,32.7-1.2,3.9-2.4,8-3.7,12l-.1.1a8.41,8.41,0,0,0,5.6,10.5,14.16,14.16,0,0,0,2,.4l.9.1a18.92,18.92,0,0,1,17,19v57.9a18.8,18.8,0,0,1-18.7,18.7,10.87,10.87,0,0,1-1.8-.1A19,19,0,0,1,182,378v-27.9a5,5,0,0,0-5-5h-.1a4.73,4.73,0,0,0-4.3,2.7c-10.4,19.9-24.9,37.1-47.5,47.2a98.84,98.84,0,0,1-39.4,8.4h0c-18.8,0-37.4-5.7-50.6-19.3a5.13,5.13,0,0,1,.1-7.1l.3-.3,7.8-6.3a5.39,5.39,0,0,1,3.2-1.1,5.07,5.07,0,0,1,3.3,1.3c8.1,7.8,21,13,36.1,13a76.52,76.52,0,0,0,30.9-6.9c34.8-15.5,46.5-54.5,57.9-92.1,1.3-4.1,2.5-8.2,3.7-12.2,2.5-8.1,4.8-16.5,7-24.8a4.65,4.65,0,0,0-3.3-5.6,4.48,4.48,0,0,0-1.1-.1,28.59,28.59,0,0,1-28.6-28.6h0a28.59,28.59,0,0,1,28.6-28.6h17.7a5.08,5.08,0,0,0,4.8-3.4c1.9-5.6,4-11.2,6.2-16.7,14.5-35.2,42.8-46.8,54.7-50.3a10.4,10.4,0,0,1,1.5-.2m.1-5h0a9,9,0,0,0-2.8.4c-12.3,3.6-42.6,15.9-58,53.2-2.2,5.4-4.3,10.9-6.3,17H181.2a33.61,33.61,0,0,0-.6,67.2c-2.5,9.5-4.6,17.2-6.8,24-1.2,3.9-2.5,8-3.7,12l-.1.3c-11,36.6-22.4,74.4-55.1,89a69.65,69.65,0,0,1-28.8,6.5c-13.1,0-25-4.2-32.7-11.6a9.27,9.27,0,0,0-6.9-2.7,10,10,0,0,0-6.4,2.3l-7.8,6.4a10.19,10.19,0,0,0-3.7,7.2,9.93,9.93,0,0,0,2.8,7.5c13.1,13.4,32.3,20.8,54.2,20.8a103.24,103.24,0,0,0,41.4-8.8c21-9.4,37.4-25.6,49.9-49.4v27.8a24.15,24.15,0,0,0,21.4,24,18.48,18.48,0,0,0,2.3.1,23.69,23.69,0,0,0,23.7-23.7v-57.9a24,24,0,0,0-21.5-24c-.4,0-.7-.1-1.1-.1a3.42,3.42,0,0,1-2.6-1.4,3.58,3.58,0,0,1-.5-3l.1-.1c1.2-3.9,2.4-8,3.7-12,3.5-11.3,6.6-23,9.1-33H356.2a33.61,33.61,0,0,0,0-67.2H230.7c.7-1.9,1.5-3.8,2.2-5.6,10.2-24.8,29.7-33.1,37.6-35.5a10,10,0,0,0,6.9-11.2l-.9-5.3-.7-4.5a10.15,10.15,0,0,0-9.8-8.7Z"/><path class="s-shadow" d="M446.3,365.69a1.27,1.27,0,0,0-.6-.1l-9.8-2a10,10,0,0,0-11.7,7.1c-4.4,16.3-14.5,29.6-28.3,37.5a64.1,64.1,0,0,1-32.3,8.4,72.93,72.93,0,0,1-22.7-3.7,39.94,39.94,0,0,1-26.8-31.4c-1.7-10.4-1.9-22.3-1.8-31.5h44.9a25,25,0,0,0,16.5-6.2,23.88,23.88,0,0,0,8.1-15.7,24.26,24.26,0,0,0-21.9-26.5,17.7,17.7,0,0,0-2.3-.1H312c-1.5-17.3-6-29-14.2-36.7A9.7,9.7,0,0,0,291,262a9.86,9.86,0,0,0-8.5,4.8l-3.6,5.9-1.8,3a9.77,9.77,0,0,0,.7,11.4c1.4,1.8,3.4,5.9,4.4,15.4l-.1.1a24.23,24.23,0,0,0,.4,46.6c-.1,11.3.1,24.6,2.2,37.3a70,70,0,0,0,46.9,55,103.47,103.47,0,0,0,32.2,5.3,94.43,94.43,0,0,0,47.3-12.4c21-12.1,36-32,42.5-56.2A10.5,10.5,0,0,0,446.3,365.69Z"/><path class="s-main" d="M436.3,355l-9.8-2a5,5,0,0,0-5.8,3.5c-4.8,17.6-15.5,31.9-30.6,40.6-17.3,10-38.9,11.8-59.1,5.1a44.83,44.83,0,0,1-30.2-35.3c-1.6-9.9-1.9-21.1-1.9-32.4a5,5,0,0,1,5-5h44.9A19.29,19.29,0,0,0,351,291a10.87,10.87,0,0,0-1.8-.1H303.6a4.91,4.91,0,0,1-4.9-4.5c-1.3-14-4.6-25.9-12.7-33.5a5,5,0,0,0-7.1.2c-.2.3-.5.5-.6.8l-5.4,8.9a4.81,4.81,0,0,0,.3,5.6c3,3.7,4.6,10.2,5.5,18a4.9,4.9,0,0,1-3.7,5.3,19.23,19.23,0,0,0-13,23.9,19,19,0,0,0,13.4,13.1,5,5,0,0,1,3.7,4.8c-.1,12.4.2,24.9,2.1,36.5a64.78,64.78,0,0,0,43.6,51,96.64,96.64,0,0,0,30.6,5,89.32,89.32,0,0,0,44.8-11.8c19.9-11.5,34-30.2,40.1-53.2a5,5,0,0,0-3.6-6.1A1.58,1.58,0,0,1,436.3,355Z"/><path class="s-border" d="M282.5,251.49a4.76,4.76,0,0,1,3.4,1.4c8.1,7.7,11.5,19.6,12.7,33.5a4.9,4.9,0,0,0,4.9,4.5h45.6a19.19,19.19,0,0,1,19.2,19.4,10.87,10.87,0,0,1-.1,1.8,19.62,19.62,0,0,1-19.6,17.4H303.7a5,5,0,0,0-5,5c-.1,11.3.2,22.5,1.9,32.4a44.66,44.66,0,0,0,30.2,35.3,76.88,76.88,0,0,0,24.3,4,69.57,69.57,0,0,0,34.8-9.1c15.1-8.7,25.9-23,30.6-40.6a4.92,4.92,0,0,1,4.8-3.6,3.4,3.4,0,0,1,1,.1l9.8,2a5.07,5.07,0,0,1,3.9,5.9.37.37,0,0,1-.1.3c-6.1,23-20.2,41.7-40.1,53.2a90.08,90.08,0,0,1-44.8,11.8,96.64,96.64,0,0,1-30.6-5,64.78,64.78,0,0,1-43.6-51c-1.9-11.6-2.2-24.1-2.1-36.5a4.92,4.92,0,0,0-3.7-4.8,19.23,19.23,0,0,1-.4-37,5.07,5.07,0,0,0,3.7-5.3c-.8-7.8-2.4-14.3-5.5-18a4.81,4.81,0,0,1-.3-5.6l5.4-8.9a5.57,5.57,0,0,1,4.6-2.6m0-4.9a10,10,0,0,0-8.5,4.7l-3.6,5.9-1.8,3a9.77,9.77,0,0,0,.7,11.4c1.4,1.8,3.4,5.9,4.4,15.4l-.1.1a24.23,24.23,0,0,0,.4,46.6h0c-.1,11.3.1,24.6,2.2,37.3a70,70,0,0,0,46.9,55,103.47,103.47,0,0,0,32.2,5.3,94.43,94.43,0,0,0,47.3-12.4c21-12.1,36-32,42.5-56.2a10.11,10.11,0,0,0-7-12.3,1.27,1.27,0,0,0-.6-.1l-9.8-2a10,10,0,0,0-11.7,7.1c-4.4,16.3-14.5,29.6-28.3,37.5a64.1,64.1,0,0,1-32.3,8.4,72.93,72.93,0,0,1-22.7-3.7,39.94,39.94,0,0,1-26.8-31.4c-1.7-10.4-1.9-22.3-1.8-31.5H349a25,25,0,0,0,16.5-6.2,23.88,23.88,0,0,0,8.1-15.7,24.35,24.35,0,0,0-21.8-26.6,18.48,18.48,0,0,0-2.3-.1H303.9c-1.5-17.3-6-29-14.2-36.7a10.92,10.92,0,0,0-7.2-2.8Z"/><path class="s-shadow" d="M439.2,157.79a25.64,25.64,0,0,0-24-16.6,26.23,26.23,0,0,0-12,2.9H403a25.93,25.93,0,0,0-24.3-16.9h.1a25.66,25.66,0,0,0-23.7,35.3,22.22,22.22,0,0,0,2.9,5.2,25.9,25.9,0,0,0-17.4,19.6,25.27,25.27,0,0,0,5.3,21,25.92,25.92,0,0,0,20,9.5,24.75,24.75,0,0,0,11.3-2.7l.3-.2.3-.2a1.78,1.78,0,0,1,1-.4c0,.1.1.1.1.2l.1.2.1.2a25.67,25.67,0,0,0,33.3,14.3,26.2,26.2,0,0,0,12-9.8,25.51,25.51,0,0,0,2.4-23.8,22.31,22.31,0,0,0-2.6-4.8h.1A25.6,25.6,0,0,0,439.2,157.79Z"/><path class="s-main" d="M414.9,181.89a24.19,24.19,0,0,0-2.1-3.9,5,5,0,0,1,1.4-6.9,3.7,3.7,0,0,1,1.1-.5,18.58,18.58,0,0,0,5.3-3c11-8.1,10.7-25.7-.9-33.4a20.62,20.62,0,0,0-21.4-1.3,5,5,0,0,1-6.8-1.9l-.3-.6c-5.4-15.3-26.2-18.7-36.1-5.5a20.6,20.6,0,0,0-2.6,20.3,18.11,18.11,0,0,0,2.3,4.1,5.07,5.07,0,0,1-1.1,7,6.11,6.11,0,0,1-1.4.7,20.67,20.67,0,0,0-14,15.9c-3.2,16.9,14.6,29.9,29.5,22.4,3.2-2.3,7.4-1.6,8.6,2.3a20.72,20.72,0,0,0,14,12.4C407.1,214.09,421.4,197.19,414.9,181.89Z"/><path class="s-border" d="M371.6,116.49a20.72,20.72,0,0,1,19.7,13.7,5,5,0,0,0,4.6,3.2,5.42,5.42,0,0,0,2.5-.6,23.15,23.15,0,0,1,9.7-2.4,20.55,20.55,0,0,1,11.7,3.7c11.6,7.7,11.8,25.3.9,33.4a18.58,18.58,0,0,1-5.3,3,5.06,5.06,0,0,0-3.1,6.4,3.7,3.7,0,0,0,.5,1.1,14.71,14.71,0,0,1,2.1,3.9c5.7,13.7-4.9,28.6-19.1,28.6a20.85,20.85,0,0,1-19.3-13.1,4.73,4.73,0,0,0-4.8-3.6,7,7,0,0,0-3.9,1.3,20.26,20.26,0,0,1-9,2.2c-12.1,0-23-11.1-20.5-24.6a20.67,20.67,0,0,1,14-15.9,5,5,0,0,0,3.2-6.3,6.11,6.11,0,0,0-.7-1.4,23.78,23.78,0,0,1-2.3-4.1,20.63,20.63,0,0,1,19.1-28.5m0-5h0a25.56,25.56,0,0,0-23.6,35.3,22.22,22.22,0,0,0,2.9,5.2h0a25.9,25.9,0,0,0-17.4,19.6,25,25,0,0,0,5.4,21,25.92,25.92,0,0,0,20,9.5,24.75,24.75,0,0,0,11.3-2.7l.3-.2.3-.2a1.78,1.78,0,0,1,1-.4l.1.2.1.2.1.2a26,26,0,0,0,17.3,15.3,25,25,0,0,0,6.6.9A25.79,25.79,0,0,0,419.7,180a27.3,27.3,0,0,0-2.5-4.8h.1a25.67,25.67,0,0,0-9-49.7,26.23,26.23,0,0,0-12,2.9.31.31,0,0,0-.2.1,26.24,26.24,0,0,0-24.5-17Z"/></g></g></svg>