<svg xmlns="http://www.w3.org/2000/svg" width="247.91" height="108.915" viewBox="0 0 247.91 108.915">
  <defs>
    <style>
      .cls-1, .cls-2, .cls-3 {
        fill: #c3cdad;
      }

      .cls-3 {
        fill-rule: evenodd;
      }

      .cls-4, .cls-5 {
        stroke: none;
      }

      .cls-5 {
        fill: #fff;
      }
    </style>
  </defs>
  <g id="アイコン" transform="translate(-109.907 -1151.095)">
    <path id="iconmonstr-shop-1" class="cls-1" d="M36.195,0l-3.42,18.1v4a7.288,7.288,0,0,1-14.567,0V18.1L29.119,0h7.076ZM25.08,0,14.567,18.1v4A7.288,7.288,0,0,1,0,22.1V18.1L17.749,0H25.08ZM87.4,22.1a7.251,7.251,0,0,1-7.283,7.036,7.466,7.466,0,0,1-7.283-7.283v-4L62.32,0h7.334L87.4,18.1ZM50.983,17.844v4a7.283,7.283,0,1,1-14.567.007v-4L40.23,0h6.937l3.816,17.844ZM58.281,0l10.9,18.216v4a7.141,7.141,0,0,1-7.272,6.919,7.466,7.466,0,0,1-7.283-7.283v-4L51.205,0ZM3.642,36.417V87.4H40.058V80.117H10.925V43.7h65.55V87.4h7.283V36.417Zm65.55,14.567H47.342V87.4h21.85Z" transform="translate(195 1160)"/>
    <g id="iconmonstr-cut-1" class="cls-2" transform="translate(115.273 1182.926) rotate(-17)">
      <path class="cls-4" d="M 15.96864032745361 76.57703399658203 C 10.9502124786377 76.57703399658203 6.291111946105957 74.77706146240234 2.849569320678711 71.50872039794922 C -0.6001592874526978 68.23257446289063 -2.500002145767212 63.81576156616211 -2.500002145767212 59.0718879699707 C -2.500002145767212 55.49507522583008 -1.414416432380676 51.92644500732422 0.6393978595733643 48.75180435180664 C 2.70686936378479 45.55604553222656 5.653483390808105 42.93196105957031 9.160697937011719 41.16324615478516 C 12.85706901550293 39.29568862915039 16.05485534667969 39.09710311889648 18.87619781494141 38.92189025878906 C 20.24683380126953 38.83676910400391 21.52005004882813 38.75768280029297 22.80856895446777 38.51330947875977 C 21.58438873291016 38.29932022094727 20.36945724487305 38.22698593139648 19.0662841796875 38.14938735961914 C 16.24391174316406 37.98133087158203 13.04495525360107 37.79085922241211 9.342226028442383 35.9315299987793 C 5.827183723449707 34.16644668579102 2.872854948043823 31.54367446899414 0.7986407279968262 28.34675979614258 C -1.263773560523987 25.16804504394531 -2.35391640663147 21.59333038330078 -2.35391640663147 18.00910186767578 C -2.35391640663147 13.26783084869385 -0.457030713558197 8.852374076843262 2.987297773361206 5.576117038726807 C 6.428597927093506 2.302731275558472 11.09208393096924 0.5000027418136597 16.1186695098877 0.5000027418136597 C 19.25024032592773 0.5000027418136597 22.42884063720703 1.230931282043457 25.31084060668945 2.613774061203003 C 33.92648315429688 6.753359794616699 38.66108322143555 16.00040245056152 36.56985473632813 24.60177421569824 C 36.46789932250977 25.02113151550293 36.25783920288086 26.03038787841797 36.50872802734375 26.34447479248047 C 36.817626953125 26.73118782043457 37.85416793823242 27.21578788757324 38.85658264160156 27.68441772460938 C 39.14628219604492 27.81986045837402 39.44583892822266 27.95990180969238 39.76169967651367 28.11188888549805 L 42.56291198730469 29.45989608764648 C 53.53175735473633 24.14043807983398 65.67840576171875 18.27148818969727 73.03047180175781 14.71916007995605 C 75.96463775634766 13.30146026611328 78.21175384521484 12.21570301055908 79.44084167480469 11.62067413330078 C 80.88834381103516 10.92044544219971 82.41458129882813 10.56557369232178 83.97785186767578 10.56557369232178 C 85.68519592285156 10.56557369232178 87.43170166015625 10.98905944824219 89.16883850097656 11.8242883682251 C 90.47750854492188 12.4535026550293 91.78563690185547 13.31883144378662 93.05685424804688 14.39620304107666 C 95.16998291015625 16.18713188171387 96.49622344970703 17.99131774902344 96.55164337158203 18.06723213195801 L 98.31779479980469 20.48677444458008 L 95.62132263183594 21.79157447814941 L 61.28057098388672 38.40893936157227 L 95.85546875 55.08667373657227 L 98.54946899414063 56.38617324829102 L 96.79259490966797 58.80684661865234 C 96.73725128173828 58.88310241699219 95.41299438476563 60.69493103027344 93.30056762695313 62.49358749389648 C 92.02957153320313 63.57578659057617 90.72112274169922 64.44501495361328 89.41155242919922 65.07710266113281 C 87.67301940917969 65.91625213623047 85.92402648925781 66.34177398681641 84.21361541748047 66.34177398681641 C 84.21350860595703 66.34177398681641 84.21363067626953 66.34177398681641 84.21352386474609 66.34177398681641 C 82.65882873535156 66.34174346923828 81.13998413085938 65.99028778076172 79.69917297363281 65.29717254638672 C 78.07271575927734 64.51547241210938 74.28977203369141 62.69058990478516 69.50039672851563 60.38020324707031 C 63.02389907836914 57.25594711303711 54.1540412902832 52.97714614868164 46.19752502441406 49.14656066894531 L 42.63504028320313 47.43144226074219 L 39.59291076660156 48.90351867675781 C 39.27689743041992 49.05650329589844 38.97688293457031 49.19760131835938 38.68674087524414 49.33406066894531 C 37.68614196777344 49.80464553833008 36.65148544311523 50.291259765625 36.34407043457031 50.67820358276367 C 36.0942268371582 50.9926872253418 36.30717086791992 52.00200271606445 36.41031265258789 52.42134475708008 C 38.51987075805664 61.01255798339844 33.80871200561523 70.27048492431641 25.20845413208008 74.43561553955078 C 22.31611251831055 75.83653259277344 19.12099838256836 76.57703399658203 15.96861171722412 76.57703399658203 L 15.96864032745361 76.57703399658203 Z M 18.47906875610352 51.85118865966797 C 17.23582649230957 51.85118865966797 15.95372676849365 52.15363311767578 14.77136898040771 52.72584533691406 C 12.97832679748535 53.59357452392578 11.58368396759033 54.97687530517578 10.84431171417236 56.62091827392578 C 10.17231178283691 58.11514663696289 10.14015483856201 59.63930130004883 10.75374031066895 60.91261672973633 C 11.58878326416016 62.65076065063477 13.57054042816162 63.72885894775391 15.92688369750977 63.72885894775391 C 17.16838264465332 63.72885894775391 18.44885444641113 63.42676162719727 19.6298828125 62.85520172119141 C 21.42331123352051 61.98874664306641 22.81761169433594 60.60604476928711 23.55743980407715 58.9610595703125 C 24.23035430908203 57.46485900878906 24.26329803466797 55.93801879882813 23.65016937255859 54.66181564331055 C 22.81726837158203 52.92816162109375 20.83581161499023 51.85118865966797 18.47906875610352 51.85118865966797 Z M 43.40433883666992 37.32671737670898 C 43.14984130859375 37.32671737670898 42.94279861450195 37.53376007080078 42.94279861450195 37.78826141357422 C 42.94279861450195 38.04275894165039 43.14984130859375 38.24980163574219 43.40433883666992 38.24980163574219 C 43.65884017944336 38.24980163574219 43.86588287353516 38.04275894165039 43.86588287353516 37.78826141357422 C 43.86588287353516 37.53376007080078 43.65884017944336 37.32671737670898 43.40433883666992 37.32671737670898 Z M 16.07536888122559 13.34457397460938 C 13.70898342132568 13.34457397460938 11.72092628479004 14.42721652984619 10.88705539703369 16.17003059387207 C 10.27876949310303 17.4451732635498 10.31585502624512 18.9721736907959 10.99274063110352 20.46711730957031 C 11.73699760437012 22.11088752746582 13.13518333435059 23.49040222167969 14.92974090576172 24.3515453338623 C 16.10821151733398 24.91848754882813 17.3831844329834 25.21758842468262 18.61905479431152 25.21758842468262 C 20.98328399658203 25.21758842468262 22.96944046020508 24.13607406616211 23.80244064331055 22.39510345458984 C 24.41101264953613 21.1193733215332 24.37445449829102 19.5918025970459 23.69824028015137 18.09641647338867 C 22.95472717285156 16.45220184326172 21.55688285827637 15.07158851623535 19.76219749450684 14.20890235900879 C 18.58586883544922 13.64346027374268 17.31098365783691 13.34457397460938 16.07536888122559 13.34457397460938 Z"/>
      <path class="cls-5" d="M 15.96863842010498 74.07703399658203 C 15.96863842010498 74.07703399658203 15.96863842010498 74.07703399658203 15.96862125396729 74.07703399658203 L 15.96863842010498 74.07703399658203 M 15.96863842010498 74.07703399658203 C 18.67743873596191 74.07703399658203 21.46918869018555 73.46893310546875 24.11877250671387 72.18560028076172 C 31.7911376953125 68.4698486328125 35.77935409545898 60.33546829223633 33.98268890380859 53.01848220825195 C 32.95600509643555 48.84468460083008 35.15150451660156 48.27606582641602 38.50397109985352 46.65314865112305 L 94.53238677978516 19.54120063781738 C 94.53238677978516 19.54120063781738 89.80547332763672 13.0655632019043 83.97785949707031 13.0655632019043 C 82.86048889160156 13.0655632019043 81.70299530029297 13.30350780487061 80.53022003173828 13.87083339691162 C 76.0523681640625 16.03868293762207 58.06593704223633 24.71798324584961 42.56720352172852 32.23635101318359 L 38.67770385742188 30.36465072631836 C 35.3212890625 28.7496337890625 33.12580490112305 28.18496704101563 34.14062118530273 24.01116752624512 C 35.92150497436523 16.68628311157227 31.91355514526367 8.559800148010254 24.22933769226074 4.86775016784668 C 21.58763885498047 3.600200414657593 18.80775451660156 3.000000238418579 16.11867141723633 3.000000238418579 C 6.993171691894531 3.000000238418579 0.1460883319377899 9.697033882141113 0.1460883319377899 18.00909996032715 C 0.1460883319377899 24.25598335266113 4.039538383483887 30.47126770019531 10.46410465240479 33.69738388061523 C 16.88077163696289 36.91953277587891 21.38232231140137 34.40814971923828 27.7595043182373 37.50790023803711 L 29.74967193603516 38.47533416748047 L 27.56997108459473 39.54150009155273 C 21.2006721496582 42.65703201293945 16.69518852233887 40.1574821472168 10.28642177581787 43.39545059204102 C 3.87370491027832 46.62945175170898 4.998779331799597e-06 52.84080123901367 4.998779331799597e-06 59.07188415527344 C 4.998779331799597e-06 67.39578247070313 6.866838455200195 74.07703399658203 15.96862125396729 74.07703399658203 M 18.47906494140625 49.35117721557617 C 21.69890213012695 49.35117721557617 24.60107040405273 50.86804580688477 25.90360450744629 53.57921600341797 C 27.84242248535156 57.61479949951172 25.51662254333496 62.78763198852539 20.71892166137695 65.10553741455078 C 19.14556121826172 65.86696624755859 17.4981746673584 66.22886657714844 15.92688941955566 66.22886657714844 C 12.70682334899902 66.22886657714844 9.804585456848145 64.71004486083984 8.501587867736816 61.99788284301758 C 6.558804988861084 57.96623229980469 8.884621620178223 52.7973518371582 13.68230533599854 50.47551727294922 C 15.25684356689453 49.7135124206543 16.90615081787109 49.35117721557617 18.47906494140625 49.35117721557617 M 43.40433883666992 34.82671737670898 C 45.03910446166992 34.82671737670898 46.36587142944336 36.15349960327148 46.36587142944336 37.78824996948242 C 46.36587142944336 39.42303466796875 45.03910446166992 40.74980163574219 43.40433883666992 40.74980163574219 C 41.76957321166992 40.74980163574219 40.44280624389648 39.42303466796875 40.44280624389648 37.78824996948242 C 40.44280624389648 36.15349960327148 41.76562118530273 34.82671737670898 43.40433883666992 34.82671737670898 M 16.07537078857422 10.84456920623779 C 17.63931083679199 10.84456920623779 19.27784156799316 11.20224285125732 20.84528923034668 11.9556999206543 C 25.65088844299316 14.26571655273438 27.98458862304688 19.43458366394043 26.0576057434082 23.47413444519043 C 24.75695991516113 26.19244956970215 21.84735488891602 27.71759796142578 18.61906814575195 27.71759796142578 C 17.05465507507324 27.71759796142578 15.41549015045166 27.35949325561523 13.84815502166748 26.60546684265137 C 9.04255485534668 24.29941749572754 6.704905033111572 19.13053321838379 8.631888389587402 15.0910005569458 C 9.933005332946777 12.37169933319092 12.84447479248047 10.84456920623779 16.07537078857422 10.84456920623779 M 84.21355438232422 63.84176635742188 C 90.04926300048828 63.84185028076172 94.76930236816406 57.33840179443359 94.76930236816406 57.33840179443359 L 60.17455673217773 40.65108489990234 L 47.28199005126953 46.89401626586914 C 61.00378799438477 53.5002326965332 76.91318511962891 61.18445205688477 80.78293609619141 63.0443000793457 C 81.95030212402344 63.60587310791016 83.10221099853516 63.84175109863281 84.21355438232422 63.84176635742188 M 15.96863842010498 79.07703399658203 C 10.30668830871582 79.07703399658203 5.036171436309814 77.03302001953125 1.128005027770996 73.32150268554688 C -0.8003283143043518 71.49020385742188 -2.312261581420898 69.34040069580078 -3.36577844619751 66.93181610107422 C -4.450161457061768 64.45268249511719 -4.999995231628418 61.80823516845703 -4.999995231628418 59.07188415527344 C -4.999995231628418 55.01216888427734 -3.775761604309082 50.97396850585938 -1.459628343582153 47.39385223388672 C 0.8486883044242859 43.8258171081543 4.131871700286865 40.89941787719727 8.034971237182617 38.93103408813477 C 8.334895133972168 38.77949905395508 8.632170677185059 38.63768005371094 8.926482200622559 38.5049934387207 C 8.692975997924805 38.39778518676758 8.45737361907959 38.28469467163086 8.220337867736816 38.16566848754883 C 4.308738231658936 36.20145034790039 1.017155051231384 33.27664947509766 -1.298594951629639 29.70748329162598 C -3.624495029449463 26.12266731262207 -4.853911876678467 22.07741737365723 -4.853911876678467 18.00909996032715 C -4.853911876678467 15.27596664428711 -4.305445194244385 12.63398361206055 -3.22372841835022 10.15655040740967 C -2.171811580657959 7.747350215911865 -0.661828339099884 5.596817016601563 1.264288306236267 3.764700412750244 C 5.172404766082764 0.04728366434574127 10.44780540466309 -1.999999642372131 16.11867141723633 -1.999999642372131 C 19.62232208251953 -1.999999642372131 23.17488861083984 -1.183982968330383 26.39235496520996 0.3598169982433319 C 28.76518821716309 1.499900341033936 30.90817260742188 2.996716976165771 32.76415634155273 4.809816837310791 C 34.56945419311523 6.573400497436523 36.05778884887695 8.590133666992188 37.18780517578125 10.80401706695557 C 39.47657012939453 15.28804302215576 40.13311386108398 20.32342529296875 39.04351043701172 25.00568008422852 C 39.32955169677734 25.14582061767578 39.64497756958008 25.29328155517578 39.91535568237305 25.4196834564209 C 40.21125411987305 25.55801773071289 40.51723861694336 25.7010669708252 40.84565353393555 25.85910034179688 L 42.55877685546875 26.6834888458252 C 53.23567962646484 21.50696182250977 64.83001708984375 15.90486907958984 71.94022369384766 12.46941661834717 C 74.87487030029297 11.0514669418335 77.12235260009766 9.965550422668457 78.35148620605469 9.3704833984375 C 80.14185333251953 8.50438404083252 82.03438568115234 8.065567016601563 83.97785186767578 8.065567016601563 C 86.06327056884766 8.065567016601563 88.17424011230469 8.572134017944336 90.25212097167969 9.571183204650879 C 91.75237274169922 10.29250049591064 93.23983764648438 11.27420043945313 94.67322540283203 12.48901653289795 C 96.9715576171875 14.43690013885498 98.41400146484375 16.37829971313477 98.57090759277344 16.5932674407959 L 102.1032028198242 21.43233299255371 L 96.71028900146484 24.04195022583008 L 67.02743530273438 38.40537643432617 L 96.94161987304688 52.8349494934082 L 102.3298568725586 55.43405151367188 L 98.81573486328125 60.27548217773438 C 98.6590576171875 60.49131774902344 97.21870422363281 62.44079971313477 94.92111968994141 64.39706420898438 C 93.48780822753906 65.61746978759766 91.99972534179688 66.60373687744141 90.49820709228516 67.32849884033203 C 88.41790771484375 68.33263397216797 86.30348968505859 68.84176635742188 84.21366882324219 68.84176635742188 L 84.21348571777344 68.84176635742188 C 82.28055572509766 68.84173583984375 80.39710235595703 68.40715026855469 78.61542510986328 67.55006408691406 C 76.98778533935547 66.76779937744141 73.20298767089844 64.9420166015625 68.41123962402344 62.63048553466797 C 61.93585586547852 59.50676727294922 53.06753921508789 55.22869873046875 45.11307144165039 51.39910125732422 L 42.63782501220703 50.20742034912109 L 40.6818733215332 51.15390014648438 C 40.35358810424805 51.31281661987305 40.04710388183594 51.45696640014648 39.75070571899414 51.59636688232422 C 39.48156356811523 51.72294235229492 39.16769409179688 51.87055587768555 38.88282775878906 52.01089477539063 C 39.98307037353516 56.69034957885742 39.33816909790039 61.72577667236328 37.06052017211914 66.21485137939453 C 35.93618774414063 68.43080139160156 34.45335388183594 70.45095062255859 32.65317153930664 72.21916961669922 C 30.80258750915527 74.03688049316406 28.66445541381836 75.53963470458984 26.29815483093262 76.68563079833984 C 23.06820487976074 78.25006866455078 19.49623870849609 79.07703399658203 15.96862125396729 79.07703399658203 L 15.96863842010498 79.07703399658203 Z M 18.47907257080078 54.3511848449707 C 17.61077117919922 54.3511848449707 16.70525550842285 54.56729888916016 15.86040496826172 54.97616577148438 C 14.61332130432129 55.5797004699707 13.6160717010498 56.55291748046875 13.12433815002441 57.64631652832031 C 12.9135046005249 58.11513519287109 12.61775493621826 59.02188491821289 13.00588798522949 59.82733535766602 L 13.00717163085938 59.83000183105469 L 13.00843811035156 59.83264923095703 C 13.50302124023438 60.86208343505859 14.84030532836914 61.22886657714844 15.92688846588135 61.22886657714844 C 16.79343795776367 61.22886657714844 17.69732093811035 61.01309967041016 18.54082107543945 60.60488510131836 C 19.78913879394531 60.00178527832031 20.78548812866211 59.02939987182617 21.27742195129395 57.93561553955078 C 21.48907089233398 57.46504974365234 21.78598785400391 56.55464935302734 21.39673805236816 55.74444961547852 C 20.90322113037109 54.71720123291016 19.56597137451172 54.3511848449707 18.47907257080078 54.3511848449707 Z M 13.14374160766602 17.24583053588867 C 12.75816059112549 18.05673789978027 13.05733680725098 18.96591949462891 13.27015495300293 19.43593406677246 C 13.76508808135986 20.52901649475098 14.76420497894287 21.49916648864746 16.01132202148438 22.09761619567871 C 16.85595512390137 22.50396728515625 17.75613784790039 22.71759986877441 18.61907196044922 22.71759986877441 C 19.7099552154541 22.71759986877441 21.05156135559082 22.34977340698242 21.54658126831055 21.31757545471191 C 21.9315242767334 20.50573921203613 21.63288307189941 19.59658622741699 21.42032241821289 19.12650108337402 C 20.92580413818359 18.03293418884277 19.92667198181152 17.06180000305176 18.6790885925293 16.46210098266602 C 17.83865547180176 16.0581169128418 16.93828773498535 15.84456729888916 16.07537078857422 15.84456729888916 C 14.98338890075684 15.84456729888916 13.64045333862305 16.21275329589844 13.14374160766602 17.24583053588867 Z"/>
    </g>
    <path id="iconmonstr-flower-3" class="cls-3" d="M1,49.7c13.5-3.714,31.508,1.673,36.445,19.879C44.021,49.9,63.794,46.215,73.889,49.7,65.716,54.746,62.3,79.516,37.445,79.516S9.326,54.763,1,49.7ZM28.178,9.671a9.719,9.719,0,0,1,19.438,0,9.719,9.719,0,0,1,9.717,16.834,9.719,9.719,0,0,1-9.717,16.834,9.719,9.719,0,0,1-19.438,0A9.719,9.719,0,0,1,18.46,26.505,9.719,9.719,0,0,1,28.178,9.671Zm9.267,8.551a8.283,8.283,0,1,1-8.283,8.283A8.286,8.286,0,0,1,37.445,18.222Z" transform="translate(283.927 1168)"/>
  </g>
</svg>
