<?xml version="1.0" encoding="utf-8"?>
<!-- Generator: Adobe Illustrator 24.3.0, SVG Export Plug-In . SVG Version: 6.00 Build 0)  -->
<svg version="1.1" id="レイヤー_1" xmlns="http://www.w3.org/2000/svg" xmlns:xlink="http://www.w3.org/1999/xlink" x="0px"
	 y="0px" viewBox="0 0 247.9 108.9" style="enable-background:new 0 0 247.9 108.9;" xml:space="preserve">
<style type="text/css">
	.st0{fill:#C3CDAD;}
	.st1{fill-rule:evenodd;clip-rule:evenodd;fill:#C3CDAD;}
	.st2{fill:#FFFFFF;}
</style>
<path id="iconmonstr-shop-1" class="st0" d="M85.5,16.1l10,16.6v3.7c-0.1,3.5-2.9,6.3-6.5,6.5c-3.7,0.1-6.8-2.8-6.9-6.5v-3.7
	L79,16.1H85.5z M96,16.1l16.3,16.6v3.7c-0.1,3.5-2.9,6.3-6.5,6.5c-3.7,0.1-6.8-2.8-6.9-6.5v-3.7l-9.7-16.6H96z M32,32.8l16.3-16.6
	h6.7l-9.7,16.4v3.7c-0.1,3.7-3,6.6-6.7,6.7c-3.6,0-6.6-2.9-6.7-6.5V32.8z M69,16.1h6.4l3.5,16.4v3.7l0,0c0,3.7-3,6.7-6.7,6.7
	c-3.7,0-6.7-3-6.7-6.7v-3.7L69,16.1z M65.3,16.1l-3.1,16.4v3.7c-0.1,3.7-3,6.6-6.7,6.7c-3.6,0.1-6.6-2.8-6.7-6.4v-3.7l10-16.7H65.3z
	 M35.4,49.6v46.8h6.7V56.3h60.2v33.4H75.5v6.7h33.4V49.6H35.4z M48.7,96.4h20.1V63H48.7V96.4z"/>
<path id="iconmonstr-flower-3" class="st1" d="M141.3,66.6c13.5-3.7,31.5,1.7,36.4,19.9c6.6-19.7,26.3-23.4,36.4-19.9
	c-8.2,5-11.6,29.8-36.4,29.8S149.7,71.7,141.3,66.6z M168.5,26.6c0-5.4,4.4-9.7,9.7-9.7c5.4,0,9.7,4.4,9.7,9.7
	c4.7-2.6,10.6-1,13.2,3.7c2.6,4.6,1,10.5-3.5,13.2c4.6,2.7,6.2,8.7,3.4,13.3c-2.7,4.6-8.5,6.1-13.2,3.5c0,5.4-4.4,9.7-9.7,9.7
	c-5.4,0-9.7-4.4-9.7-9.7c-4.7,2.7-10.6,1-13.3-3.6c-2.6-4.6-1.1-10.5,3.5-13.2c-4.6-2.7-6.2-8.7-3.5-13.3
	C158,25.5,163.9,23.9,168.5,26.6z M177.8,35.1c4.6,0,8.3,3.7,8.3,8.3s-3.7,8.3-8.3,8.3c-4.6,0-8.3-3.7-8.3-8.3
	C169.5,38.8,173.2,35.1,177.8,35.1z"/>
<g>
	<g>
		
			<rect x="58.7" y="-90.9" transform="matrix(0.9775 -0.211 0.211 0.9775 17.7526 13.7507)" class="st0" width="29.2" height="29.2"/>
	</g>
	<g>
		<polygon class="st0" points="60.3,-53.5 49.6,-20.2 83.7,-27.6 		"/>
	</g>
	<g>
		<path class="st0" d="M99.4-27.7c-8.9,0-16.7-6.3-18.6-15C78.7-52.9,85.2-63,95.4-65.3c1.3-0.3,2.7-0.4,4-0.4
			c8.9,0,16.7,6.3,18.6,15c1.1,5,0.1,10-2.6,14.3c-2.8,4.3-7,7.2-12,8.3C102.1-27.8,100.8-27.7,99.4-27.7z"/>
		<path class="st2" d="M99.5-63.7c7.8,0,14.9,5.4,16.6,13.4c2,9.2-3.9,18.2-13,20.2c-1.2,0.3-2.4,0.4-3.6,0.4
			c-7.8,0-14.9-5.4-16.6-13.4c-2-9.2,3.9-18.2,13-20.2C97.1-63.6,98.3-63.7,99.5-63.7 M99.5-67.7L99.5-67.7c-1.5,0-3,0.2-4.5,0.5
			c-5.5,1.2-10.2,4.4-13.2,9.1c-3,4.7-4.1,10.3-2.9,15.8c2.1,9.6,10.7,16.6,20.5,16.6c1.5,0,3-0.2,4.4-0.5
			c5.5-1.2,10.2-4.4,13.2-9.1c3-4.7,4.1-10.3,2.9-15.8C117.9-60.7,109.3-67.7,99.5-67.7L99.5-67.7z"/>
	</g>
</g>
<g>
	<polygon class="st0" points="128.3,69.2 117.8,79.7 107.2,69.1 117.7,58.5 107.2,48 117.8,37.4 128.3,47.9 138.9,37.4 149.5,48 
		138.9,58.5 149.5,69.1 138.9,79.7 	"/>
	<path class="st2" d="M138.9,40.9l7.1,7.1l-10.5,10.5l10.5,10.5l-7.1,7.1l-10.5-10.5l-10.5,10.5l-7.1-7.1l10.5-10.5L110.7,48
		l7.1-7.1l10.5,10.5L138.9,40.9 M138.9,33.9l-3.5,3.5l-7,7l-7-7l-3.5-3.5l-3.5,3.5l-7.1,7.1l-3.5,3.5l3.5,3.5l7,7l-7,7l-3.5,3.5
		l3.5,3.5l7.1,7.1l3.5,3.5l3.5-3.5l7-7l7,7l3.5,3.5l3.5-3.5l7.1-7.1l3.5-3.5l-3.5-3.5l-7-7l7-7L153,48l-3.5-3.5l-7.1-7.1L138.9,33.9
		L138.9,33.9z"/>
</g>
</svg>
