<svg xmlns="http://www.w3.org/2000/svg" width="339.294" height="59.594" viewBox="0 0 339.294 59.594">
  <defs>
    <style>
      .cls-1 {
        fill: #2C3242;
      }

      .cls-2 {
        fill: none;
      }
    </style>
  </defs>
  <g id="レイヤー_1" data-name="レイヤー 1" transform="translate(0 0)">
    <path id="パス_272" data-name="パス 272" class="cls-1" d="M352.549,36.364a.848.848,0,0,1,.1.411.9.9,0,0,1-.93.9.936.936,0,0,1-.477-.121.878.878,0,0,1-.331-.368,11.292,11.292,0,0,1-.823-2.262,30.058,30.058,0,0,1-.617-3.023q-.255-1.662-.411-3.584t-.257-3.977q-1.834.243-4.113.539t-5.225.685q-2.056.292-4.187.514a39.378,39.378,0,0,1-11.024,8.651,25.4,25.4,0,0,1-11.612,2.949,17.668,17.668,0,0,1-4.491-.5,16.4,16.4,0,0,1-3.134-1.125,9.46,9.46,0,0,1-1.851-1.164l-.672-.586a.857.857,0,0,1-.245-.637.9.9,0,0,1,.267-.66.878.878,0,0,1,.637-.269.888.888,0,0,1,.685.294c.033.033.228.206.588.5a7.866,7.866,0,0,0,1.6.966,14.528,14.528,0,0,0,2.7.929,15.971,15.971,0,0,0,3.893.411,20.689,20.689,0,0,0,5.9-.833,28.706,28.706,0,0,0,5.324-2.165,31.05,31.05,0,0,0,4.66-3.029,45.137,45.137,0,0,0,3.928-3.475q-1.74.144-3.451.22t-3.379.074a50.761,50.761,0,0,1-6.241-.368,22,22,0,0,1-5.213-1.234,9.241,9.241,0,0,1-3.584-2.313,5.175,5.175,0,0,1-1.335-3.6,5.1,5.1,0,0,1,.411-1.958,8.987,8.987,0,0,1,.966-1.775,6.581,6.581,0,0,1,1.174-1.3,1.814,1.814,0,0,1,1.053-.5.975.975,0,0,1,.635.245.823.823,0,0,1,.294.662.985.985,0,0,1-.1.428.771.771,0,0,1-.292.331c-.033.033-.173.146-.411.341a5.553,5.553,0,0,0-.783.8,6.053,6.053,0,0,0-.757,1.2,3.342,3.342,0,0,0-.343,1.505,3.553,3.553,0,0,0,.966,2.468,7.366,7.366,0,0,0,2.815,1.787,20.029,20.029,0,0,0,4.538,1.09,45.919,45.919,0,0,0,6.144.366q1.98,0,4.185-.121t4.649-.368q1.174-1.3,2.081-2.447T338,19.814q1.051-1.493,2.2-3.181t2.287-3.426q1.137-1.738,2.227-3.438t2.044-3.206q.956-1.505,1.713-2.741t1.248-2.044a4.788,4.788,0,0,1,.44-1.211,1,1,0,0,1,.944-.57,1.065,1.065,0,0,1,.709.306.987.987,0,0,1,.35.771,1.388,1.388,0,0,1-.245.734,6.077,6.077,0,0,1-.473.656c-.049.311-.125.971-.232,1.982s-.206,2.248-.319,3.7-.206,3.068-.269,4.822-.107,3.539-.107,5.328v1.982q0,.981.049,1.982,3.671-.463,5.359-.648c1.127-.123,1.721-.183,1.787-.183a.966.966,0,0,1,.617.257.835.835,0,0,1,.3.672.855.855,0,0,1-.232.6.94.94,0,0,1-.6.306c-.294.033-.637.074-1.028.123s-.874.1-1.439.171l-2.007.232q-1.15.136-2.694.331.074,2,.232,3.854t.393,3.438a28.71,28.71,0,0,0,.551,2.865,9.7,9.7,0,0,0,.736,2.083ZM339.21,23.736q2.879-.389,5.248-.7l4.271-.551q-.025-1.053-.037-2.1t-.012-2.13q0-3.448.123-6.595t.341-5.47L346.979,9.6q-1.187,1.871-2.468,3.819t-2.56,3.849q-1.3,1.908-2.468,3.574-.586.823-1.2,1.614c-.411.524-.823,1.028-1.234,1.542.36-.033.714-.072,1.065-.121Z" transform="translate(-240.094 0.004)"/>
    <path id="パス_273" data-name="パス 273" class="cls-1" d="M589.435,32.751q-.269.565-.672,1.335t-.917,1.6a18.723,18.723,0,0,1-1.152,1.645,10.228,10.228,0,0,1-1.382,1.468,7.1,7.1,0,0,1-1.592,1.053,4.113,4.113,0,0,1-1.8.411,3.743,3.743,0,0,1-2.521-.9,7.5,7.5,0,0,1-1.787-2.375,15.626,15.626,0,0,1-1.187-3.34,34.33,34.33,0,0,1-.7-3.819q-.247-1.945-.331-3.782t-.091-3.263q0-2.056.136-4.257t.428-4.318q.294-2.1.746-3.989a19.616,19.616,0,0,1,1.078-3.3,7.582,7.582,0,0,1,1.44-2.262,2.5,2.5,0,0,1,1.834-.823,2.84,2.84,0,0,1,1.458.378,2.937,2.937,0,0,1,1.088,1.234,7.976,7.976,0,0,1,.685,2.227,19.352,19.352,0,0,1,.245,3.354,26.041,26.041,0,0,1-.514,5.052,42.415,42.415,0,0,1-1.4,5.268,53.638,53.638,0,0,1-2.081,5.275q-1.2,2.632-2.568,5.126a16.186,16.186,0,0,0,1.645,4.884,2.927,2.927,0,0,0,2.468,1.775,2.9,2.9,0,0,0,1.886-.771,10.314,10.314,0,0,0,1.664-1.824,18.294,18.294,0,0,0,1.333-2.126q.574-1.09.893-1.75a.906.906,0,0,1,.343-.38.925.925,0,0,1,.489-.134.847.847,0,0,1,.672.294.979.979,0,0,1,.257.66,1.118,1.118,0,0,1-.095.38Zm-12.264-9.838q0,1.567.072,3.01t.206,2.766q1.028-1.984,1.958-4.222t1.645-4.524a41.408,41.408,0,0,0,1.125-4.565,23.4,23.4,0,0,0,.428-4.318,13.1,13.1,0,0,0-.465-4.137q-.465-1.258-1.248-1.248-.516,0-.991.709a8.335,8.335,0,0,0-.895,1.935,24.264,24.264,0,0,0-.759,2.879q-.343,1.666-.574,3.574t-.37,4.006Q577.169,20.857,577.171,22.914Z" transform="translate(-457.006 -3.041)"/>
    <path id="パス_274" data-name="パス 274" class="cls-1" d="M649.061,32.751c-.181.376-.411.823-.672,1.335s-.576,1.049-.919,1.6a18.7,18.7,0,0,1-1.15,1.645,10.449,10.449,0,0,1-1.382,1.468,7.142,7.142,0,0,1-1.592,1.053,4.113,4.113,0,0,1-1.8.411,3.742,3.742,0,0,1-2.521-.9,7.523,7.523,0,0,1-1.785-2.375,15.625,15.625,0,0,1-1.189-3.34,34.345,34.345,0,0,1-.689-3.819q-.245-1.945-.331-3.782t-.093-3.263q0-2.056.134-4.257t.43-4.318q.294-2.1.744-3.989a19.807,19.807,0,0,1,1.078-3.3,7.665,7.665,0,0,1,1.44-2.262,2.5,2.5,0,0,1,1.836-.823,2.826,2.826,0,0,1,1.456.378,2.941,2.941,0,0,1,1.09,1.234,7.976,7.976,0,0,1,.685,2.227,19.56,19.56,0,0,1,.245,3.354,26.037,26.037,0,0,1-.514,5.052,43.126,43.126,0,0,1-1.4,5.268,53.577,53.577,0,0,1-2.081,5.275q-1.2,2.632-2.57,5.126a16.186,16.186,0,0,0,1.645,4.884,2.927,2.927,0,0,0,2.468,1.775,2.879,2.879,0,0,0,1.884-.771,10.25,10.25,0,0,0,1.666-1.824,18.288,18.288,0,0,0,1.333-2.126c.384-.726.681-1.31.894-1.75a.9.9,0,0,1,.341-.38.935.935,0,0,1,.489-.134.851.851,0,0,1,.674.294.977.977,0,0,1,.255.66,1.153,1.153,0,0,1-.1.38ZM636.8,22.914q0,1.567.074,3.01t.2,2.766q1.028-1.984,1.958-4.222t1.645-4.524a41.347,41.347,0,0,0,1.129-4.565,23.221,23.221,0,0,0,.428-4.318,13.1,13.1,0,0,0-.465-4.137q-.465-1.258-1.248-1.248-.512,0-.991.709a8.433,8.433,0,0,0-.892,1.935,24.252,24.252,0,0,0-.759,2.879q-.341,1.666-.576,3.574t-.366,3.989Q636.8,20.857,636.8,22.914Z" transform="translate(-504.374 -3.04)"/>
    <path id="パス_275" data-name="パス 275" class="cls-1" d="M773.985,8.241a5.028,5.028,0,0,1-.448,2.017q-.44,1.028-.88,1.947,0,1.686-.012,3.829t-.012,4.491q0,2.35-.012,4.8t-.025,4.76q-.012,2.311-.012,4.343T772.57,38c0,1.028-.012,1.851-.012,2.447V41.4a.919.919,0,0,1-.93.929.865.865,0,0,1-.65-.269.921.921,0,0,1-.257-.66V40.075q0-1.283.012-3.389t.012-4.81q0-2.7.012-5.6t.025-5.776q.012-2.879.012-5.322a25.746,25.746,0,0,1-2.7,3.144q-1.439,1.407-2.673,2.422c-.823.679-1.518,1.207-2.081,1.592s-.878.6-.942.648a1.041,1.041,0,0,1-.49.148.958.958,0,0,1-.637-.257.855.855,0,0,1-.276-.687.9.9,0,0,1,.44-.781c.016-.016.187-.136.514-.356s.751-.531,1.273-.929,1.117-.89,1.785-1.468,1.351-1.224,2.044-1.935a26.944,26.944,0,0,0,2.019-2.324,19.6,19.6,0,0,0,1.738-2.657V8.288a2.758,2.758,0,0,1,.452-1.6,1.349,1.349,0,0,1,1.115-.5,1.388,1.388,0,0,1,1.162.617A2.365,2.365,0,0,1,773.985,8.241Z" transform="translate(-604.505 -4.911)"/>
    <path id="パス_276" data-name="パス 276" class="cls-1" d="M872.615,24.715a34.479,34.479,0,0,1-.337,4.906,29.963,29.963,0,0,1-.952,4.4,22.581,22.581,0,0,1-1.485,3.732,14.209,14.209,0,0,1-1.908,2.879,8.25,8.25,0,0,1-2.25,1.851,5.077,5.077,0,0,1-5.007,0,8.249,8.249,0,0,1-2.25-1.851,14.121,14.121,0,0,1-1.906-2.879,22.232,22.232,0,0,1-1.479-3.732,29.7,29.7,0,0,1-.954-4.4,35.876,35.876,0,0,1,0-9.815,29.819,29.819,0,0,1,.954-4.4,22.3,22.3,0,0,1,1.479-3.732,14.175,14.175,0,0,1,1.906-2.879,8.248,8.248,0,0,1,2.25-1.851,5.077,5.077,0,0,1,5.007,0,8.249,8.249,0,0,1,2.25,1.851,14.267,14.267,0,0,1,1.908,2.879,22.65,22.65,0,0,1,1.479,3.732,30.072,30.072,0,0,1,.952,4.4,34.5,34.5,0,0,1,.343,4.909Zm-.973,0a31.051,31.051,0,0,0-.3-4.407,28.437,28.437,0,0,0-.849-3.977,19.461,19.461,0,0,0-1.322-3.364,13.091,13.091,0,0,0-1.713-2.6,7.523,7.523,0,0,0-2.017-1.682,4.508,4.508,0,0,0-4.5,0,7.609,7.609,0,0,0-2.015,1.676,12.653,12.653,0,0,0-1.713,2.6,19.973,19.973,0,0,0-1.322,3.364,27.569,27.569,0,0,0-.856,3.983,32.044,32.044,0,0,0,0,8.811,27.565,27.565,0,0,0,.858,3.977,19.978,19.978,0,0,0,1.322,3.364,12.6,12.6,0,0,0,1.713,2.6,7.573,7.573,0,0,0,2.015,1.676,4.507,4.507,0,0,0,4.5,0,7.484,7.484,0,0,0,2.017-1.676,13.03,13.03,0,0,0,1.713-2.6,19.466,19.466,0,0,0,1.322-3.364,28.5,28.5,0,0,0,.849-3.965A30.943,30.943,0,0,0,871.642,24.715Z" transform="translate(-678.189 -4.987)"/>
    <path id="パス_277" data-name="パス 277" class="cls-1" d="M862.019,42.212a5.468,5.468,0,0,1-2.653-.7,8.575,8.575,0,0,1-2.334-1.927,14.55,14.55,0,0,1-1.949-2.959,22.853,22.853,0,0,1-1.5-3.784,30.3,30.3,0,0,1-.964-4.442,36.287,36.287,0,0,1,0-9.9,30.3,30.3,0,0,1,.964-4.45,22.712,22.712,0,0,1,1.5-3.784,14.606,14.606,0,0,1,1.949-2.951,8.638,8.638,0,0,1,2.334-1.927,5.377,5.377,0,0,1,5.3,0,8.674,8.674,0,0,1,2.336,1.927,14.68,14.68,0,0,1,1.947,2.951,22.7,22.7,0,0,1,1.5,3.784,30.426,30.426,0,0,1,.964,4.45,36.287,36.287,0,0,1,0,9.9,30.368,30.368,0,0,1-.964,4.45,22.665,22.665,0,0,1-1.5,3.784,14.686,14.686,0,0,1-1.947,2.951,8.612,8.612,0,0,1-2.336,1.927,5.46,5.46,0,0,1-2.651.7Zm0-36.905a4.869,4.869,0,0,0-2.357.617A8.02,8.02,0,0,0,857.5,7.715a14.024,14.024,0,0,0-1.865,2.825,22.4,22.4,0,0,0-1.458,3.681,29.967,29.967,0,0,0-.944,4.362,35.649,35.649,0,0,0,0,9.724,29.908,29.908,0,0,0,.944,4.362,22.218,22.218,0,0,0,1.458,3.681,13.97,13.97,0,0,0,1.865,2.825,8.019,8.019,0,0,0,2.165,1.791,4.785,4.785,0,0,0,4.711,0,7.973,7.973,0,0,0,2.165-1.791,13.973,13.973,0,0,0,1.865-2.825,22.2,22.2,0,0,0,1.458-3.681,29.708,29.708,0,0,0,.944-4.362,35.652,35.652,0,0,0,0-9.724,29.758,29.758,0,0,0-.944-4.362A22.2,22.2,0,0,0,868.4,10.54a14.027,14.027,0,0,0-1.865-2.825,7.973,7.973,0,0,0-2.165-1.791A4.862,4.862,0,0,0,862.019,5.307Zm0,35.071a4.882,4.882,0,0,1-2.394-.64,7.932,7.932,0,0,1-2.1-1.744,12.918,12.918,0,0,1-1.756-2.657,20.472,20.472,0,0,1-1.343-3.416,27.744,27.744,0,0,1-.866-4.022,32.235,32.235,0,0,1,0-8.9,27.864,27.864,0,0,1,.866-4.022,20.472,20.472,0,0,1,1.343-3.416,12.918,12.918,0,0,1,1.756-2.657,7.932,7.932,0,0,1,2.1-1.744,4.814,4.814,0,0,1,4.8,0,7.814,7.814,0,0,1,2.1,1.744,13.33,13.33,0,0,1,1.754,2.655,20.01,20.01,0,0,1,1.345,3.42,28.651,28.651,0,0,1,.857,4.02,32.333,32.333,0,0,1,0,8.91,28.716,28.716,0,0,1-.857,4.008,19.946,19.946,0,0,1-1.345,3.42,13.27,13.27,0,0,1-1.754,2.655,7.784,7.784,0,0,1-2.1,1.744A4.915,4.915,0,0,1,862.019,40.378Zm0-33.237a4.272,4.272,0,0,0-2.1.561,7.367,7.367,0,0,0-1.933,1.61,12.25,12.25,0,0,0-1.67,2.531,19.678,19.678,0,0,0-1.3,3.313,27.469,27.469,0,0,0-.845,3.934,31.614,31.614,0,0,0,0,8.723,27.442,27.442,0,0,0,.845,3.932,19.678,19.678,0,0,0,1.3,3.313,12.252,12.252,0,0,0,1.67,2.531,7.3,7.3,0,0,0,1.933,1.61,4.22,4.22,0,0,0,4.2,0,7.214,7.214,0,0,0,1.935-1.61,12.75,12.75,0,0,0,1.67-2.531,19.109,19.109,0,0,0,1.3-3.313,28.051,28.051,0,0,0,.841-3.921,31.9,31.9,0,0,0,0-8.733,27.986,27.986,0,0,0-.841-3.934,19.177,19.177,0,0,0-1.3-3.313,12.8,12.8,0,0,0-1.67-2.531,7.251,7.251,0,0,0-1.935-1.61A4.3,4.3,0,0,0,862.019,7.141Z" transform="translate(-677.021 -3.724)"/>
    <path id="パス_278" data-name="パス 278" class="cls-1" d="M984.8,24.715a34.787,34.787,0,0,1-.337,4.906,29.95,29.95,0,0,1-.954,4.4,22.415,22.415,0,0,1-1.479,3.732,14.287,14.287,0,0,1-1.906,2.879,8.286,8.286,0,0,1-2.262,1.851,5.073,5.073,0,0,1-5.005,0,8.257,8.257,0,0,1-2.252-1.851,14.3,14.3,0,0,1-1.906-2.879,22.415,22.415,0,0,1-1.479-3.732,29.958,29.958,0,0,1-.954-4.4,35.876,35.876,0,0,1,0-9.815,30.066,30.066,0,0,1,.954-4.4,22.476,22.476,0,0,1,1.479-3.732,14.348,14.348,0,0,1,1.906-2.879,8.257,8.257,0,0,1,2.252-1.851,5.073,5.073,0,0,1,5.005,0,8.286,8.286,0,0,1,2.262,1.851,14.344,14.344,0,0,1,1.906,2.879A22.487,22.487,0,0,1,983.51,15.4a30.082,30.082,0,0,1,.954,4.4A34.789,34.789,0,0,1,984.8,24.715Zm-.973,0a31.016,31.016,0,0,0-.306-4.407,28.139,28.139,0,0,0-.849-3.977,19.3,19.3,0,0,0-1.322-3.364,13.085,13.085,0,0,0-1.713-2.6A7.525,7.525,0,0,0,977.62,8.7a4.5,4.5,0,0,0-4.493,0,7.65,7.65,0,0,0-2.017,1.676,12.645,12.645,0,0,0-1.713,2.6,20.154,20.154,0,0,0-1.322,3.364,27.582,27.582,0,0,0-.857,3.977,32.039,32.039,0,0,0,0,8.811,27.581,27.581,0,0,0,.857,3.977A20.153,20.153,0,0,0,969.4,36.46a12.593,12.593,0,0,0,1.713,2.6,7.608,7.608,0,0,0,2.017,1.676,4.5,4.5,0,0,0,4.493,0,7.485,7.485,0,0,0,2.017-1.676,13.027,13.027,0,0,0,1.713-2.6,19.3,19.3,0,0,0,1.322-3.364,28.211,28.211,0,0,0,.849-3.965,30.93,30.93,0,0,0,.313-4.417Z" transform="translate(-767.301 -4.987)"/>
    <path id="パス_279" data-name="パス 279" class="cls-1" d="M974.219,42.212a5.468,5.468,0,0,1-2.653-.7,8.576,8.576,0,0,1-2.334-1.927,14.6,14.6,0,0,1-1.949-2.959,22.885,22.885,0,0,1-1.5-3.784,30.3,30.3,0,0,1-.962-4.442,36.07,36.07,0,0,1,0-9.9,30.307,30.307,0,0,1,.962-4.45,22.885,22.885,0,0,1,1.5-3.784,14.661,14.661,0,0,1,1.95-2.951,8.636,8.636,0,0,1,2.334-1.927,5.377,5.377,0,0,1,5.3,0,8.613,8.613,0,0,1,2.336,1.927,14.565,14.565,0,0,1,1.947,2.951,22.7,22.7,0,0,1,1.5,3.784,30.424,30.424,0,0,1,.962,4.45,36.066,36.066,0,0,1,0,9.9,30.357,30.357,0,0,1-.962,4.45,22.7,22.7,0,0,1-1.5,3.784,14.6,14.6,0,0,1-1.947,2.951,8.613,8.613,0,0,1-2.336,1.927,5.454,5.454,0,0,1-2.651.7Zm0-36.905a4.861,4.861,0,0,0-2.354.617A8.019,8.019,0,0,0,969.7,7.714a13.934,13.934,0,0,0-1.863,2.825,22.216,22.216,0,0,0-1.46,3.681,29.729,29.729,0,0,0-.942,4.362,35.435,35.435,0,0,0,0,9.724,29.647,29.647,0,0,0,.942,4.362,22.217,22.217,0,0,0,1.46,3.681,13.934,13.934,0,0,0,1.863,2.825,7.987,7.987,0,0,0,2.167,1.791,4.781,4.781,0,0,0,4.709,0,7.976,7.976,0,0,0,2.167-1.791,14.106,14.106,0,0,0,1.863-2.825,22.213,22.213,0,0,0,1.458-3.681,29.7,29.7,0,0,0,.944-4.362,35.435,35.435,0,0,0,0-9.724,29.761,29.761,0,0,0-.94-4.355,22.2,22.2,0,0,0-1.458-3.681,14.022,14.022,0,0,0-1.863-2.825,8.018,8.018,0,0,0-2.167-1.791,4.86,4.86,0,0,0-2.359-.623Zm0,35.071a4.867,4.867,0,0,1-2.394-.64,7.941,7.941,0,0,1-2.1-1.744,12.923,12.923,0,0,1-1.756-2.657,20.482,20.482,0,0,1-1.343-3.416,28.123,28.123,0,0,1-.866-4.022,32.23,32.23,0,0,1,0-8.9,27.847,27.847,0,0,1,.866-4.022,20.483,20.483,0,0,1,1.343-3.416,13.038,13.038,0,0,1,1.756-2.657,7.939,7.939,0,0,1,2.1-1.744,4.81,4.81,0,0,1,4.793,0,7.783,7.783,0,0,1,2.1,1.744,13.333,13.333,0,0,1,1.754,2.655,19.751,19.751,0,0,1,1.345,3.42,28.761,28.761,0,0,1,.864,4.02,32.333,32.333,0,0,1,0,8.91,28.765,28.765,0,0,1-.86,4.008,19.659,19.659,0,0,1-1.345,3.42,13.264,13.264,0,0,1-1.754,2.655,7.783,7.783,0,0,1-2.1,1.744A4.908,4.908,0,0,1,974.219,40.378Zm0-33.237a4.263,4.263,0,0,0-2.093.561,7.376,7.376,0,0,0-1.935,1.61,12.309,12.309,0,0,0-1.67,2.531,19.859,19.859,0,0,0-1.3,3.313,27.172,27.172,0,0,0-.847,3.934,31.623,31.623,0,0,0,0,8.723,27.161,27.161,0,0,0,.847,3.932,19.86,19.86,0,0,0,1.3,3.313,12.257,12.257,0,0,0,1.67,2.531,7.3,7.3,0,0,0,1.935,1.61,4.216,4.216,0,0,0,4.193,0,7.212,7.212,0,0,0,1.935-1.61,12.648,12.648,0,0,0,1.67-2.531,19.167,19.167,0,0,0,1.3-3.313,28.107,28.107,0,0,0,.841-3.921,31.688,31.688,0,0,0,0-8.733,28.114,28.114,0,0,0-.841-3.934,19.167,19.167,0,0,0-1.3-3.313,12.706,12.706,0,0,0-1.67-2.531,7.237,7.237,0,0,0-1.933-1.61A4.3,4.3,0,0,0,974.219,7.141Z" transform="translate(-766.149 -3.724)"/>
    <path id="パス_280" data-name="パス 280" class="cls-1" d="M1119.516,131.853q.857-.857,1.738-1.75t1.715-1.873a23.874,23.874,0,0,0,1.552-2.044,16.749,16.749,0,0,0,1.285-2.262.885.885,0,0,1,.343-.411.926.926,0,0,1,.49-.134.846.846,0,0,1,.672.294.979.979,0,0,1,.257.66.909.909,0,0,1-.074.366,17.708,17.708,0,0,1-1.738,2.914,32.371,32.371,0,0,1-2.056,2.507q-1.08,1.189-2.18,2.3t-2.1,2.246a29.124,29.124,0,0,0,0,3.391q.095,1.7.1,3.609,0,1.567-.1,3.132t-.319,3a19.5,19.5,0,0,1-.6,2.673,8.757,8.757,0,0,1-.969,2.165,4.865,4.865,0,0,1-1.37,1.439,3.535,3.535,0,0,1-4.51-.672,5.305,5.305,0,0,1-.929-3.354,13.541,13.541,0,0,1,.263-2.509,22.7,22.7,0,0,1,.722-2.776,30.047,30.047,0,0,1,1.112-2.9q.65-1.468,1.409-2.862t1.614-2.657a26.214,26.214,0,0,1,1.738-2.287q.049-1.176.111-2.435t.134-2.338a5.611,5.611,0,0,1-1.577,1.812,3.445,3.445,0,0,1-2.069.685,3.62,3.62,0,0,1-2.912-1.248,5.125,5.125,0,0,1-1.059-3.432,12.688,12.688,0,0,1,.307-2.9,18.3,18.3,0,0,1,.66-2.252,10.007,10.007,0,0,1,.648-1.439,4.864,4.864,0,0,1,.294-.477.852.852,0,0,1,.759-.411.876.876,0,0,1,.674.282.931.931,0,0,1,.255.648.849.849,0,0,1-.146.489,4.09,4.09,0,0,1-.232.411,8,8,0,0,0-.563,1.234,15.068,15.068,0,0,0-.563,1.933,11.164,11.164,0,0,0-.255,2.468,3.851,3.851,0,0,0,.49,2.1,1.754,1.754,0,0,0,1.59.759q1.394,0,2.521-2.067a21.894,21.894,0,0,0,1.908-6.009.841.841,0,0,1,.294-.526.877.877,0,0,1,.588-.206.919.919,0,0,1,.93.929c0,.049-.033.339-.1.868s-.142,1.234-.232,2.118-.183,1.9-.282,3.072S1119.582,130.531,1119.516,131.853Zm-1.958,5.188a31.261,31.261,0,0,0-2.019,3.352,33.012,33.012,0,0,0-1.577,3.5,25.613,25.613,0,0,0-1.028,3.329,12.784,12.784,0,0,0-.368,2.838,4.049,4.049,0,0,0,.411,1.995,1.413,1.413,0,0,0,1.32.722,1.821,1.821,0,0,0,1.439-.794,6.729,6.729,0,0,0,1.051-2.262,20.738,20.738,0,0,0,.65-3.562,45.376,45.376,0,0,0,.22-4.686c0-.7-.012-1.413-.037-2.13S1117.575,137.856,1117.559,137.041Z" transform="translate(-881.917 -95.019)"/>
    <path id="パス_281" data-name="パス 281" class="cls-1" d="M1189.084,128.247a3.815,3.815,0,0,0,1.322,1.137,4.578,4.578,0,0,0,4.16-.146,7.22,7.22,0,0,0,1.787-1.505,12.056,12.056,0,0,0,1.439-2.081q.635-1.152,1.152-2.3a.88.88,0,0,1,.341-.411.936.936,0,0,1,.49-.134.851.851,0,0,1,.674.294.944.944,0,0,1,.255.635.851.851,0,0,1-.023.206,1.176,1.176,0,0,1-.074.183,17.8,17.8,0,0,1-3.683,5.606,6.609,6.609,0,0,1-4.524,1.933,5.7,5.7,0,0,1-4.73-2.239,6.792,6.792,0,0,1-1.127-2.239,8.816,8.816,0,0,1-.366-2.5,8.176,8.176,0,0,1,.306-2.3,5.824,5.824,0,0,1,.891-1.824,4.238,4.238,0,0,1,1.372-1.224,3.54,3.54,0,0,1,1.75-.442,2.848,2.848,0,0,1,1.113.232,3.208,3.208,0,0,1,.991.662,3.261,3.261,0,0,1,.709,1.041,3.433,3.433,0,0,1,.27,1.394,5.142,5.142,0,0,1-.344,1.884,6.289,6.289,0,0,1-.942,1.645,7.952,7.952,0,0,1-1.439,1.394A10.432,10.432,0,0,1,1189.084,128.247Zm-.734-1.592a5.967,5.967,0,0,0,1.384-.808,5.722,5.722,0,0,0,1.063-1.075,5.067,5.067,0,0,0,.687-1.234,3.7,3.7,0,0,0,.245-1.31,1.538,1.538,0,0,0-.368-1.112,1.158,1.158,0,0,0-.855-.38,1.762,1.762,0,0,0-1.127.368,2.746,2.746,0,0,0-.759.954,4.9,4.9,0,0,0-.428,1.31,7.738,7.738,0,0,0-.136,1.439,5.335,5.335,0,0,0,.087.929C1188.2,126.053,1188.268,126.362,1188.35,126.656Z" transform="translate(-942.258 -94.449)"/>
    <path id="パス_282" data-name="パス 282" class="cls-1" d="M1253.324,126.415q.389-.808.9-1.775t1.1-1.958q.586-.991,1.234-1.97t1.357-1.851a4.877,4.877,0,0,1,1.439-1.234,2.932,2.932,0,0,1,1.359-.378,2.1,2.1,0,0,1,1.884.929,4.114,4.114,0,0,1,.617,2.3q0,.319-.037.771c-.025.3-.049.617-.074.966s-.049.689-.072,1.041-.037.681-.037.991a10.366,10.366,0,0,0,.06,1.125,3.426,3.426,0,0,0,.232.942,1.491,1.491,0,0,0,.491.637,1.376,1.376,0,0,0,.822.232,2.838,2.838,0,0,0,1.812-.722,9.957,9.957,0,0,0,1.627-1.713,15.887,15.887,0,0,0,1.3-2.019c.368-.687.639-1.234.822-1.666a.929.929,0,0,1,.855-.561.837.837,0,0,1,.675.306,1,1,0,0,1,.257.648.852.852,0,0,1-.074.341c-.066.132-.206.4-.393.808a15.335,15.335,0,0,1-.769,1.407c-.317.528-.691,1.094-1.115,1.69a11.274,11.274,0,0,1-1.406,1.627,7.9,7.9,0,0,1-1.666,1.234,3.832,3.832,0,0,1-1.871.489,3.328,3.328,0,0,1-1.787-.428,3.086,3.086,0,0,1-1.077-1.127,4.571,4.571,0,0,1-.524-1.54,10.723,10.723,0,0,1-.136-1.7q0-.366.037-.833c.025-.311.058-.635.1-.979s.072-.685.1-1.028.037-.668.037-.979a1.69,1.69,0,0,0-.245-1.065.656.656,0,0,0-.44-.282,1.429,1.429,0,0,0-.894.454,8.276,8.276,0,0,0-1.051,1.187q-.551.734-1.127,1.645t-1.075,1.824q-.5.9-.932,1.725t-.672,1.357a3.636,3.636,0,0,1-.979,1.384,1.69,1.69,0,0,1-1,.354,1.532,1.532,0,0,1-1.137-.428,1.644,1.644,0,0,1-.43-1.211c0-.113.016-.339.049-.672s.074-.734.123-1.2.1-.969.146-1.505.1-1.073.146-1.6.09-1.028.123-1.481.049-.841.049-1.149c0-.411-.016-.8-.049-1.176s-.1-.6-.206-.685q-.222.074-.783.917a19.071,19.071,0,0,0-1.44,2.973.922.922,0,0,1-.368.411,1,1,0,0,1-.514.146.822.822,0,0,1-.66-.282.948.948,0,0,1-.245-.648,1.051,1.051,0,0,1,.074-.368,17.977,17.977,0,0,1,2.056-3.854,2.568,2.568,0,0,1,1.923-1.234,1.6,1.6,0,0,1,.954.282,2,2,0,0,1,.617.746,3.981,3.981,0,0,1,.344,1.028,6.085,6.085,0,0,1,.109,1.15q0,.442-.06,1.372t-.16,1.993c-.066.712-.125,1.417-.183,2.118S1253.371,125.942,1253.324,126.415Z" transform="translate(-991.201 -92.127)"/>
    <path id="パス_283" data-name="パス 283" class="cls-1" d="M1404.268,101.51a.932.932,0,0,1-1.7-.156.88.88,0,0,1,.076-.72l.267-.51q.255-.487.711-1.326t1.047-1.964l1.277-2.426,1.419-2.7q.734-1.4,1.44-2.778t1.376-2.692l1.209-2.406q.742-1.462,1.68-3.374L1415,76.537q.991-2.011,1.927-3.95t1.686-3.469q.751-1.526,1.207-2.468c.3-.631.461-.956.469-.971a.993.993,0,0,1,.531-.481.8.8,0,0,1,.693.047,1.027,1.027,0,0,1,.487.518.792.792,0,0,1-.053.705l-.479.991-1.195,2.482-1.676,3.475q-.936,1.939-1.927,3.95t-1.927,3.924q-.938,1.912-1.666,3.356-.5,1.01-1.108,2.184l-1.248,2.426q-.643,1.25-1.316,2.527l-1.322,2.527-1.458,2.772q-.685,1.3-1.209,2.262c-.348.648-.617,1.164-.822,1.555Z" transform="translate(-1114.117 -51.745)"/>
    <path id="パス_284" data-name="パス 284" class="cls-1" d="M170.121,117.115q-.308-.586-.823-1.555t-1.209-2.262l-1.458-2.772L165.3,108q-.672-1.277-1.316-2.529l-1.248-2.424c-.411-.786-.773-1.511-1.108-2.184q-.74-1.462-1.678-3.374t-1.927-3.924q-.987-2.011-1.927-3.95t-1.676-3.475l-1.195-2.482-.479-.991a.792.792,0,0,1-.053-.705,1.028,1.028,0,0,1,.487-.518.8.8,0,0,1,.693-.047.993.993,0,0,1,.531.489q.012.021.469.971t1.207,2.468q.751,1.53,1.686,3.469T159.7,92.75l1.925,3.921q.938,1.914,1.68,3.377l1.209,2.406q.664,1.308,1.376,2.692t1.439,2.778l1.419,2.7,1.277,2.424q.592,1.129,1.047,1.966t.712,1.326l.267.51a.88.88,0,0,1,.076.72.927.927,0,0,1-1.688.156Z" transform="translate(-121.248 -64.614)"/>
    <rect id="長方形_68" data-name="長方形 68" class="cls-2" width="339.294" height="59.593" transform="translate(0 0.001)"/>
  </g>
</svg>
