<svg xmlns="http://www.w3.org/2000/svg" width="87.184" height="106.033" viewBox="0 0 87.184 106.033">
  <defs>
    <style>
      .cls-1 {
        fill: #f6f4f4;
      }
    </style>
  </defs>
  <g id="グループ_113" data-name="グループ 113" transform="matrix(0.788, 0.616, -0.616, 0.788, 516.092, 119.578)">
    <g id="グループ_113-2" data-name="グループ 113" transform="translate(-438.009 190.463)">
      <path id="パス_229" data-name="パス 229" class="cls-1" d="M-415.853,212.764a6.447,6.447,0,0,1,.6.514c.191.174.119-.069.308.025a1.484,1.484,0,0,1,.391.193,2.6,2.6,0,0,1,.443.468c.144.174.284.351.416.533a1.392,1.392,0,0,1,.117.177,2.192,2.192,0,0,1,.159.413,4.79,4.79,0,0,1,.1.486c.012.092.032.115.018.036-.044-.149-.04-.1-.012-.076a3.787,3.787,0,0,1,.44.707,4.463,4.463,0,0,1,.254.82,1.218,1.218,0,0,0,.048.166l.119.311c.07.21.153.416.2.632l.152.648c.061.2-.032-.012-.04.005-.015,0,.028.069.1.171a2.753,2.753,0,0,1,.318.536,1.711,1.711,0,0,1,.079.221l.015.083.029.163.113.65.137.641.034.159c.007.047.025.094.044.26a1.741,1.741,0,0,1-.044.565,1.844,1.844,0,0,1-.069.243c-.007.061-.044-.083-.026.092l.042.656c.029.436.1.863.123,1.3l.05.628c-.032.007.072.189.2.424a1.249,1.249,0,0,1,.142.48,2.559,2.559,0,0,1-.008.377,3.5,3.5,0,0,0,0,.613c0,.268-.039.479-.04.649a3.9,3.9,0,0,0,.084.6c.048.221.072.42.115.566a3.28,3.28,0,0,1,.174.679c0,.428,0,.855.034,1.281.008.222.035.4.03.686a6.052,6.052,0,0,0-.039.6,4.77,4.77,0,0,1,0,.674,1.042,1.042,0,0,0,.079.475c.032.092.073.2.108.334s.048.329.059.345c.026.133.117.326.174.62a2.587,2.587,0,0,1-.026.8,1.251,1.251,0,0,0-.012.233,1.867,1.867,0,0,1-.03.428,1.508,1.508,0,0,0-.062.478l.141.545c.057.4.036.413.088.654a2.031,2.031,0,0,1,.007.924,3.777,3.777,0,0,0-.148.49c0-.061.03.08.115.345a1.794,1.794,0,0,1,.068.554,2.24,2.24,0,0,1-.1.512c-.086.264-.1.348-.087.333,0,.051.061.244.1.588a2.346,2.346,0,0,1-.142.961,1.764,1.764,0,0,0-.046.175c0,.022,0-.019,0,.051a3.118,3.118,0,0,1,.088.835,3.534,3.534,0,0,1-.2.776.386.386,0,0,0-.03.164l-.021.322a4.546,4.546,0,0,1-.073.711c-.065.279-.141.465-.164.581-.022.015-.018.084.026.377a1.957,1.957,0,0,1,0,.551,1.526,1.526,0,0,1-.22.563c-.161.235-.2.348-.182.232a3.4,3.4,0,0,0,.079.494,1.467,1.467,0,0,1-.054.608,2.723,2.723,0,0,1-.168.392c-.109.222-.12.22-.127.3a6.144,6.144,0,0,1,.018.712l-.116.682c-.07.447-.156.783-.265,1.312-.084.283-.184.475-.217.6l-.11.576-.052.318a2.358,2.358,0,0,0-.023.244,3.575,3.575,0,0,1-.086.77,6.2,6.2,0,0,1-.305.654,3.34,3.34,0,0,0-.026.406c-.035.526-.1.953-.117,1.375a4.793,4.793,0,0,1-.261.754c-.029.1,0,.022-.023.153l-.043.32a6.511,6.511,0,0,0-.062,1.222l-.145.7-.073.329a2.745,2.745,0,0,1-.184.507,2.67,2.67,0,0,0-.11.255c-.022.079.023-.036-.018.121l-.144.627a.988.988,0,0,0-.023.1l.018-.087a1.507,1.507,0,0,1,.029.182,2.243,2.243,0,0,1,.012.616,2.2,2.2,0,0,1-.215.674c-.156.3-.218.435-.184.355-.012.033-.029.2-.073.5l-.047.243-.035.131-.022.182a3.653,3.653,0,0,1-.058.41,2.6,2.6,0,0,1-.171.543c-.137.3-.236.461-.255.511a1.83,1.83,0,0,0-.087.411,2.426,2.426,0,0,1-.122.471l-.123.3-.278.674a4.633,4.633,0,0,1-.318.563,1.05,1.05,0,0,0-.108.215l-.131.294-.133.294a.223.223,0,0,0-.054.113,4.026,4.026,0,0,1-.2.8l-.6,1.147c-.206.38-.381.77-.569,1.157l-.283.578a1.134,1.134,0,0,0-.173.48,1.736,1.736,0,0,1-.26.823c-.195.24-.371.358-.425.44a.972.972,0,0,0-.084.439,1.607,1.607,0,0,1-.221.754,2.929,2.929,0,0,0-.268.518l-.249.587a11.273,11.273,0,0,0-.334,1.234c-.1.414-.193.834-.272,1.258a1.523,1.523,0,0,0-.04.522,2.58,2.58,0,0,1-.008.377,1.875,1.875,0,0,1-.043.243l-.039.156a7.384,7.384,0,0,0-.239,1.269l-.079.65-.039.326a1.312,1.312,0,0,1-.1.447c-.164.391-.279.591-.237.6,0,.023.043-.066.026.007l-.025.16-.052.32a12.363,12.363,0,0,1-.25,1.3c-.124.293-.26.588-.409.877l-.116.213c-.062.091-.127.175-.191.253a4.879,4.879,0,0,1-.359.384l-.265.24c-.062.057-.055.054-.13.13a3.408,3.408,0,0,1-.82.668c-.61.3-.866.264-.855.224,0-.018.026-.046.062-.087s.166-.164.173-.215c.057-.134-.008-.133-.094-.076l-.425.353-.171.126c-.065.044-.149.1-.156.084a1.486,1.486,0,0,1-.161.006,7.657,7.657,0,0,1-.813-.014l-.094-.006a.515.515,0,0,1-.482-.464,2.543,2.543,0,0,1,.088-.914,1.775,1.775,0,0,1,.064-.22c.032-.05-.014-.033-.04-.026a.306.306,0,0,1-.068,0c-.073,0-.108-.072-.1-.192a1.266,1.266,0,0,1,.248-.61,1.873,1.873,0,0,1,.414-.421,3.191,3.191,0,0,1,.347-.231c.4-.2.577-.305.337-.221-.142.077-.023-.01.137-.171.075-.075.236-.224.337-.305l.218-.174a1.046,1.046,0,0,1,.093-.066.006.006,0,0,1,.008,0l.037-.066a1.489,1.489,0,0,1,.207-.24c.168-.323.336-.762.538-1.125l.369-.715c.235-.366.4-.49.429-.48,0,.073.059-.059.109-.152l.151-.284.308-.565a12.794,12.794,0,0,1,.678-1.107l.087-.137a.279.279,0,0,0,.046-.064,1.422,1.422,0,0,0,.094-.251,3.8,3.8,0,0,1,.273-.711c.182-.385.355-.775.514-1.168a17.5,17.5,0,0,1,1.02-2.391.81.81,0,0,0,.117-.458,1.555,1.555,0,0,1,.134-.8c.171-.282.353-.417.407-.523a.936.936,0,0,0,.028-.4,2.068,2.068,0,0,1,.117-.751l.181-.61c.1-.414.188-.831.305-1.238l.341-1.223c.019-.086-.012-.157-.007-.457a2.178,2.178,0,0,1,.068-.509l.066-.312.066-.312a3.2,3.2,0,0,1,.1-.388c.112-.316.217-.505.227-.588a2.114,2.114,0,0,1,.054-.226l.08-.308.08-.306.017-.151a3.98,3.98,0,0,1,.153-.838c.122-.353.24-.558.267-.652a.167.167,0,0,0,.011-.068l.025-.222a4.351,4.351,0,0,1,.07-.447l.046-.178.014-.069a6.3,6.3,0,0,1,.139-.761,2.977,2.977,0,0,1,.385-.784c.022-.023.021-.058,0,.077-.005.087.007.059,0-.021a4.415,4.415,0,0,1-.021-.452,1.935,1.935,0,0,1,.05-.4,1.255,1.255,0,0,1,.066-.2l.226-.594a3.552,3.552,0,0,1,.2-.478c.077-.145.144-.243.186-.309s.059-.1.062-.08l.1-.283c.065-.168.167-.465.2-.529a3.749,3.749,0,0,0,.079-.565,2.3,2.3,0,0,1,.061-.276l.045-.153.09-.3.091-.3a2.3,2.3,0,0,1,.177-.449l.249-.413c.091-.42.185-.83.24-1.149a2.637,2.637,0,0,1,.214-.838c.153-.282.271-.439.28-.476a3.049,3.049,0,0,0,.069-.493,2.984,2.984,0,0,1,.062-.387l.066-.311c.048-.231.062-.363.139-.674.087-.282.186-.471.22-.6.063-.3.156-.8.2-1.194.023-.188.065-.468.07-.58,0-.057-.046-.246-.073-.556a1.563,1.563,0,0,1,.061-.54,3.8,3.8,0,0,1,.142-.38,1.03,1.03,0,0,0,.07-.2c0-.046-.007.029-.012-.023a2.714,2.714,0,0,1-.142-.757,2.089,2.089,0,0,1,.327-.922c.035-.064.026-.086.011-.028-.007.021-.007-.011-.023-.083a2.266,2.266,0,0,1-.077-.886,4.392,4.392,0,0,0,.151-1.216l.007-.316a1.942,1.942,0,0,1,.075-.463c.081-.276.139-.436.133-.453l-.076-.425a1.832,1.832,0,0,1,0-.584,2.5,2.5,0,0,1,.119-.439,1.128,1.128,0,0,0,.088-.282c.007-.08-.063-.3-.08-.672a2.27,2.27,0,0,1,.2-.9c.052-.193.054-.022.041-.185a2.6,2.6,0,0,1-.091-.906,2.576,2.576,0,0,1,.258-.715c.023.019.032-.123.018-.34a4.991,4.991,0,0,1-.007-.617c0-.137-.075-.366-.079-.708a2.522,2.522,0,0,1,.168-.773.62.62,0,0,0,.04-.2,2.38,2.38,0,0,1,.068-.4,1.92,1.92,0,0,0,.083-.464c0-.128-.072-.334-.108-.623-.018-.195,0-.211-.015-.287s-.034-.168-.062-.28a1.974,1.974,0,0,1-.046-.786,4.264,4.264,0,0,0,.061-.6,6.771,6.771,0,0,0,.07-1.252l-.012-1.269a2.862,2.862,0,0,0-.156-.548c-.073-.262-.1-.489-.144-.682a5.365,5.365,0,0,1-.13-.659c-.012-.257.01-.468-.008-.625-.075-.4-.019-1.013-.159-1.034a1.912,1.912,0,0,1-.41-.686c-.059-.239-.113-.416-.175-.625-.116-.406-.269-.8-.4-1.2l-.193-.6a1.766,1.766,0,0,1-.1-.538v-.389c0-.084-.021-.12-.029-.07.007.059-.015.007-.043-.047l-.069-.142-.28-.565-.232-.577-.057-.144-.029-.07.019.073c.03.08.015.062-.043.012a2.208,2.208,0,0,1-.3-.323,1.943,1.943,0,0,1-.206-.348l-.09-.226-.215-.573c-.068-.192-.178-.369-.258-.555l-.123-.28a4.011,4.011,0,0,1-.157-.436,2.281,2.281,0,0,0-.127-.395,2.379,2.379,0,0,1-.257-.359,2.349,2.349,0,0,1-.3-.642,2.371,2.371,0,0,1-.079-.592c0-.12,0-.177.021-.146l.058.11c.025.03-.021-.076-.028-.106-.066-.195-.122-.395-.175-.6-.07-.181.077.008.08-.05.019-.03-.025-.108-.1-.21a2.983,2.983,0,0,1-.315-.451,1.249,1.249,0,0,1-.141-.519,2.329,2.329,0,0,1,.081-.649l.028-.149a.39.39,0,0,1,.456-.312A.4.4,0,0,1-415.853,212.764Z" transform="translate(442.423 -181.997)"/>
      <path id="パス_230" data-name="パス 230" class="cls-1" d="M-412.038,205.308a7.775,7.775,0,0,1-2.089,5.938,8.4,8.4,0,0,1-4.99,2.883c-4.026.6-7.982-2.9-8.089-7.156a7.691,7.691,0,0,1,.868-2.937,8.577,8.577,0,0,1,1.911-2.318,6.162,6.162,0,0,1,2.6-1.469,6.7,6.7,0,0,1,1.482-.077c.482-.035.964-.055,1.452-.047a6.283,6.283,0,0,1,4.921,2.84,12.672,12.672,0,0,0,.917,1.165,3.1,3.1,0,0,1,.632,1.364,10.551,10.551,0,0,1,.8,3.091.888.888,0,0,1-.768.994.89.89,0,0,1-.994-.768.9.9,0,0,1,0-.228l.032-.225a8.025,8.025,0,0,0-1.236-4.944,7.394,7.394,0,0,0-4.392-2.518,4.036,4.036,0,0,0-1.307-.068,6.683,6.683,0,0,0-1.225.454,6.452,6.452,0,0,0-2.154,1.266,6.527,6.527,0,0,0-1.795,4.5,6.35,6.35,0,0,0,.215,2.394,5.652,5.652,0,0,0,1.4,2.045,5.854,5.854,0,0,0,4.645,1.539,6.319,6.319,0,0,0,2.3-.761,5.038,5.038,0,0,0,1.857-1.66,5.721,5.721,0,0,0,.751-4.727l-.035-.112a1.173,1.173,0,0,1,.78-1.464,1.173,1.173,0,0,1,1.465.779A1.4,1.4,0,0,1-412.038,205.308Z" transform="translate(442.122 -186.786)"/>
      <path id="パス_231" data-name="パス 231" class="cls-1" d="M-411.762,216.407a4.641,4.641,0,0,1,2.175,1.348,5.986,5.986,0,0,1,1.009,2.574,4.136,4.136,0,0,1,.066.741,5.407,5.407,0,0,1-.12.741c-.008.075-.061.331-.115.563a5.487,5.487,0,0,1-.186.678,6.218,6.218,0,0,1-1.414,2.255l-.445.475-.224.233-.112.116c-.07.061-.152.126-.22.173-.284.193-.476.278-.547.324l-.033.019a.118.118,0,0,0,.021-.018,1.394,1.394,0,0,0-.117.123,3.571,3.571,0,0,1-.318.316,2.265,2.265,0,0,1-.273.2l-.144.077-.547.289-.138.072a2.091,2.091,0,0,1-.294.123,3.1,3.1,0,0,1-.425.108l-.18.033c-.018,0,.035-.023,0-.01-.051.015-.206.133-.494.29a3.8,3.8,0,0,1-.737.269c-.228.066-.319.1-.66.182a3.054,3.054,0,0,1-.775.026c-.057,0-.072-.005-.059-.012a.5.5,0,0,0-.127.026,4.621,4.621,0,0,1-.746.189l-.628.051-.3.023a2.244,2.244,0,0,1-.4-.011c-.254-.028-.438-.069-.556-.086l-.559-.052a3.852,3.852,0,0,1-.708-.1,4.753,4.753,0,0,1-.578-.225.776.776,0,0,1-.083-.039.9.9,0,0,0-.181-.018,2.4,2.4,0,0,1-.855-.148,3.482,3.482,0,0,1-.6-.336l-.431-.278c-1.153-.529-3-2.14-3.165-3.557-.155-.429-.235-.591-.409-1.089a5.91,5.91,0,0,1-.053-1.174c-.016-.152-.066-.341-.088-.581a3.358,3.358,0,0,1,.05-.634c.032-.2.035-.371.091-.6a4.759,4.759,0,0,1,.208-.565,8.061,8.061,0,0,1,1.106-2.063,3.875,3.875,0,0,1,1.969-1.312l.022-.01a.338.338,0,0,1,.432.2.338.338,0,0,1-.108.378,10.185,10.185,0,0,1-1.944,1.283c-.374.18-.585.329-1.037.515a7.491,7.491,0,0,1-1.12.331,4.987,4.987,0,0,1-1.154.117c-.427-.017-.643.052-1.142.075a7.063,7.063,0,0,1-1.252-.162c-.237-.09-.4-.193-.522-.237a1.24,1.24,0,0,0-.4-.059,2.513,2.513,0,0,1-.338-.041,1.307,1.307,0,0,1-.349-.126l-.533-.262a9.85,9.85,0,0,1-1.018-.668,6.04,6.04,0,0,1-.453-.428,1.288,1.288,0,0,0-.335-.251,2,2,0,0,1-.59-.475,4.123,4.123,0,0,1-.345-.556l-.625-.939a4.93,4.93,0,0,1-.507-1.088A12.292,12.292,0,0,1-438,211.4a2.671,2.671,0,0,1,.051-.739,1.574,1.574,0,0,0,.022-.192l.011-.273a5.745,5.745,0,0,1,.134-1.208c.039-.214.08-.4.094-.519a4.355,4.355,0,0,1,.116-.656l.207-.616a2.423,2.423,0,0,1,.293-.652l.69-.913c.251-.333.525-.648.8-.965a6.142,6.142,0,0,1,2-1.45c.37-.184.75-.34,1.128-.5a1.635,1.635,0,0,1,.356-.117,3.128,3.128,0,0,1,.367-.058,2.365,2.365,0,0,0,.414-.059c.123-.03.3-.1.565-.167a2.446,2.446,0,0,1,.82-.048,2.2,2.2,0,0,0,.943-.061,2.068,2.068,0,0,1,.445,0l.305.03c.221.026.369.032.646.086a3.659,3.659,0,0,1,.649.258,1.419,1.419,0,0,0,.37.119,3.4,3.4,0,0,1,.693.211,3.692,3.692,0,0,1,.591.358l.964.636a.761.761,0,0,1,.215,1.055.762.762,0,0,1-1.056.217l-.044-.033-.022-.017a3.774,3.774,0,0,1-.739-.833,3.213,3.213,0,0,1-.652-.964,2.79,2.79,0,0,1-.109-.6l-.022-.167-.04-.181-.2-.9-.135-.458a2.151,2.151,0,0,1-.066-.652l.04-.476.018-.418c.007-.327.04-.659.023-.882a3.8,3.8,0,0,1,.039-1.04l.065-.478a2.6,2.6,0,0,1,.141-.552c.055-.157.1-.286.126-.381a1.721,1.721,0,0,0,.036-.344,2.324,2.324,0,0,1,.09-.614,2.776,2.776,0,0,1,.246-.533,2.127,2.127,0,0,0,.284-.723,1.9,1.9,0,0,1,.276-.6,3.528,3.528,0,0,1,.363-.421l.653-.689c.261-.276.392-.395.692-.668a1.947,1.947,0,0,1,.569-.351c.208-.079.375-.112.494-.149a.818.818,0,0,0,.137-.048l.236-.1.474-.2a1.7,1.7,0,0,1,.551-.148l.49-.048c.268-.029.671-.04,1-.057.345.008.69.07,1.037.109a3.3,3.3,0,0,1,1.06.16,3.175,3.175,0,0,1,.534.312l.161.1.168.1a6.4,6.4,0,0,1,1.647,1.237c.222.258.449.518.654.788l.316.4a2.3,2.3,0,0,0,.218.231,2.37,2.37,0,0,1,.428.558l.217.458c.079.181.124.247.231.523a4.646,4.646,0,0,1,.148.587,1.473,1.473,0,0,0,.108.327l.181.478a7.038,7.038,0,0,1,.269.987c.081.333.117.677.175,1.015a10.1,10.1,0,0,1-.011,1.041l-1.621-1.07c.052-.025.2-.182.578-.453.449-.276.656-.344.623-.355l.561-.551.532-.624.592-.613a4.24,4.24,0,0,1,.757-.54,4.3,4.3,0,0,1,.514-.625,4.758,4.758,0,0,1,.915-.592,8.4,8.4,0,0,1,.722-.53,1.25,1.25,0,0,1,.315-.131l.258-.081.519-.153c.351-.09.723-.133,1.084-.188a5.743,5.743,0,0,1,1.122.092,3.374,3.374,0,0,1,1.113.374l.207.108a2.525,2.525,0,0,1,.327.206,4.543,4.543,0,0,1,.416.363l.689.652a5.22,5.22,0,0,1,.661.787,7.118,7.118,0,0,1,1.024,3.778,5.654,5.654,0,0,1-.084.986,6.142,6.142,0,0,1-.189.951l-.122.454a2.19,2.19,0,0,1-.218.508l-.424.732a13.12,13.12,0,0,1-.953,1.538,15.862,15.862,0,0,1-1.19,1.309l-1.193,1.251-1.2,1.214-.188-.682c.342.113.7.195,1.03.334a5.066,5.066,0,0,0,.953.373,3.426,3.426,0,0,1,.584.152l.512.182a5.874,5.874,0,0,1,.987.46c.646.334,1.335.587,1.977.94a5.832,5.832,0,0,1,.961.621,7.364,7.364,0,0,0,.868.619,1.741,1.741,0,0,1,.475.4c.135.159.235.3.331.393a7.619,7.619,0,0,1,.8.8c.228.318.443.653.634.9a2.509,2.509,0,0,1,.34.58l.214.565a5.364,5.364,0,0,1,.283,1.186l.025.155a1.8,1.8,0,0,1,0,.229c-.01.144-.032.262-.048.365a2.436,2.436,0,0,0-.058.458,9.828,9.828,0,0,1-.133,1.211l-.117.6a2.887,2.887,0,0,1-.284.679l-.106.215-.07.192-.224.572a7.562,7.562,0,0,1-.6,1.109,6.073,6.073,0,0,1-2.045,1.769,6.59,6.59,0,0,1-2.713.77,9.329,9.329,0,0,1-2.616-.362,6.989,6.989,0,0,1-2.249-1.005c-.347-.211-.675-.427-1-.656a5.2,5.2,0,0,1-.458-.377l-.224-.195-.109-.1c-.028-.028-.015-.023-.033-.041-.048-.061-.2-.156-.409-.327-.093-.073-.255-.215-.331-.293l-.2-.21-.388-.431c-.11-.162-.21-.336-.305-.509a6.009,6.009,0,0,1-.863-2.267l0-.03a.425.425,0,0,1,.371-.474.429.429,0,0,1,.2.023c.38.138.693.318,1.033.468a6.672,6.672,0,0,1,.964.479,5.313,5.313,0,0,0,.91.486l.228.115c.066.033.044,0,.1.025a2.8,2.8,0,0,1,.508.24l1.687,1.116a5.614,5.614,0,0,0,.8.482,3.349,3.349,0,0,0,.831.337,8.207,8.207,0,0,0,1.608.381,5.413,5.413,0,0,0,.743-.05l.366-.035.345-.11a3.792,3.792,0,0,0,1.368-.794,5.233,5.233,0,0,0,.561-.7l.246-.4c.028-.041.109-.186.181-.286l.182-.237c.106-.146.148-.152.2-.279l.173-.443a7.691,7.691,0,0,0,.273-.9,4.407,4.407,0,0,1,.177-.592l.058-.163.014-.04,0-.113a3.991,3.991,0,0,0-.066-.932l-.094-.467a1.371,1.371,0,0,0-.164-.369c-.2-.352-.345-.641-.5-.931a7.064,7.064,0,0,0-.641-.8c-.145-.175-.242-.336-.331-.457a1.168,1.168,0,0,0-.329-.307l-.413-.313a4.606,4.606,0,0,1-.438-.364,4.929,4.929,0,0,0-.826-.572c-.616-.336-1.285-.576-1.915-.9a5.624,5.624,0,0,0-.962-.446l-.5-.173a2.836,2.836,0,0,0-.464-.091,5.088,5.088,0,0,1-1.07-.352c-.334-.121-.689-.185-1.033-.28a.411.411,0,0,1-.286-.508.412.412,0,0,1,.088-.164l.011-.011c.768-.853,1.462-1.759,2.166-2.619a13.127,13.127,0,0,0,.979-1.327,11.9,11.9,0,0,0,.688-1.448,5.456,5.456,0,0,0-.451-5.55,3.01,3.01,0,0,0-.485-.474l-.592-.475a1.937,1.937,0,0,0-.24-.184l-.213-.1a1.08,1.08,0,0,0-.5-.149,3.593,3.593,0,0,0-.572-.036c-.2.054-.392.076-.591.133-.167.059-.465.145-.529.162-.007-.015-.224.208-.648.485-.928.552-.123-.09-1.118.979a5.141,5.141,0,0,1-.642.429l-.614.6-.6.65-.685.619a3.965,3.965,0,0,1-.859.483,8.983,8.983,0,0,1-.82.523l-.014.007a1.113,1.113,0,0,1-1.493-.5,1.122,1.122,0,0,1-.115-.58c.019-.265.079-.532.073-.8-.035-.269-.041-.543-.091-.81a5.128,5.128,0,0,0-.17-.8l-.126-.394a3.16,3.16,0,0,1-.128-.562l-.047-.315c0-.014-.083-.226-.12-.33l-.144-.392c0-.023-.023-.064-.121-.179a4.015,4.015,0,0,1-.367-.48l-.229-.342c-.149-.233-.311-.451-.468-.677A4.786,4.786,0,0,0-418,192.588l-.222-.15-.214-.164a2.375,2.375,0,0,0-.243-.182,5.484,5.484,0,0,0-.755-.113c-.264-.037-.526-.1-.792-.126-.283.006-.5-.014-.842,0a1.725,1.725,0,0,0-.765.108l-.381.152-.192.075a2.16,2.16,0,0,1-.3.1c-.178.047-.313.073-.394.1a.633.633,0,0,0-.215.128c-.157.137-.49.424-.65.6l-.621.645a2.454,2.454,0,0,0-.244.275.664.664,0,0,0-.1.236,3.37,3.37,0,0,1-.4.982,1.636,1.636,0,0,0-.146.3,1.077,1.077,0,0,0-.03.3,2.93,2.93,0,0,1-.058.573c-.047.2-.109.366-.152.5a1.514,1.514,0,0,0-.081.341l-.051.439a2.348,2.348,0,0,0-.014.8c.036.391.011.675.017.962v.505l-.021.445a1.952,1.952,0,0,0,.182.682l.239.9.072.266c.026.109.04.2.052.289a1.66,1.66,0,0,0,.061.309,4.217,4.217,0,0,0,.442.508,2.6,2.6,0,0,0,.489.538l-.907,1.222-.922-.551a1.377,1.377,0,0,0-.743-.3,3.122,3.122,0,0,1-.7-.2,2.2,2.2,0,0,0-.387-.148l-.461-.032-.25-.022a.272.272,0,0,0-.11,0c-.087.007-.268.062-.561.1a3.891,3.891,0,0,1-.706-.018.72.72,0,0,0-.286.012l-.5.157a4.057,4.057,0,0,1-.683.117,1.449,1.449,0,0,0-.182.029.847.847,0,0,0-.167.066c-.3.135-.612.265-.906.416a5.164,5.164,0,0,0-1.591,1.136c-.211.247-.431.487-.634.743-.116.149-.18.2-.341.431l-.331.416c-.069.1-.226.6-.315.8a3,3,0,0,0-.091.438c-.046.247-.1.421-.127.573a4.39,4.39,0,0,0-.153,1l-.023.283a3.184,3.184,0,0,1-.055.358,1.764,1.764,0,0,0-.058.367,10.858,10.858,0,0,0,.365,2,3.768,3.768,0,0,0,.374.947l.261.438.131.22c.05.08.122.206.162.291a3.886,3.886,0,0,0,.211.409.828.828,0,0,0,.268.224,2.521,2.521,0,0,1,.525.45,4.749,4.749,0,0,0,.334.359,8.639,8.639,0,0,0,.81.6l.454.257a.627.627,0,0,0,.164.08,1.764,1.764,0,0,0,.213.036,2.1,2.1,0,0,1,.683.16l.479.25a9.265,9.265,0,0,0,.946.159c.244.007.763-.057,1.081-.017A3.745,3.745,0,0,0-428,218.1a6.9,6.9,0,0,0,1.016-.279c.24-.087.668-.323.965-.46a7.975,7.975,0,0,0,1.777-1.146l.348.572a3.194,3.194,0,0,0-1.662,1.12,6.457,6.457,0,0,0-.919,1.876,2.513,2.513,0,0,0-.209.983,1.916,1.916,0,0,0,.087.986,8.574,8.574,0,0,0,.112,1.038l.456.961c.973,2.592,4.4,3.214,6.874,3.153a.74.74,0,0,0,.152-.022l.25-.047.475-.091s.109-.051.316-.139a3.213,3.213,0,0,1,.406-.135,2.809,2.809,0,0,1,.493-.069c.255-.008.385-.025.334-.03a3.951,3.951,0,0,1,.4-.163,1.889,1.889,0,0,0,.3-.122c.037-.022.173-.138.446-.307a2.416,2.416,0,0,1,.509-.229l.36-.1c.077-.019.122-.036.112-.037a.216.216,0,0,0-.04.014l.106-.065.421-.26.1-.059-.05.033c-.011.01.018-.021.07-.081s.134-.159.264-.283a2.277,2.277,0,0,1,.232-.2l.2-.135c.243-.15.389-.226.407-.247l.533-.613a5.113,5.113,0,0,0,.962-1.47,4.006,4.006,0,0,0,.131-.388c.047-.126.086-.226.167-.512a2.264,2.264,0,0,1,.127-.342c.016-.023,0-.251.022-.37a8.434,8.434,0,0,0-.12-1.7,6.8,6.8,0,0,0-1.037-1.675l-.032-.039a.383.383,0,0,1,.05-.54A.384.384,0,0,1-411.762,216.407Z" transform="translate(438.009 -190.463)"/>
      <path id="パス_232" data-name="パス 232" class="cls-1" d="M-413.164,249.178a3.682,3.682,0,0,1-2.765.377,5.249,5.249,0,0,1-1.973-1.082,13.8,13.8,0,0,1-2.431-2.927c-1.339-1.984-2.89-3.78-4.337-5.688-.718-.957-1.4-1.947-2.028-2.981a23.606,23.606,0,0,1-1.538-3.294,17.378,17.378,0,0,1-.98-3.539,20.124,20.124,0,0,1-.327-3.717.827.827,0,0,1,.844-.81.812.812,0,0,1,.533.208l.047.041a63.062,63.062,0,0,1,5.237,5.392c.856.91,1.758,1.78,2.567,2.735a9,9,0,0,1,1.11,1.52,13.732,13.732,0,0,0,1.234,1.408,23.681,23.681,0,0,1,4.453,6.076c.461,1.158,1.508,2.179,1.579,3.57a10.866,10.866,0,0,1,.348,2.05,11.112,11.112,0,0,1-.131,2.194.885.885,0,0,1-.994.758.886.886,0,0,1-.758-.994,1.027,1.027,0,0,1,.046-.186l.07-.188c.828-2.224.149-4.663-.834-6.854a66.95,66.95,0,0,0-4.335-5.952,11.006,11.006,0,0,0-1.214-1.408,10.526,10.526,0,0,1-1.388-1.251c-.871-.88-1.682-1.817-2.565-2.683-1.827-1.678-3.724-3.265-5.566-4.907l1.425-.562a13.35,13.35,0,0,0,.681,6.7,24.528,24.528,0,0,0,3.385,6.047c1.414,1.849,2.721,3.808,4.3,5.568a10.194,10.194,0,0,0,2.493,2.245,3.7,3.7,0,0,0,1.372.523,1.5,1.5,0,0,0,1.1-.294l.032-.025a1.167,1.167,0,0,1,1.633.225,1.165,1.165,0,0,1-.225,1.633A1.151,1.151,0,0,1-413.164,249.178Z" transform="translate(441.231 -177.119)"/>
      <path id="パス_233" data-name="パス 233" class="cls-1" d="M-412.725,232.2c-.007-.035-.034-.287-.127-.338s-.066.077.037.2a2.369,2.369,0,0,0,1.069.664,6.8,6.8,0,0,0,1.589.149c.576,0,1.143-.108,1.733-.157a11.279,11.279,0,0,0,5.9-3.627,16.131,16.131,0,0,0,3.575-5.926,9.344,9.344,0,0,0,.552-3.383,32.76,32.76,0,0,0-.181-3.376l1.131.547a38.169,38.169,0,0,0-5.454,2.833,18.223,18.223,0,0,1-2.678,1.539,16.833,16.833,0,0,0-2.431,1.9,46.79,46.79,0,0,0-4.621,4.027,5.026,5.026,0,0,0-.74,1.316,11.789,11.789,0,0,0-.675,1.265,4.079,4.079,0,0,0,.033,2.589.9.9,0,0,1-.469,1.176.894.894,0,0,1-1.176-.469.865.865,0,0,1-.07-.276l-.024-.287a6.382,6.382,0,0,1,.637-3.243,5.469,5.469,0,0,1,.792-1.429c.354-.416.781-.752,1.124-1.153a29.351,29.351,0,0,1,4.643-4.219c.849-.608,1.764-1.117,2.561-1.792a11.868,11.868,0,0,1,2.487-1.908c1.8-1.051,3.5-2.288,5.352-3.286l.01,0a.767.767,0,0,1,1.04.311.783.783,0,0,1,.081.242c.1.63.261,1.261.311,1.9a7.441,7.441,0,0,1-.1,1.919,13.5,13.5,0,0,1-.411,1.861,11.99,11.99,0,0,1-.55,1.8,19.349,19.349,0,0,1-3.956,6.314,11.651,11.651,0,0,1-1.385,1.274,11.159,11.159,0,0,1-1.534,1.1,16.9,16.9,0,0,1-3.478,1.457,14.22,14.22,0,0,1-3.805.632,4.359,4.359,0,0,1-2.039-.678,2.348,2.348,0,0,1-.871-.978,1.853,1.853,0,0,1,.037-1.542,1.165,1.165,0,0,1,1.563-.515A1.164,1.164,0,0,1-412.725,232.2Z" transform="translate(446.476 -180.955)"/>
    </g>
    <path id="パス_234" data-name="パス 234" class="cls-1" d="M-396.337,249.449a3.467,3.467,0,0,1,.1,1.006,3.4,3.4,0,0,1-.1.6.925.925,0,0,1-.064.192l-.051.119a8.781,8.781,0,0,1-.438.919,11.364,11.364,0,0,1-1.082,1.649,19.1,19.1,0,0,1-2.663,2.615l-1.415,1.116c-.479.358-.95.718-1.41,1.091-.933.721-1.886,1.457-2.882,2.1s-2,1.281-3.058,1.845a31.732,31.732,0,0,1-3.329,1.386,9.959,9.959,0,0,1-3.7.627,3.977,3.977,0,0,1-2.056-.6,3.254,3.254,0,0,1-1.31-1.839,7.8,7.8,0,0,1,.243-3.888l.289-.915c.137-.289.3-.566.449-.846a9.056,9.056,0,0,1,1.071-1.551,11.628,11.628,0,0,1,1.284-1.349,16.82,16.82,0,0,1,1.5-1.066c.541-.284,1.146-.446,1.694-.678.556-.217,1.08-.519,1.633-.741a21.682,21.682,0,0,1,6.961-1.516c1.18-.036,2.349-.652,3.557-.48.6-.066,1.2-.162,1.816-.214l.458-.048a5.535,5.535,0,0,1,.737.035,6.282,6.282,0,0,1,1.545.355Zm-1.156.906-.458.059a5.564,5.564,0,0,1-.671.069c-.105,0-.2-.006-.319-.015l-.434-.019a16.139,16.139,0,0,0-1.734-.029,10.571,10.571,0,0,1-1.737.033,6.2,6.2,0,0,0-1.744.029,50.888,50.888,0,0,0-6.77,1.488,9.673,9.673,0,0,0-1.617.609c-.522.249-.908.729-1.4,1-.457.326-.9.675-1.336,1.013a10.348,10.348,0,0,0-1.147,1.189,5.037,5.037,0,0,0-.806,1.412c-.1.251-.213.5-.3.747l-.15.791a6.5,6.5,0,0,0,.01,3.076,2.422,2.422,0,0,0,.577,1.055,2.2,2.2,0,0,0,1.221.538,8.832,8.832,0,0,0,3.227-.427,25.291,25.291,0,0,0,6.169-3.055c1-.606,1.883-1.292,2.84-1.955a18.289,18.289,0,0,0,2.65-2.194,12.782,12.782,0,0,0,2.012-2.694,9.688,9.688,0,0,0,.654-1.5,7.368,7.368,0,0,0,.221-.775c.05-.175.022-.174.062-.155a.38.38,0,0,0,.231-.014Z" transform="translate(6.881 22.277)"/>
  </g>
</svg>
