<svg xmlns="http://www.w3.org/2000/svg" width="248" height="115.59" viewBox="0 0 248 115.59">
  <defs>
    <style>
      .cls-1, .cls-2 {
        fill: #e1c8d0;
      }

      .cls-2 {
        stroke: #fff;
        stroke-width: 5px;
      }
    </style>
  </defs>
  <g id="アイコン" transform="translate(-111.5 -1131.958)">
    <path id="iconmonstr-handshake-1" class="cls-1" d="M53.365,77.484a4.435,4.435,0,0,1-7.155-5.243l5.073-6.858a4.431,4.431,0,0,1,7.141,5.247l-5.059,6.854ZM49.479,64.111a4.433,4.433,0,1,0-7.151-5.243l-5.054,6.826a4.434,4.434,0,1,0,7.146,5.252Zm-8.95-6.538a4.431,4.431,0,0,0-7.146-5.243l-5.1,6.882a4.433,4.433,0,0,0,7.146,5.247Zm-8.941-6.529A4.435,4.435,0,0,0,24.438,45.8l-5.064,6.835a4.431,4.431,0,0,0,7.146,5.243ZM113.052,11.3s-7.325,1.418-12.563,2.256c-10.109,1.62-19.52-1.96-29.963-7.358C68.429,5.116,66.018,4,63.658,4a8.081,8.081,0,0,0-6.086,3.01C51.137,14.3,47.4,20.741,39.742,25.211c-3.773,2.2.659,9.11,8.762,6.27,4.136-1.451,8.177-4.216,12.747-7.9,3.589-2.9,5.747-2.468,8.851.636,5.832,5.832,25.456,25.206,25.456,25.206a92.936,92.936,0,0,1,17.49-8.441V11.3ZM63.479,70.941c-.744,2.162-2.911,4.715-4.489,6.854a6.743,6.743,0,0,0,4.155,1.573c3.377,0,5.6-3.161,2.553-6.208l-2.219-2.219ZM94.125,54.628c-5.04-4.97-22.29-21.984-27.335-26.911a2.222,2.222,0,0,0-2.864-.207c-3.01,2.186-9.807,7-13.868,8.422-7.937,2.779-14.673-1.046-16.119-6.4a7.289,7.289,0,0,1,3.425-8.389c4.748-2.774,7.805-6.477,11.569-11.131a14.835,14.835,0,0,0-9.379-3.448c-8.036,0-15.625,6.435-25.135,5.8C7.951,11.937,0,10.463,0,10.463V40.294c6.953,1.512,11.564,2.186,18.465,5.648L20.641,43A9.143,9.143,0,0,1,36.775,45.81a9.122,9.122,0,0,1,8.941,6.533,9.1,9.1,0,0,1,8.936,6.524,9.126,9.126,0,0,1,9.331,9.454l5.5,5.5a4.435,4.435,0,0,0,6.27-6.274L67.812,59.6a1.109,1.109,0,0,1,1.569-1.569l9.572,9.576a4.433,4.433,0,0,0,6.27-6.27L73.441,49.555a1.109,1.109,0,0,1,1.569-1.569L87.728,60.71a4.414,4.414,0,0,0,6.4-6.081Z" transform="translate(182.948 1160.642)"/>
    <path id="iconmonstr-speech-bubble-9" class="cls-2" d="M38,1C17.015,1,0,12.811,0,27.385,0,35.859,5.754,43.4,14.693,48.225c2.749,5.865-3.429,10.847-9.95,12.187,7.191.528,19.985-.327,29.684-6.761C56.9,55.108,76,42.834,76,27.385,76,12.811,58.986,1,38,1Z" transform="translate(114 1184.458)"/>
    <path id="iconmonstr-speech-bubble-9-2" data-name="iconmonstr-speech-bubble-9" class="cls-2" d="M38,1C58.985,1,76,12.811,76,27.385c0,8.474-5.754,16.014-14.693,20.84-2.749,5.865,3.43,10.847,9.95,12.187-7.191.528-19.985-.327-29.684-6.761C19.1,55.107,0,42.834,0,27.385,0,12.811,17.014,1,38,1Z" transform="translate(281 1133.458)"/>
  </g>
</svg>
