<svg xmlns="http://www.w3.org/2000/svg" width="158.241" height="121.182" viewBox="0 0 158.241 121.182">
  <defs>
    <style>
      .cls-1 {
        fill: #bbb2c6;
      }
    </style>
  </defs>
  <g id="icon" transform="translate(-94.071 -1141.2)">
    <path id="iconmonstr-user-21" class="cls-1" d="M37.231,48.391c8.437-1.947,16.294-3.654,12.489-10.837C38.143,15.69,46.651,4,58.875,4,71.341,4,79.643,16.139,68.03,37.555c-3.919,7.227,4.228,8.931,12.489,10.837,7.308,1.689,7.794,5.262,7.794,11.447L88.3,62.875H29.448c0-8.081-.648-12.537,7.782-14.483ZM.007,62.875H22.089c-.1-24.072,11.021-13.6,11.021-32.753,0-7.392-4.824-11.4-11.032-11.4-9.17,0-15.55,8.769-6.866,25.165,2.852,5.387-3.036,6.668-9.365,8.128C.364,53.278,0,55.957,0,60.6l.007,2.278Z" transform="translate(164 1182.887)"/>
    <path id="iconmonstr-location-17" class="cls-1" d="M36.3,0C20.4,0,6,12.891,6,28.791s13.138,34.875,30.3,62.1c17.157-27.221,30.3-46.2,30.3-62.1S52.2,0,36.3,0Zm0,40.394a10.1,10.1,0,1,1,10.1-10.1A10.1,10.1,0,0,1,36.3,40.394Zm20.2,73.214c0,4.181-9.038,7.574-20.2,7.574s-20.2-3.393-20.2-7.574,9.038-7.574,20.2-7.574S56.493,109.428,56.493,113.608Z" transform="translate(88.071 1141.2)"/>
  </g>
</svg>
